<?xml version="1.0" encoding="utf-8"?>
<!-- Generator: Adobe Illustrator 28.0.0, SVG Export Plug-In . SVG Version: 6.00 Build 0)  -->
<svg version="1.1" id="Stem" xmlns="http://www.w3.org/2000/svg" xmlns:xlink="http://www.w3.org/1999/xlink" x="0px" y="0px"
	 viewBox="0 0 880 880" style="enable-background:new 0 0 880 880;" xml:space="preserve">
<style type="text/css">
	.st0{fill:#FFFFEA;}
	.st1{fill:#FFFFEA;stroke:#083330;stroke-width:11.1246;stroke-linecap:round;stroke-miterlimit:10;}
</style>
<path class="st0" d="M337.1,415.3l0.3-2.6c7.1-12,62.7-26.4,120.1-24.8s85,21.8,83.1,26.4c-0.3,1.1-0.5,0.1-0.8,1.2L337.1,415.3
	L337.1,415.3z"/>
<g>
	<g>
		<path class="st0" d="M344.7,417.7l0.3-2.4c6.6-11.1,58.1-24.5,111.4-23c54.3,1.5,78.8,20.2,77,24.5c-0.3,1-0.5,0.1-0.7,1.1
			L344.7,417.7z"/>
	</g>
	<path class="st1" d="M344.2,413.4c26.3,100-117.6,145.7-87.4,252.1c11.8,32.5,49.5,84.6,211.6,75c128.7-7.6,182-54.6,143.7-150.2
		c-16.3-41.6-97.2-141.8-77-175.6"/>
</g>
</svg>
