<?xml version="1.0" encoding="utf-8"?>
<!-- Generator: Adobe Illustrator 28.0.0, SVG Export Plug-In . SVG Version: 6.00 Build 0)  -->
<svg version="1.1" id="Stem" xmlns="http://www.w3.org/2000/svg" xmlns:xlink="http://www.w3.org/1999/xlink" x="0px" y="0px"
	 viewBox="0 0 880 880" style="enable-background:new 0 0 880 880;" xml:space="preserve">
<style type="text/css">
	.st0{fill:#FFFFEA;}
	.st1{fill:#FFFFEA;stroke:#083330;stroke-width:11.1246;stroke-linecap:round;stroke-miterlimit:10;}
	.st2{fill:#FFE5AB;}
</style>
<g>
	<g>
		<path class="st0" d="M344.7,417.7l0.3-2.4c6.6-11.1,58.1-24.5,111.4-23c54.3,1.5,78.8,20.2,77,24.5c-0.3,1-0.5,0.1-0.7,1.1
			L344.7,417.7z"/>
	</g>
	<path class="st1" d="M525.1,501.4c1.6-27.7,1-52.4-27.9-51.2c-39.5,6.8-140.1-17.1-135.9,51c-8,55.6-101.2,75.7-97.6,140.8
		c12.2,222.8,546.1,97.6,285.2-102.5C536,529.7,525.7,517.3,525.1,501.4z"/>
	<g>
		<g>
			<path class="st2" d="M425.8,536.4c22.1-9.9,23.9,20.5,39.3,28c24.1,11.9,28-25.1,44.9-31c9.6-3.4,17.9-0.7,26,3.3
				c-5.2-7.1-8.6-15.1-8.7-24.1c2.1-27.6,2.1-52.3-26.8-51.6c-39.5,6-139.3-19.8-136.5,48.2c-1.8,11-6.9,20.5-13.9,29.2
				C375.1,548,365.1,600,425.8,536.4z"/>
		</g>
	</g>
	<path class="st1" d="M344.2,413.4c25.3,62.9-85,67.8-60.4,106.6c14.3,7.9,27.4-9.7,39.8-14.8c51.8-15,15.4,68,95.7-0.7
		c17.9-15.3,23.6,21,38.9,28.9c24,12.4,28.6-24.6,45.7-30.3c23.8-7.9,48.1,35.7,77.3,20.4c41.5-21.8-69.2-60.9-46-109.1"/>
</g>
</svg>
