<?xml version="1.0" encoding="utf-8"?>
<!-- Generator: Adobe Illustrator 28.0.0, SVG Export Plug-In . SVG Version: 6.00 Build 0)  -->
<svg version="1.1" id="Face" xmlns="http://www.w3.org/2000/svg" xmlns:xlink="http://www.w3.org/1999/xlink" x="0px" y="0px"
	 viewBox="0 0 880 880" style="enable-background:new 0 0 880 880;" xml:space="preserve">
<style type="text/css">
	.st0{fill:#083330;}
	.st1{fill:#FFE5AB;}
	.st2{fill:none;stroke:#083330;stroke-width:2.1638;stroke-linecap:round;stroke-linejoin:round;stroke-miterlimit:10;}
	.st3{fill:none;stroke:#083330;stroke-width:2.2657;stroke-linecap:round;stroke-linejoin:round;stroke-miterlimit:10;}
	.st4{fill:#FBCDB8;}
	.st5{fill:#FF905F;}
	.st6{fill:#FFFFFF;stroke:#083330;stroke-width:2.1638;stroke-linecap:round;stroke-linejoin:round;stroke-miterlimit:10;}
	.st7{fill:none;stroke:#083330;stroke-width:4.3277;stroke-miterlimit:10;}
</style>
<g>
	<g>
		<path class="st0" d="M377.4,642.2c8,4.9,14.7,12.4,18.5,21.1c3.8,8.9,3.3,19.7-0.9,28.5c-2.8,5.9-7.3,10.6-12.2,14.3
			c-0.2,0.2-0.6,0.1-0.8-0.1c-0.2-0.2-0.1-0.5,0-0.7c3.8-4.8,7.3-9.7,9.4-15.1c2.1-5.4,2.6-11.2,2.2-17
			c-1.2-11.6-8.8-21.8-16.9-30.1C376.3,642.6,376.9,641.8,377.4,642.2L377.4,642.2z"/>
	</g>
	<g>
		<path class="st0" d="M490.9,623.6c-7.9,15.6-9,34.5,1,49.2c3.2,4.6,7.8,8.3,12.8,11.7c0.2,0.2,0.3,0.5,0.1,0.8
			c-0.1,0.2-0.4,0.3-0.6,0.2c-2.9-1-5.7-2.3-8.3-4c-13.6-8.5-18.6-27.2-14.3-42.1c1.6-6,4.3-11.8,8.4-16.4
			C490.4,622.5,491.2,623.1,490.9,623.6L490.9,623.6z"/>
	</g>
	<ellipse class="st1" cx="368.2" cy="616.9" rx="22.7" ry="21.6"/>
	<ellipse class="st1" cx="512.3" cy="596.6" rx="22.7" ry="21.6"/>
	<circle class="st0" cx="373" cy="613.4" r="5.5"/>
	<circle class="st0" cx="507" cy="593.2" r="4.5"/>
	<path class="st2" d="M519,587.1c4.2,12.1-3.3,16.9-7.1,17.3"/>
	<path class="st2" d="M495.2,591.6c-0.3,4.9,2.3,7.8,4.9,10.9c-1.9-0.4-5.6-0.9-8-5.2"/>
	<path class="st2" d="M498.4,607.5c5.7,2.9,14.1,3.1,20.6-2"/>
	<path class="st2" d="M523.5,587c1.3,4.5,1,9.4-0.8,13.7"/>
	<path class="st2" d="M527.7,599.6c-0.6,4.5-4.2,9.5-10.9,12"/>
	<path class="st3" d="M377.6,624.9c-1.5,0.8-3.2,1.2-5,1.2c-6.6,0-11.9-5.8-11.9-13c0-0.9,0.1-1.8,0.2-2.6"/>
	<path class="st2" d="M358.7,622.5c-2.8-4.1-3.8-9.8-0.8-16.8"/>
	<path class="st2" d="M379,628.9c-2,1-4.2,1.6-6.6,1.6c-2.6,0-5.5-0.9-8-2.5"/>
	<path class="st2" d="M384.9,607.7c0.9,3.4,1.8,7.2,0.2,10.3"/>
	<path class="st2" d="M362,631.6c-4.4-1.9-7.3-6.3-8.7-11"/>
	<path class="st2" d="M388.2,604.6c0.8,2.6,1.2,5.4,1.4,8.1"/>
	
		<ellipse transform="matrix(0.9954 -9.587900e-02 9.587900e-02 0.9954 -63.1748 37.8092)" class="st4" cx="361.8" cy="676.3" rx="27.8" ry="29.8"/>
	
		<ellipse transform="matrix(0.9954 -9.587900e-02 9.587900e-02 0.9954 -59.8309 52.5763)" class="st4" cx="517.2" cy="648.9" rx="27.8" ry="29.8"/>
	<path class="st0" d="M396.8,676.3c37.1,16,50.7,6.7,87-16.7l-1.2-2.1c-42.1-31.6-47.5-9.5-86.6,10.2L396.8,676.3z"/>
	<path class="st2" d="M418.9,643.2c10-7.7,24.4-13.8,36.9-11"/>
	<path class="st1" d="M417.2,693.7c27.7,6.2,39.8-3.8,53.4-13.6c0,0-9.3,20.5-21.2,22.7C429.9,706.4,417.2,693.7,417.2,693.7z"/>
	<path class="st2" d="M463.2,685.7c-10.5,7.1-22.7,12.4-34.8,9.7"/>
	<path class="st2" d="M486.2,667.7c-3.6,3.4-4.4,3.7-8.3,6.8"/>
	<path class="st5" d="M400.7,678.3c0,0,3.3-2.6,7.3-2.8c3.9-0.2,22,0.4,22,0.4s8.6,2.8,11,2.4c2.4-0.4,7.3-6.1,10.8-6.3
		c3.5-0.2,21.4-5.1,21.4-5.1l-20.4,12.4l-31.8,5.5L400.7,678.3z"/>
	<path class="st6" d="M406.6,668.4c0,0-0.8,4.9,0.2,6.9s5.3,2.2,6.5,1.6c1.2-0.6,3.1-7.5,1.8-8.4
		C411.7,666.1,407.8,667.2,406.6,668.4z"/>
	<path class="st6" d="M408.2,661.9c0,0-2.8,5.9,2.8,6.1c5.5,0.2,6.7-2.2,6.7-2.2l-0.8-10.2L408.2,661.9z"/>
	<polygon class="st5" points="429.6,647.4 441.4,642.5 452.2,641.9 462,644.7 457.5,650.5 434.5,652.5 424.9,651.5 	"/>
	<path class="st6" d="M416.8,655.7c0,0-2.8,9,0.8,10.2s7.9,0.4,9-1.6s0.8-12.6,0.6-14.1S416.8,655.7,416.8,655.7z"/>
	<path class="st6" d="M464.6,648c0,0-1.4,5.5,1,5.9s5.3,0.8,6.3-0.6c1-1.4-1.4-4.5-1.4-4.5L464.6,648z"/>
	<path class="st6" d="M459.3,646c0,0-4.3-0.6-4.3,4.7c0,5.3-0.2,7.1,1.8,7.7c2,0.6,7.1,0.6,8.4-3.1c1.4-3.7-2.8-8.6-2.8-8.6
		L459.3,646z"/>
	<path class="st6" d="M462.8,672c-0.2-0.6-2.6-4.7-2-6.5c0.6-1.8,5.5-3.5,8.4-3.5c2.9,0,4.1,3.7,4.1,3.7L462.8,672z"/>
	<path class="st6" d="M453.4,663.9c0,0-1.8,6.3-0.4,8.1c1.4,1.8,7.3,2.6,8.3,0.8c1-1.8,4.9-9.6,1.4-11.4
		C459.1,659.6,454,660,453.4,663.9z"/>
	<path class="st6" d="M421.3,679.4c2.3-0.9,1.6-8.8,1-9.8c-0.6-1-6.5-2.8-9-2.2c-2.6,0.6,0,11.4,1.6,11.8S418.4,680.6,421.3,679.4z"
		/>
	<path class="st6" d="M430.3,679.9c-3.2,0.3-5.7,1.1-6.9-2.7s-3.3-6.1-2.3-7.5c1-1.4,8.4-2.8,9.7-0.1S435.3,679.5,430.3,679.9z"/>
	<path class="st6" d="M440.3,679c2.9,0.9,7.8,0,7.9-1.6s-0.8-7.6-1.4-8.9c-0.6-1.3-6.5-2.2-8.7-1S437.4,678.1,440.3,679z"/>
	<path class="st6" d="M432.1,651.3c0,0-5.7,15.7-0.2,16.3c4.8,0.5,9.2,1.4,9.6-3.9c0.4-5.3,2.4-12.8-2.2-14
		C434.8,648.6,433.1,650.2,432.1,651.3z"/>
	<path class="st6" d="M447.9,646.4c-4.8,0.6-7.1,4.7-6.7,11.8c0.4,7.1,0.2,10,1.8,10.6c1.6,0.6,9.6-0.8,11.8-4.5s0.8-13.8-1.6-16.1
		C450.8,645.8,449.4,646.2,447.9,646.4z"/>
	<path class="st7" d="M396,668c39.1-19.7,44.5-41.7,86.6-10.2"/>
	<path class="st7" d="M396.8,676.7c37.1,16,50.7,6.7,87-16.7"/>
</g>
</svg>
