<?xml version="1.0" encoding="utf-8"?>
<!-- Generator: Adobe Illustrator 28.0.0, SVG Export Plug-In . SVG Version: 6.00 Build 0)  -->
<svg version="1.1" id="Face" xmlns="http://www.w3.org/2000/svg" xmlns:xlink="http://www.w3.org/1999/xlink" x="0px" y="0px"
	 viewBox="0 0 880 880" style="enable-background:new 0 0 880 880;" xml:space="preserve">
<style type="text/css">
	.st0{fill:none;stroke:#083330;stroke-width:3.7082;stroke-linecap:round;stroke-linejoin:round;stroke-miterlimit:10;}
	.st1{fill:none;stroke:#083330;stroke-width:1.8541;stroke-linecap:round;stroke-linejoin:round;stroke-miterlimit:10;}
	.st2{fill:#083330;}
</style>
<g>
	<path class="st0" d="M476.2,646.7c1.1,13.8,1.4,27.6,0.7,41.4"/>
	<path class="st0" d="M405.3,648.6c-4.9,12.8-3.9,27.3-2.8,41.2"/>
	<path class="st0" d="M402.5,667.3c24.8-2.6,49.8-3.7,74.8-3.1"/>
	<path class="st1" d="M452,673.3c-9.2,0.6-18.4,1.1-27.6,1.6c7,0.1,14,0.2,20.9,0.3c-4.5,1.8-9.3,2.7-14.1,2.7
		c4.4,0.5,8.8,0.7,13.2,0.6c-2.5,0.5-5.1,1-7.6,1.5"/>
	<path class="st1" d="M485.7,657.9c1,7.7,1.2,15.5,0.7,23.2"/>
	<path class="st1" d="M394.7,658.1c-0.8,6.2-1.1,12.4-1,18.7"/>
	<g>
		<path class="st2" d="M492.5,609.9c0.8-3.6,4.8-3.9,6.4-3.5c6.3,1.2,7.5,7.4,5.8,10.7c-1.7,3.1-6.2,3.7-9.2,1.7
			C493.2,617.1,492.1,613.6,492.5,609.9z"/>
	</g>
	<g>
		<path class="st2" d="M384.2,615.8c-1.3-2.7-3.5-3.5-7.2-3c-4.4,0.5-5.3,5.3-4.9,8.9C374,632.2,387.5,623.8,384.2,615.8z"/>
	</g>
	<path class="st1" d="M381.6,630.9c-3.6,0.8-7.4,0.5-10.9-0.7c-0.9-0.3-1.9-0.8-2.1-1.7c-0.1-0.5,0-1-0.1-1.5
		c-0.2-0.5-0.6-0.9-0.9-1.4c-0.3-0.5-0.4-1.2-0.5-1.8c-0.1-1.3,0-2.6,0.2-3.9"/>
	<path class="st1" d="M378.1,634.8c9.6,0.1,11.9-3.8,13.6-6.6"/>
	<path class="st1" d="M386,628.3c2.8-1.6,4.5-5,4-8.2"/>
	<path class="st1" d="M495.8,624.2c2.2,0.4,4.4,0.1,6.6-0.1c0.6-0.1,1.3-0.1,1.9-0.3c1.8-0.6,3-2.3,4-3.9"/>
	<path class="st1" d="M508.6,608.1c0.7,2,0.9,4.1,0.7,6.2"/>
	<path class="st1" d="M502.1,628.4c5.3-1.1,7.8-2.4,10.1-6.8c1.3-2.4,1.4-7,1.3-9.8"/>
</g>
</svg>
