<?xml version="1.0" encoding="utf-8"?>
<!-- Generator: Adobe Illustrator 28.0.0, SVG Export Plug-In . SVG Version: 6.00 Build 0)  -->
<svg version="1.1" id="Face" xmlns="http://www.w3.org/2000/svg" xmlns:xlink="http://www.w3.org/1999/xlink" x="0px" y="0px"
	 viewBox="0 0 880 880" style="enable-background:new 0 0 880 880;" xml:space="preserve">
<style type="text/css">
	.st0{fill:url(#SVGID_1_);}
	.st1{fill:url(#SVGID_00000061474063366680792780000005315327122022161798_);}
	.st2{fill:#00DBDB;}
	.st3{fill:#083330;}
	.st4{fill:#C8A5DB;}
	.st5{fill:#FFFFEA;}
	.st6{fill:none;stroke:#083330;stroke-width:7.4164;stroke-linecap:round;stroke-linejoin:round;stroke-miterlimit:10;}
	.st7{fill:none;stroke:#083330;stroke-width:3.7082;stroke-linecap:round;stroke-linejoin:round;stroke-miterlimit:10;}
	.st8{fill:#FF7BAB;stroke:#083330;stroke-width:7.4164;stroke-linecap:round;stroke-linejoin:round;stroke-miterlimit:10;}
</style>
<g>
	<radialGradient id="SVGID_1_" cx="338.1057" cy="647.4304" r="29.2973" gradientUnits="userSpaceOnUse">
		<stop  offset="0" style="stop-color:#C8A5DB"/>
		<stop  offset="0.2015" style="stop-color:#CBA9DC;stop-opacity:0.7985"/>
		<stop  offset="0.417" style="stop-color:#D2B6DE;stop-opacity:0.583"/>
		<stop  offset="0.6389" style="stop-color:#E0CCE1;stop-opacity:0.3611"/>
		<stop  offset="0.864" style="stop-color:#F2E9E6;stop-opacity:0.136"/>
		<stop  offset="1" style="stop-color:#FFFFEA;stop-opacity:0"/>
	</radialGradient>
	<circle class="st0" cx="338.1" cy="647.4" r="29.3"/>
	
		<radialGradient id="SVGID_00000110445259185834471320000009933153327129384832_" cx="543.8602" cy="647.4304" r="29.2973" gradientUnits="userSpaceOnUse">
		<stop  offset="0" style="stop-color:#C8A5DB"/>
		<stop  offset="0.2015" style="stop-color:#CBA9DC;stop-opacity:0.7985"/>
		<stop  offset="0.417" style="stop-color:#D2B6DE;stop-opacity:0.583"/>
		<stop  offset="0.6389" style="stop-color:#E0CCE1;stop-opacity:0.3611"/>
		<stop  offset="0.864" style="stop-color:#F2E9E6;stop-opacity:0.136"/>
		<stop  offset="1" style="stop-color:#FFFFEA;stop-opacity:0"/>
	</radialGradient>
	<circle style="fill:url(#SVGID_00000110445259185834471320000009933153327129384832_);" cx="543.9" cy="647.4" r="29.3"/>
	<circle class="st2" cx="383.7" cy="621.4" r="11.7"/>
	<circle class="st3" cx="383.7" cy="621.4" r="5.5"/>
	<path class="st4" d="M408.1,621l-17.5-6.1l-29.6,6.1c0,0,5.8-19.4,23.8-18.7C402.8,603,408.1,621,408.1,621z"/>
	<circle class="st2" cx="499.9" cy="621.4" r="11.7"/>
	<circle class="st3" cx="499.9" cy="621.4" r="5.5"/>
	<circle class="st5" cx="503.9" cy="624.9" r="3.2"/>
	<path class="st4" d="M474.7,621l19-6.1l28.1,6.1c0,0-5.8-19.4-23.8-18.7C480,603,474.7,621,474.7,621z"/>
	<path class="st6" d="M362.9,623.2c0,0,9.1-5.8,24.8-7.3c15.7-1.5,18.7,7.3,18.7,7.3s-5.3,17.9-21.9,17.2
		C367.7,639.8,362.9,623.2,362.9,623.2z"/>
	<path class="st6" d="M520.5,623.2c0,0-9.1-5.8-24.8-7.3s-18.7,7.3-18.7,7.3s5.3,17.9,21.9,17.2
		C515.6,639.8,520.5,623.2,520.5,623.2z"/>
	<path class="st7" d="M390.1,616.7c-4.2-8-5.4-17.6-3.2-26.4c0.2-1,0.6-2.1,1.4-2.7c0,1.2-0.3,2.5-0.9,3.6"/>
	<path class="st7" d="M381.1,617.7c-3.9-3.4-7.4-7.4-9.8-12c-2.4-4.6-3.6-10-2.8-15.1c0.6,1.6,0.7,3.3,0.4,4.9"/>
	<path class="st7" d="M369.3,619.6c-1.8-1.7-3.9-2.9-5.9-4.3c-5.3-3.9-9.2-9.7-10.7-16.1c-0.2-0.9-0.3-1.9,0.2-2.6
		c0.6,1.4,0.9,3.1,0.7,4.6"/>
	<path class="st7" d="M400.9,616.2c-2-3.3-2.1-7.4-2-11.2c0-3.7,0.2-7.8,2.7-10.5c0.5,1.6,0.1,3.4-1.1,4.6"/>
	<path class="st7" d="M359.9,622.2c-6.2-0.4-12.8-2.5-16.4-7.7c-0.3-0.4-0.6-1-0.4-1.4c0.9,0.2,1.8,0.4,2.6,0.9
		c0.8,0.5,1.3,1.5,1.1,2.3"/>
	<path class="st7" d="M492.7,616.7c4.2-8,5.4-17.6,3.2-26.4c-0.2-1-0.6-2.1-1.4-2.7c0,1.2,0.3,2.5,0.9,3.6"/>
	<path class="st7" d="M501.7,617.7c3.9-3.4,7.4-7.4,9.8-12c2.4-4.6,3.6-10,2.8-15.1c-0.6,1.6-0.7,3.3-0.4,4.9"/>
	<path class="st7" d="M513.5,619.6c1.8-1.7,3.9-2.9,5.9-4.3c5.3-3.9,9.2-9.7,10.7-16.1c0.2-0.9,0.3-1.9-0.2-2.6
		c-0.6,1.4-0.9,3.1-0.7,4.6"/>
	<path class="st7" d="M481.8,616.2c2-3.3,2.1-7.4,2-11.2c0-3.7-0.2-7.8-2.7-10.5c-0.5,1.6-0.1,3.4,1.1,4.6"/>
	<path class="st7" d="M522.9,622.2c6.2-0.4,12.8-2.5,16.4-7.7c0.3-0.4,0.6-1,0.4-1.4c-0.9,0.2-1.8,0.4-2.6,0.9
		c-0.8,0.5-1.3,1.5-1.1,2.3"/>
	<circle class="st5" cx="387.7" cy="624.9" r="3.2"/>
	<path class="st8" d="M477.2,690.2c13.8-8.1,8.8-21.9,8.8-21.9l-31.7-12.8l-57.2,3.4c0,0-29.3-0.3-7.7,23.9
		C410.8,707,463.4,698.3,477.2,690.2z"/>
	<path class="st8" d="M369.4,652.5c0,0,10.8,13.1,30-0.3c19.2-13.5,30-4,31.3,2.4c9.1-11.4,39.2-25.1,51.9,1.7
		c5.7,12.1,31,0.3,31,0.3s-8.1,34-54.9,8.4c-6.4,9.4-35.7,19.5-47.8,1.3C394.7,677.4,372.8,675,369.4,652.5z"/>
	<path class="st8" d="M400.9,690.2"/>
	<ellipse transform="matrix(0.9911 -0.133 0.133 0.9911 -86.8686 66.9137)" class="st5" cx="457.4" cy="683.6" rx="12.5" ry="4.9"/>
	
		<ellipse transform="matrix(8.179823e-02 -0.9966 0.9966 8.179823e-02 -283.9467 1065.6794)" class="st5" cx="436.4" cy="686.9" rx="3.5" ry="4.8"/>
</g>
</svg>
