<?xml version="1.0" encoding="utf-8"?>
<!-- Generator: Adobe Illustrator 28.0.0, SVG Export Plug-In . SVG Version: 6.00 Build 0)  -->
<svg version="1.1" id="Face" xmlns="http://www.w3.org/2000/svg" xmlns:xlink="http://www.w3.org/1999/xlink" x="0px" y="0px"
	 viewBox="0 0 880 880" style="enable-background:new 0 0 880 880;" xml:space="preserve">
<style type="text/css">
	.st0{fill:#8AF756;stroke:#083330;stroke-width:3;stroke-linecap:round;stroke-linejoin:round;stroke-miterlimit:10;}
	.st1{fill:#083330;}
	.st2{fill:#C8A5DB;stroke:#C8A5DB;stroke-width:1.8541;stroke-linecap:round;stroke-linejoin:round;stroke-miterlimit:10;}
	.st3{fill:#C8A5DB;stroke:#C8A5DB;stroke-width:1.8725;stroke-linecap:round;stroke-linejoin:round;stroke-miterlimit:10;}
</style>
<g>
	<path class="st0" d="M351.7,631c-6,2.8-9.4,29.3,3.4,39.4c12.8,10.1,24.6,1,23.6-4.4s9.8-11.4,12.1-4.4c2.4,7.1,2,14.1,14.1,12.8
		c12.1-1.3,17.5-6.4,17.8-11.8c0.3-5.4,4.7-6.7,8.1-6.7c3.4,0,9.4-3.7,9.8,8.1c0.3,6.7,4.7,7.1,8.1,7.1s8.4-0.7,8.4-5.4
		c0-4.7,1.3-8.4,11.1-4.4c9.8,4,10.4,1.7,11.8,8.4c1.3,6.7,10.4,4,11.4,0.7s-0.3-9.8,5.7-8.1c6.1,1.7,12.5,3.4,12.5,11.4
		s11.1,10.1,14.8,7.4c3.7-2.7,15.8-18.5,13.5-28.3c-2.4-9.8,1.3-14.8,0.3-21.9c-1-7.1-5.7-13.1-8.4-3c0,0-0.3,10.4-8.8,15.2
		c-4.7,3-3.7,8.8-8.8,8.8s-8.4,0-9.1-8.1c-0.7-8.1-15.2-11.4-16.8-5.1c-1.7,6.4,1.3,11.1-8.4,9.4c-9.8-1.7-9.4-12.5-9.4-17.8
		s-6.1-10.8-11.4-8.4s1.3,15.8-8.4,18.2c-9.8,2.4-17.2,4-18.2-6.7c-1-10.8-6.9-6.7-9.1-5.4c-2.2,1.3-4.5,3.2-4,13.1
		c0.7,14.5-17.5,18.2-20.2,9.8c-2.7-8.4,2-13.8-10.1-8.8s-22.6,5.4-26.6-2.4S357.5,628.3,351.7,631z"/>
	<path class="st0" d="M368.6,626.9c6.9,7.4,15.8,3.4,20.9-7.7c3.6-7.9,25.9-10.4,22.9-19.9s-21.9-10.6-31.3-5.1
		C371.3,600,357.5,615.1,368.6,626.9z"/>
	<path class="st0" d="M504.6,619.8c13.1,6,21.9-12.1,15.2-18.5c-6.7-6.4-3-13.8-18.2-15.5c-15.2-1.7-19.2-4.7-27.6,2.7
		s-7.1,11.4,0,13.5C498.6,609.1,492.2,614.1,504.6,619.8z"/>
	<path class="st1" d="M370.6,630.4c0,0-2.8-1.3-1.3-11.1c1.5-9.8,11.3-14.8,15.2-16.9c6.3-3.5,15.9-2.8,15.9-2.8
		c7.9,0.6,11,4.2,9.5,8.1c-5.5,4.7-17.9,7.6-20.5,13.4c-4.8,10.5-12.9,14.6-19.6,8.9"/>
	<path class="st1" d="M520.5,611c-0.9-2.6-2.9-4.9-4.9-6.6c-3.3-2.8-3-5.6-7.6-8.8s-20.5-3.5-25-3.3c-4.5,0.3-5.8,3.3-8.6,5.3
		s-1.5,6.1-1.5,6.1s0,0,0,0c0.6,0.3,1.3,0.5,2,0.7c24.6,7.1,18.2,12.1,30.6,17.8c6.5,3,11.9,0,14.9-4.5
		C521.3,615.3,521.2,613,520.5,611z"/>
	<path class="st1" d="M529.9,629.6c0,0-0.3,10.4-8.8,15.2c-2.4,1.5-3.3,3.7-4.3,5.5c0,0-0.9,1.7-1.9,3.6c-1,1.5-2.7,3.9-3.8,4.8
		c-1.8,1.5-11.6,0.8-12.1-7.6c-0.4-7.4-5.8-10.6-9.6-10.9c-3.8-0.3-2.5,2.8-4.3,8.8c-2.3,6.6-5.2,7.3-14.1,4c-8.3-3-5.6-22-9.8-21.7
		c-2.3,0.1-2.3,3.8-2.3,9.3s-7.6,8.6-16.9,8.8c-9.3,0.3-9.1-7.3-11.4-14.6c-8.1,0.8-8.1,3.3-8.1,11.9s-5.1,12.9-11.6,14.9
		c-6.6,2-13.4-3.8-13.6-9.3c-0.3-5.5-18.9,0.9-26.8-0.6c-7.8-1.5-9.9-10.5-9.9-10.5c-2.4-3.5-3.8-3.3-6.7-2.1
		c-6.3,2.5-1.3,29.3-1.3,29.3s0.1,0.5,0.2,1.2c0.7,0.8,1.5,1.6,2.4,2.3c12.8,10.1,24.6,1,23.6-4.4c-0.5-2.7,1.9-5.6,4.8-6.9
		c0,0,0.8-0.4,1.6-0.7c0.9,0,1.8-0.1,1.8-0.1s6.6-0.3,9.1,3c2.7,3.5,1.3,13,7,13.2c0.6,0,1.3-0.1,2-0.2c12.1-1.3,17.5-6.4,17.8-11.8
		s4.7-6.7,8.1-6.7c3.4,0,9.4-3.7,9.8,8.1c0.3,6.7,4.7,7.1,8.1,7.1s8.4-0.7,8.4-5.4c0-4.7,1.3-8.4,11.1-4.4c9.8,4,10.4,1.7,11.8,8.4
		c0.5,2.5,2,3.7,3.9,4c0.2,0,0.4,0,0.4,0c2.8,0,2-5.1,3-8.1c0.8-2.3,4.9-3.1,6.8-3.4c0.7-0.3,1.7-0.3,3,0.1
		c6.1,1.7,12.5,3.4,12.5,11.4c0,8.1,11.1,10.1,14.8,7.4c1-0.7,2.5-2.3,4.3-4.5c0.3-0.6,0.5-1.1,0.5-1.1s5.8-12.4,3.8-20.5
		c-2-8.1-0.3-15.4,0.5-21C534.3,630.2,529.9,629.6,529.9,629.6"/>
	<path class="st2" d="M529.4,676.2c1.2-2.2,1.1-5,2.3-7.3c1.1-2.3-0.4-5,2.1-5.2c0.5,0,2.9,0.4,5.1,2.5c2.2,2.1,2,3.9,2.5,6
		c0.5,2.1,0.5,5.1-1.6,5.6c-0.7,0.1-1.6,0-1.9,0.6c-0.3,0.5,0,1.1,0.2,1.6c0.9,2,0.3,4.9-1.8,5.3c-1.5,0.2-3-1-4.4-0.5
		c-1.4,0.5-1.8,2.4-1.7,3.9c0.3,6.4,3.3,12.7,2,19c-0.3,1.6-1.6,3.5-3.1,3c-1.3-0.4-1.5-2.2-1.5-3.7c0-5.9-1.5-11.8-4.5-16.8
		c-0.7-1.1-1.8-2.4-3-1.9c-1.9,0.7-1.7,4.7-3.7,4.4c-1.3-0.2-1.4-2-1.7-3.3c-0.4-1.6-1.5-2.8-2.1-4.3c-0.6-1.5-0.4-3.6,1.1-4.2
		c1-0.4,2.1,0.2,3.2,0.5c2.5,0.8,5.5,0.5,7.8-0.8C524.5,680.6,527.7,679.3,529.4,676.2z"/>
	<path class="st2" d="M356,670.1c-1.4-1.1-2.8-2.6-4.5-2.2c0,0-2.3,0.2-1.6,4.3c0.2,1.3,1.2,2.7,2.5,2.8c0.8,0,1.7-0.2,2.1,0.5
		c0.3,0.5-0.1,1.1,0.1,1.7c0.2,0.7,0.9,1,1.5,1.3c1.8,1.2,1.9,3.8,1.8,6c-0.1,2.8-0.3,5.6-0.4,8.4c-0.1,1.4,0.1,3.2,1.4,3.7
		c1,0.3,2.1-0.4,2.6-1.4c0.5-1,0.5-2.1,0.5-3.1c0-2.1,0.2-4.3,0.6-6.4c0.1-0.9,0.3-1.8,1-2.4c1.7-1.6,4.8,0.2,6.6-1.2
		c0.6-0.4,0.9-1.1,1.2-1.8c1.1-2.3,2.1-4.6,3.2-6.8C368,674,360.9,674.2,356,670.1z"/>
	<path class="st3" d="M369.2,626.9c-3.8-0.3-2.5,1.9-7.7,5.4c-1,0.7-2.2,2.3-1.8,3.5c0.4,1.2,1.8,2.3,3.1,1.3c0.8-0.6-0.3-3.7,4-5.5
		c2.8-1.1,0.7,7.7,0.2,8.8c-0.8,1.8-0.6,4.3-0.7,6.3c0,0.7,0.5,3.9,2.9,5l3.7,0.5c-0.9-2.4-1.6-3.3-0.9-6.2c0.1-0.6,1.8-8.7,2.3-9.1
		s1.3-0.5,1.6,0.1c0.2,0.3,0.2,0.8,0.3,1.1c0.4,0.7,1.5,0.4,2.1-0.2c0.5-0.6,0.8-1.5,1.3-2.1c0.8-0.7,1.9-0.8,2.9-1.2
		c3.3-1.2,4.7-5.4,4.2-9c0-0.2-0.1-0.4-0.2-0.5c-0.4-0.5-1.1-0.1-1.5,0.3c-2.1,1.9-3.9,4.3-6.3,5.7s-6,1.6-7.8-0.6
		C369.8,629.3,369.2,626.9,369.2,626.9z"/>
	<path class="st3" d="M489.7,610.2c2.8,3.2,1.5,8.1,1.8,12.3c0.1,1.8,1.4,4,3,3.4c0.8-0.3,1.2-1.1,1.7-1.8c0.5-0.7,1.4-1.2,2.1-0.7
		c1.5,5.2,1,11-1.2,16c-0.6,1.2-1.3,2.5-1.5,3.8c-0.2,1.4,0.2,2.9,1.4,3.6c5.6-2.7,7.4-9.8,7.8-16c0.1-1,0.2-2.1,1.1-2.6
		c1-0.5,2.2,0.4,2.5,1.5c0.3,1.1,0.1,2.3,0.1,3.4c0,1.1,0.3,2.4,1.3,2.9c1.4,0.7,3.1-0.6,4.6-0.1c1.3,0.4,1.8,2,2.1,3.4
		c0.5,3.1,0.7,6.2,0.5,9.3c3.6-1.9,5.8-6.2,5.3-10.3c-0.4-3-2-6.1-0.9-8.9c0.3-0.8,0.9-1.5,1.2-2.3c1.5-3.2-0.2-6.8-1.9-9.9
		c-4.3,2.4-9.3,4.5-14.1,3.1c-6.6-2-10.5-10.2-17.4-10.8"/>
	<path class="st2" d="M408,678.1c0.6,0.3,1.3,0.2,1.9,0.5c1.2,0.6,1.1,2.4,0.9,3.8c-0.2,1.4-0.3,2.8-0.4,4.2c0,1.2,0.1,2.6,1,3.4
		c1.3,1,3.3,0.2,4.2-1.2c0.9-1.4,0.9-3.2,0.9-4.8c0.1-1.6,0.2-3.2,0.8-4.7c0.7-1.7,1.8-3.1,2.7-4.7c0.9-1.6,1.7-3.3,1.4-5.1
		c0-0.2-0.1-0.5-0.3-0.6c-0.2-0.1-0.4-0.1-0.6,0c-1.6,0.4-2.7,1.9-4.1,2.8c-2.1,1.4-4.5,2.2-6.9,2.4
		C405.4,674.5,406.8,677.6,408,678.1z"/>
	<path class="st2" d="M480.8,672.4c0.1,1.8,0.3,3.6,0.4,5.3c0,0.5,0.1,0.9,0.4,1.3c0.5,0.7,1.6,0.6,2.4,0.3c0.8-0.3,1.6-0.8,2.5-0.7
		c1.3,0.2,1.9,1.6,2.4,2.8c2.3,6.6,3.1,13.7,2.2,20.6c-0.1,1.1-0.2,2.5,0.7,3.1c1.2,0.8,2.7-0.5,3.3-1.8c1.5-3.5,0.6-7.5,0.3-11.2
		c0-0.6-0.1-1.3,0.2-1.9c0.3-0.7,1-1.1,1.4-1.7c1.6-1.8,1.3-4.5,0.6-6.8c-0.8-2.5-2.1-4.9-3.7-7c-0.5-0.7-1.2-1.4-2-1.6
		c-0.8-0.2-1.7,0-2.5,0.1c-2.9,0.5-3.9,0.5-6.8-0.2L480.8,672.4z"/>
	<path class="st2" d="M395.6,674c-3.6,1-1.4,18.9-3.8,33.9c-0.2,1.1,0.2,2.5,1.2,2.9c0.9,0.4,1.9-0.2,2.4-1c0.5-0.8,0.6-1.8,0.6-2.7
		c0.2-2.8,0.2-5.7,0.1-8.5c-0.1-2.1-0.2-4.5,1.1-6.2c0.7-1,1.7-1.7,2.4-2.6c1.6-2,1.6-4.8,2.1-7.3c0.6-2.8,2.1-5.4,4.1-7.4
		c-2.8-1.2-5-3.8-7.3-2.9L395.6,674z"/>
</g>
</svg>
