<?xml version="1.0" encoding="utf-8"?>
<!-- Generator: Adobe Illustrator 28.0.0, SVG Export Plug-In . SVG Version: 6.00 Build 0)  -->
<svg version="1.1" id="Face" xmlns="http://www.w3.org/2000/svg" xmlns:xlink="http://www.w3.org/1999/xlink" x="0px" y="0px"
	 viewBox="0 0 880 880" style="enable-background:new 0 0 880 880;" xml:space="preserve">
<style type="text/css">
	.st0{fill:#FFFFFF;stroke:#083330;stroke-width:7.4164;stroke-miterlimit:10;}
	.st1{fill:url(#SVGID_1_);}
	.st2{fill:#C5F9D0;}
	.st3{fill:#083330;}
	.st4{fill:none;stroke:#083330;stroke-width:3.7082;stroke-linecap:round;stroke-linejoin:round;stroke-miterlimit:10;}
	.st5{fill:none;stroke:#083330;stroke-width:2.7811;stroke-linecap:round;stroke-linejoin:round;stroke-miterlimit:10;}
</style>
<g>
	<path class="st0" d="M505.2,637.5c0,0-28.8,35.5-64.4,35.5s-64.4-35.5-64.4-35.5s28.8-35.5,64.4-35.5S505.2,637.5,505.2,637.5z"/>
	<radialGradient id="SVGID_1_" cx="440.8376" cy="637.3279" r="29.634" gradientUnits="userSpaceOnUse">
		<stop  offset="0.609" style="stop-color:#08D1D7"/>
		<stop  offset="0.6785" style="stop-color:#1FB5CB"/>
		<stop  offset="0.8271" style="stop-color:#586FAE"/>
		<stop  offset="0.9685" style="stop-color:#93278F"/>
	</radialGradient>
	<circle class="st1" cx="440.8" cy="637.3" r="29.6"/>
	<circle class="st2" cx="440.8" cy="637.3" r="15.4"/>
	<circle class="st3" cx="440.8" cy="637.3" r="9.1"/>
	<path class="st4" d="M339.8,676.6c2.1,3.8,5.7,6.7,9.8,8.5c4,1.8,8.4,2.5,12.8,2.7c4.2,0.2,8.5,0,12.5-1.3c4-1.3,7.7-3.9,9.8-7.5"
		/>
	<path class="st4" d="M345.8,683.5c-2.4,2.3-4.8,4.6-7.2,6.9"/>
	<path class="st4" d="M361.5,687.8c-0.7,3-1.2,6-1.6,9.1"/>
	<path class="st4" d="M375.7,687.2c2,2.1,3.8,4.3,5.3,6.8"/>
	<path class="st4" d="M499.9,679.8c3.5,4.4,9.2,6.3,14.8,7.2c4.7,0.7,9.6,0.9,14.2-0.4c4.6-1.3,8.9-4.2,11.1-8.5"/>
	<path class="st4" d="M506,684.8c-2.2,2.3-4.3,4.8-6.1,7.3"/>
	<path class="st4" d="M521.5,688.2c-0.1,3.7-0.3,7.4-0.4,11.1"/>
	<path class="st4" d="M535.3,684.4c2.9,2.6,5.6,5.5,8,8.5"/>
	<path class="st4" d="M398.6,700.7c8.6,4.1,18.6,4,28.1,3.8c14.5-0.3,29-0.5,43.4-0.8c3.7-0.1,8-0.4,10-3.5"/>
	<path class="st5" d="M372.9,637.4c-0.2-0.6-1.3-0.2-1.2,0.4s1.1,0.7,1.5,0.1c-0.2-0.2-0.4-0.4-0.5-0.6"/>
	<path class="st5" d="M509,637.4c0.4-0.1,0.9,0.2,1,0.6c-0.2,0.6-1.2,0.8-1.7,0.4"/>
</g>
</svg>
