<?xml version="1.0" encoding="utf-8"?>
<!-- Generator: Adobe Illustrator 28.0.0, SVG Export Plug-In . SVG Version: 6.00 Build 0)  -->
<svg version="1.1" id="Face" xmlns="http://www.w3.org/2000/svg" xmlns:xlink="http://www.w3.org/1999/xlink" x="0px" y="0px"
	 viewBox="0 0 880 880" style="enable-background:new 0 0 880 880;" xml:space="preserve">
<style type="text/css">
	.st0{fill:none;stroke:#083330;stroke-width:3.7082;stroke-linecap:round;stroke-linejoin:round;stroke-miterlimit:10;}
</style>
<g>
	<path class="st0" d="M398.6,578.9c-34.9-4.6,2.8,34.3,2.2,3.2c-22-22.2-29,27.4-2,10.1c13.2-17.4-24.7-21.4-20.4-1.5
		c3.3,17,32,5.8,21.8-8.2c-21.5-20.3-13.1,28.8,0,3.1c-4.3-24.3-36.8,12.3-13.1,16.1c55-24-43.9-50,0.4,5.2"/>
	<path class="st0" d="M506.8,626.7c11.3-6.6,22.6,8.4,12.3,16.8c-14.6,6.5-13.6-29.6,2.4-17.8c16.3,43.5-58.6-0.3-7.1-2.2
		c17.7,5.2,7.4,29.1-7.7,16c-11.3-17.6,25.5-23.3,20.3-0.8c-2.2,18.2-25.9-1.2-18.2-12.3c12-14.7,25,13.5,10.8,19.8"/>
	<path class="st0" d="M418.2,631.3c0.2-22.8-36.6-9.5-45.6,1c-11,17.6-29.3,67,1.7,72c33.7,0.4,26.3-28.8,41.3-30.1
		c3.4,20.6,4.1,19.4,9.6,0.4c13.6-10.4,5.7,15.5,14.6,14.9c16.6-20.3,9.4-5.8,18.5,7.7c38.5,49.2,98.4-34.4,47.8-38.7
		c-33.3-38.7-55.1-5.8-55-22.4c1.3-3.1,0.3-12.1-3.4-5.7c-23.6,25.6-6.9-19.9-17.1-5.5c1,8.6-7.5,10-13.2,5.4"/>
	<path class="st0" d="M422,630.7c-5.9-0.4-5.4-8.7-9.1-11.8c-13.4-4-33.4,3-43.6,12.5c-2.2,17.6-24,66.1-2.3,73
		c28.8,3.1,33.9-12.6,44.2-30.8c6.9,1.4,0.5,12.6,5.6,15.5c4.6,2.1,7.9-3.8,6.8-7.9c-2.7-6,2.1-12.4,8-7.4c5,3.6,1.6,17.9,9,17
		c4.7-20.7,13.2-11.9,13.4,4.4c10.8,15.9,49.4,25.5,61.3,7.5c-3.1-16.7,24.8-32.5-1.1-40.9c-46.2-41.6-66.7-7.4-62.2-29.7
		c-0.5-16.6-7.8,5.9-14.1,5.2c-7.4,0.3,2.8-22.5-7-16.2c-1.3,3.9-2.8,8.3-7.3,9.5"/>
	<path class="st0" d="M502.7,669.6c-1-0.2-1.9-0.9-2.8-1.4c-0.9-0.4-2.2-0.6-2.9,0.2c-0.4,0.4-0.6,1.1-0.6,1.7
		c-0.3,2.1,0,4.7,1.9,5.7c1.3,0.7,3.1,0.3,4.1-0.9s1.2-2.8,0.7-4.3c0.4,0,0.7,0,1.1,0.1"/>
	<path class="st0" d="M511.4,676.7c-0.8-0.1-1.6-0.1-2.5-0.1c-0.2,0-0.5,0-0.6,0.2c-0.6,0.4-0.1,1.3,0.5,1.8
		c0.6,0.5,1.4,0.9,2.1,0.8c0.8-0.2,1.2-1.4,0.5-1.8"/>
	<path class="st0" d="M498.9,684.8c-0.8,0.4-0.6,1.8,0.2,2c0.3-0.4,0.6-0.8,0.6-1.3C499.7,685.1,499.3,684.6,498.9,684.8"/>
	<path class="st0" d="M504.6,694.8c-0.6,0-1.3,0.1-1.8,0.5s-0.7,1.2-0.2,1.7c0.4,0.4,1.2,0.3,1.7-0.2c0.4-0.4,0.6-1.1,0.8-1.6"/>
	<path class="st0" d="M404.2,637.1c-0.7-1.1-2.4-1.5-3.6-0.8s-1.5,2.4-0.8,3.5c0.9,1.5,2.9,1.7,4.6,1.7c0.3,0,0.6,0,0.8-0.2
		c0.1-0.2,0.2-0.4,0.2-0.6c0-1.2-0.2-2.4-0.8-3.5"/>
	<path class="st0" d="M386.9,643.8c-1.2,0.1-2.5,0.1-3.6,0.8s-1.8,2-1.3,3.1c0.6,1.3,2.4,1.5,3.6,0.9c1.2-0.6,2-1.9,2.7-3.1
		c0.3-0.5,0.6-1,0.4-1.5c-0.2-0.5-1.1-0.7-1.2-0.1"/>
	<path class="st0" d="M393.8,676.8c-0.8-0.6-1.5-1.2-2.3-1.8c-0.2-0.1-0.4-0.3-0.6-0.3c-0.3,0-0.6,0.1-0.8,0.3
		c-0.8,0.5-1.6,1.1-1.9,2c-0.3,0.9,0,2,0.9,2.4c0.9,0.3,1.8-0.2,2.6-0.8c0.8-0.5,1.5-1.1,2.3-1.6"/>
	<path class="st0" d="M380.8,664.6c-0.7,0.1-0.9,1.2-0.3,1.5s1.4-0.4,1.2-1.1"/>
	<path class="st0" d="M396,656.5c-0.3-0.4-0.6-0.8-0.9-1.1c-0.6,0.4-0.7,1.5-0.1,1.9s1.6,0.2,1.9-0.5"/>
	<path class="st0" d="M478,671.5c-2.6,0.3-5.1,1.1-7.4,2.4c-1.1,0.6-2.3,1.7-1.8,2.8c0.4,1.2,2.1,1.2,3.3,1c1.3-0.2,2.5-0.4,3.8-0.6
		c0.5-0.1,1-0.2,1.5-0.4c1.2-0.7,1.4-2.4,1.5-3.8c0-0.5,0-1-0.2-1.5c-0.2-0.4-0.8-0.7-1.3-0.5"/>
</g>
</svg>
