<?xml version="1.0" encoding="utf-8"?>
<!-- Generator: Adobe Illustrator 28.0.0, SVG Export Plug-In . SVG Version: 6.00 Build 0)  -->
<svg version="1.1" id="Face" xmlns="http://www.w3.org/2000/svg" xmlns:xlink="http://www.w3.org/1999/xlink" x="0px" y="0px"
	 viewBox="0 0 880 880" style="enable-background:new 0 0 880 880;" xml:space="preserve">
<style type="text/css">
	.st0{fill:#FFFFFF;stroke:#083330;stroke-width:7.4164;stroke-miterlimit:10;}
	.st1{fill:#FF5956;stroke:#083330;stroke-width:7.4164;stroke-miterlimit:10;}
	.st2{fill:none;stroke:#083330;stroke-width:3.7082;stroke-linecap:round;stroke-linejoin:round;stroke-miterlimit:10;}
</style>
<g>
	<circle class="st0" cx="331.8" cy="631.4" r="9.9"/>
	<circle class="st0" cx="553" cy="635.4" r="9.9"/>
	<path class="st1" d="M438.6,658.1c-10.1,0-15.7-6.6-20.2,0c-4.5,6.6,2,18.7,20.7,19.2c18.7,0.5,23.4-7.1,22.7-12.1
		C460.3,654.1,450.3,658.1,438.6,658.1z"/>
	<path class="st2" d="M343,635c-2.5,10.2-7.6,19.8-14.6,27.6"/>
	<path class="st2" d="M340,639.4c-4.9,7.5-11.8,13.6-19.7,17.6"/>
	<path class="st2" d="M333.5,646.4c-5.5,2.3-9.6,2-15.9,0.7"/>
	<path class="st2" d="M541.7,633.9c-1,16.7,2,27.5,12,35.5"/>
	<path class="st2" d="M544.8,645.9c2.6,7.9,5.6,14.2,13.3,16.3"/>
	<path class="st2" d="M546.3,648.5c3,3.7,7.9,5.8,12.7,5.3"/>
	<path class="st2" d="M430,684.5c6.6,0.5,13.1,0.6,19.7,0.2c-6.8,2.3-13.9,3.6-21,3.8c5.7,1.3,11.6,1.9,17.5,2"/>
</g>
</svg>
