<?xml version="1.0" encoding="UTF-8"?><svg id="BGs" xmlns="http://www.w3.org/2000/svg" xmlns:xlink="http://www.w3.org/1999/xlink" viewBox="0 0 880 880"><defs><style>.cls-1{fill:url(#linear-gradient);}.cls-1,.cls-2,.cls-3,.cls-4,.cls-5,.cls-6,.cls-7,.cls-8,.cls-9,.cls-10,.cls-11,.cls-12,.cls-13,.cls-14,.cls-15,.cls-16,.cls-17,.cls-18,.cls-19{stroke-width:0px;}.cls-2{fill:#5e7a78;}.cls-3{fill:#52706e;}.cls-4{fill:#839997;}.cls-5{fill:#395c59;}.cls-6{fill:#1600fd;}.cls-7{fill:#083330;}.cls-8{fill:#214745;}.cls-9{fill:#ced6d6;}.cls-10{fill:#b5c2c1;}.cls-11{fill:#9cadac;}.cls-12{fill:#8af756;}.cls-13{fill:#6b8583;}.cls-14{fill:#ff5956;}.cls-15{fill:#fff;}.cls-16{fill:#ff3efb;}.cls-17{fill:#ffd45c;}.cls-18{fill:#e6ebea;}.cls-19{fill:#00dbdb;}</style><linearGradient id="linear-gradient" x1=".41" y1="775.7" x2="393.62" y2="775.7" gradientUnits="userSpaceOnUse"><stop offset="0" stop-color="#fff"/><stop offset="1" stop-color="#083330"/></linearGradient></defs><rect class="cls-15" x=".41" y=".95" width="125.56" height="698.53"/><rect class="cls-6" x=".41" y="698.8" width="125.56" height="50.81"/><rect class="cls-1" x=".41" y="749.47" width="393.21" height="52.44"/><rect class="cls-5" x=".41" y="801.78" width="146.64" height="78.93"/><rect class="cls-7" x="146.67" y="801.78" width="146.64" height="78.93"/><rect class="cls-2" x="292.94" y="801.78" width="146.64" height="78.93"/><rect class="cls-7" x="439.25" y="801.78" width="440.04" height="78.93"/><rect class="cls-15" x="396.06" y="749.47" width="43.78" height="52.44"/><rect class="cls-18" x="440.08" y="749.47" width="43.78" height="52.44"/><rect class="cls-9" x="484.09" y="749.47" width="43.78" height="52.44"/><rect class="cls-10" x="528.11" y="749.47" width="43.78" height="52.44"/><rect class="cls-11" x="572.12" y="749.47" width="43.78" height="52.44"/><rect class="cls-4" x="616.14" y="749.47" width="43.78" height="52.44"/><rect class="cls-13" x="660.15" y="749.47" width="43.78" height="52.44"/><rect class="cls-3" x="704.16" y="749.47" width="43.78" height="52.44"/><rect class="cls-5" x="748.18" y="749.47" width="43.78" height="52.44"/><rect class="cls-8" x="792.19" y="749.47" width="43.78" height="52.44"/><rect class="cls-7" x="836.33" y="749.47" width="43.78" height="52.44"/><rect class="cls-17" x="125.96" y=".95" width="125.56" height="698.53"/><rect class="cls-7" x="125.96" y="698.8" width="125.56" height="50.81"/><rect class="cls-19" x="251.52" y=".95" width="125.56" height="698.53"/><rect class="cls-16" x="251.52" y="698.8" width="125.56" height="50.81"/><rect class="cls-12" x="377.07" y=".95" width="125.56" height="698.53"/><rect class="cls-7" x="377.07" y="698.8" width="125.56" height="50.81"/><rect class="cls-16" x="502.63" y=".95" width="125.56" height="698.53"/><rect class="cls-19" x="502.63" y="698.8" width="125.56" height="50.81"/><rect class="cls-14" x="628.18" y=".95" width="125.56" height="698.53"/><rect class="cls-7" x="628.18" y="698.8" width="125.56" height="50.81"/><rect class="cls-6" x="753.74" y=".95" width="125.56" height="698.53"/><rect class="cls-15" x="753.74" y="698.8" width="125.56" height="50.81"/></svg>