<svg xmlns="http://www.w3.org/2000/svg" xmlns:xlink="http://www.w3.org/1999/xlink" id="BGs" viewBox="0 0 880 880"><defs><linearGradient id="linear-gradient" x1="633.96" x2="639.41" y1="741.62" y2="688.23" gradientTransform="rotate(5 635.04 734.17)" gradientUnits="userSpaceOnUse"><stop offset="0" stop-color="#8a562b"/><stop offset="1" stop-color="#b06e3d"/></linearGradient><linearGradient id="linear-gradient-2" x1="440.08" x2="440.08" y1="880.47" y2="637.67" gradientUnits="userSpaceOnUse"><stop offset=".2" stop-color="#ffd45c"/><stop offset=".75" stop-color="#d19d42"/></linearGradient><linearGradient id="linear-gradient-3" x1="134.53" x2="163.63" y1="722.44" y2="826.85" gradientUnits="userSpaceOnUse"><stop offset=".55" stop-color="#ffd45c"/><stop offset="1" stop-color="#ffd45c" stop-opacity="0"/></linearGradient><linearGradient xlink:href="#linear-gradient-3" id="linear-gradient-4" x1="680.69" x2="699.05" y1="710.45" y2="776.31" gradientTransform="rotate(23 572.97 815.82)"/><radialGradient id="radial-gradient" cx="427.68" cy="828" r="859.19" fx="427.68" fy="828" gradientTransform="matrix(1 0 0 .8 2.94 172.59)" gradientUnits="userSpaceOnUse"><stop offset="0" stop-color="#9ae1ca"/><stop offset=".74" stop-color="#1a1c35"/><stop offset="1" stop-color="#10000d"/></radialGradient><radialGradient id="radial-gradient-2" cx="428.63" cy="1216.03" r="1119.51" fx="428.63" fy="1216.03" gradientTransform="matrix(1 0 0 1.3 14.05 -352.37)" gradientUnits="userSpaceOnUse"><stop offset=".14" stop-color="#78e1ca"/><stop offset=".76" stop-color="#100034"/></radialGradient><style>.cls-7,.cls-8{stroke-width:0}.cls-7{fill:#d19d42}.cls-8{fill:#b06e3d}</style></defs><path d="M.02.05h880.12v880.01H.02z" style="fill:url(#radial-gradient);stroke-width:0"/><path d="m756.78 812.36-263.87-53.47s36.06-26.89 43.83-65.22c7.77-38.33 214.22-3.62 205.07 41.55-9.15 45.17 14.98 77.14 14.98 77.14Z" style="stroke-width:0;fill:url(#linear-gradient)"/><path d="M880.15 880.06v-77.77c-112.3-66.23-267.77-107.23-439.57-107.23S112.39 736.3.02 802.87v77.19h880.12Z" style="fill:url(#radial-gradient-2);stroke-width:0"/><path d="M880.15 880.06v-77.77c-112.3-66.23-267.77-107.23-439.57-107.23S112.39 736.3.02 802.87v77.19h880.12Z" style="fill:url(#linear-gradient-2);stroke-width:0"/><path d="M305.48 811.2 31.07 875.83s21.16-47.19 10.18-93.84c-10.99-46.65 200.31-105.2 213.26-50.22 12.95 54.98 50.98 79.44 50.98 79.44Z" style="fill:url(#linear-gradient-3);stroke-width:0"/><ellipse cx="147.78" cy="756.46" class="cls-8" rx="97.56" ry="30.38" transform="rotate(-13 147.78 756.52)"/><path d="M230.17 754.65c-18.94-3.77-48.9-2.11-81.51 5.57-32.6 7.68-60.16 19.57-75.43 31.39 18.94 3.77 48.9 2.11 81.51-5.57 32.6-7.68 60.16-19.57 75.43-31.39Z" class="cls-7"/><path d="m790.46 855.53-175.15-30.86s24.01-22.08 29.26-51.86 142.3-11.11 136.12 23.98c-6.18 35.09 9.77 58.74 9.77 58.74Z" style="fill:url(#linear-gradient-4);stroke-width:0"/><ellipse cx="712.67" cy="784.54" class="cls-8" rx="19.17" ry="61.55" transform="rotate(-80 712.63 784.53)"/><path d="M760.88 804c-10.04-6.9-27.82-13.4-48.63-17.07-20.81-3.67-39.74-3.64-51.54-.58 10.04 6.9 27.82 13.4 48.63 17.07 20.81 3.67 39.74 3.64 51.54.58Z" class="cls-7"/></svg>