<svg xmlns="http://www.w3.org/2000/svg" id="BGs" viewBox="0 0 880 880"><defs><style>.cls-1{fill:#4bdb6c}.cls-1,.cls-2,.cls-8{stroke-width:0}.cls-2{fill:#89512b}.cls-8{fill:#dcb46d}</style></defs><path d="M-.19.95h879.43v792.79H-.19z" style="fill:#266f4d;stroke-width:0"/><path d="M816.66 603.7c-3.64-13.79-12.69-31.09-26.56-27.73-3.89.94-7.16 3.5-10.16 6.15a118.4 118.4 0 0 0-25.03 31.04c-3.91-.1-7.75.36-11.48 1.29l-.92-122.96c-.1-13.69-.2-27.47 2.23-40.93 9.44-52.45 54.52-91.02 74.25-140.52a280.66 280.66 0 0 0-26.09-9.41c1.57-4.33 1.67-9.22 1.68-13.9.12-77.73-7.89-155.24-17.7-232.35-1.89-14.83-4.42-30.86-15.17-41.25-8.81-8.51-21.36-11.46-33.59-13.26H277.51l-3.32 2.96-173.83 155.66.02.02c-2.05-.04-4.1-.06-6.15-.07-20.13-.04-41.72 2.16-57.19 15.04-9.76 8.13-15.98 19.66-21.65 31.03A465.24 465.24 0 0 0-.4 239.5v148.41a63.3 63.3 0 0 0 32.84-36.99 40.1 40.1 0 0 0 39.5-.08 40.13 40.13 0 0 0 19.47-34.37c30.37 5.71 63.31-15.5 70.7-45.5 13.79 14.02 30.55 29.16 50.08 26.89 7.74-.9 14.93-4.56 22.63-5.79 10.92-1.75 22.28 1.47 33.09-.91.89-.2 1.76-.45 2.62-.72 3.08 33.75 2.78 68.27 2.35 102.3-.78 61.35-1.8 122.69-2.82 184.03-.24 14.26-.49 28.61-1.2 42.89l-.36.11c-8.09 2.83-13.71 10.03-18.87 16.88l-6.55-10.79c-14.37-23.36-59.98 31.94-82.17 57.35-6.5-18.32-35.04-23.24-47.3-8.15-7.03-32.74-44.66-55.3-76.85-46.07-.56-10.67-10.62-19.92-21.29-19.59-6.29.2-12.14 3.71-15.88 8.74v144.74c5.43 21.11 14.39 41.41 31.12 54.84 12.46 10 28.06 15.18 43.53 19.15 38.39 9.87 78.09 13.52 117.64 16.09 83.25 5.41 166.73 6.18 250.15 6.21 142.32.05 285.19-2.12 425.86-23.71 3.91-.6 8.01-1.35 11.93-2.48V574.95a144.72 144.72 0 0 0-63.18 28.76ZM667.1 486.11c-11.01 61.37-9.02 124.19-6.44 186.53-19.77-6.4-41.88-5.78-60.91 2.65 2.55-12.5 1.82-27.09-7.47-35.85-9.28-8.75-28.56-5.28-30 7.39-5.53-8.88-16.7-13.85-26.99-12.02s-19.07 10.35-21.19 20.59c-5.32-19.35-31.27-29.52-48.32-18.94.77-10.39.69-21.55-5.04-30.26-5.72-8.7-19.07-13.04-26.85-6.11 2.47-16.06-17.37-28.18-33.25-24.72-15.88 3.46-27.62 16.49-38.21 28.81-.52-5.88-3.48-10.71-7.79-14.28-2.68-44.39-1.88-89.49-.9-133.94.55-25.13 1.12-50.51-2.94-75.16-2.74-16.64-7.56-32.76-9.42-49.58a141.55 141.55 0 0 1 7-62.04c1.75-4.96 3.81-10.01 5.26-15.15 19.69 6.2 42.56 1.56 58.11-12.08 4.55 8.43 15.21 13.02 24.46 10.53 3.15-.85 6.15-2.42 9.41-2.56 4.36-.19 8.36 2.18 12.28 4.1a67.65 67.65 0 0 0 47.53 4.37c-2.13 9.63-4.24 19.8-1.29 29.21 2.94 9.42 12.89 17.41 22.34 14.56-2.71 9.88 1.16 21.22 9.34 27.39 8.18 6.17 20.15 6.77 28.9 1.45 2.99-1.82 5.83-4.32 9.32-4.57 4.36-.3 8.04 3 11.19 6.04 11.38 10.98 25.37 22.12 41.09 20.39a39.42 39.42 0 0 0 11.3-3.23c14.63 26.31 32.64 51.36 35.49 80.97 1.79 18.59-2.69 37.13-5.99 55.51Z" style="fill:#114d46;stroke-width:0"/><path d="M879.84-.14H-.4v290.71a73.75 73.75 0 0 0 7.89 10.55l16.01-23.55a39.8 39.8 0 0 0 18.44 23.68l9.88-29.53.54 5.51c7.91 82.55-5.71 165.48-8.61 248.36-2.1 60.04 1.42 120.36.72 180.37-3.08-5.25-9.23-9.39-15.47-8.67-11.64 1.35-19.63 12.31-24.48 22.97a117.2 117.2 0 0 0-4.93 12.79v147.07h313.78c5.78-10.88-1.79-43.58-4.43-60.05 5.52-20.94-6.15-45.04-26-53.7 9.27-10.57 1.05-28.67-11.92-34.1s-27.78-2.1-41.33 1.66c6.89-7.44.74-20.8-8.88-24.02-9.62-3.21-20.14.7-28.97 5.7 4.25-8.99.54-20.94-8.06-25.95-8.59-5.01-20.82-2.35-26.55 5.78.71-16.57.37-33.19-1.02-49.73-.28-3.35-.67-6.87-2.63-9.6-3.39-4.7-10.57-5.29-15.72-2.64s-8.59 7.73-11.2 12.9a77.3 77.3 0 0 0-3.21 7.28c-4.24-85.54-7.23-170.98 4.8-255.56 2.22-15.6 5.09-31.53 13.09-45.1 11.86-20.1 33.46-32.57 47.12-51.49 16.47-22.81 19.32-51.32 17.65-80.06a102.98 102.98 0 0 0 42.77-1.46 44.2 44.2 0 0 0-7.95-22.04 243.6 243.6 0 0 0 60.02-15.8 59.7 59.7 0 0 0-22.17-16.78 344 344 0 0 0 88.87 5.47 79.6 79.6 0 0 1-30.03-20.63 90.2 90.2 0 0 0 32.57-8.82l-14.97-25.13c13.8-.9 27.75.57 41.07 4.33-1.89-14.06-2.67-30.99 8.64-39.57 7.47-5.67 18.65-6.02 24.36-13.46l-12.43-16.51A301.36 301.36 0 0 0 447 23.02c10.26 6.4 22.75 9.32 34.72 7.48a72.77 72.77 0 0 0-27.17 21.11 42.88 42.88 0 0 0 31.07-.68 80.66 80.66 0 0 0-9.7 39.26 30.23 30.23 0 0 0 21.3-7.49 54.98 54.98 0 0 0-8.12 35.9 114.62 114.62 0 0 0 68.47-32.18 56.83 56.83 0 0 0 7.82 27.18l15.9-12.67a94.01 94.01 0 0 1-2.71 63.24 71.71 71.71 0 0 0 51.47-18.05 86.74 86.74 0 0 0 3.83 28.04l13.6-10.94c2.47 8.3 6.94 16 12.94 22.25a86.73 86.73 0 0 0 10.01-15.66 303.23 303.23 0 0 0 62.38 60.87c8.78 6.36 18.33 12.76 22.8 22.63 5.92 13.06 1.34 28.15-1.43 42.22-7.8 39.66-.22 80.48 4.56 120.62 11.15 93.53 6.97 187.8-1.81 281.79-8.86-4.4-20.39-3.67-26.82 3.79 2.7-8.5 5.43-17.42 3.88-26.2s-8.89-17.24-17.8-16.8c-5.07.25-9.55 3.2-13.67 6.17a277.2 277.2 0 0 0-38.49 33.53c-5.04-12.8-25.12-12.42-34.52-2.38-9.41 10.04-11.01 24.88-12.13 38.59l-1.6 3.08c-10.57 17.66-36.79 107.97-26.34 142.37h290.39V-.14ZM171.95 254.04c-5.41 14.5-17.7 27.88-33.16 28.66-13.14.67-25.36-8.06-32.39-19.18a56.4 56.4 0 0 1-1.8-3.09l15.58-27.29 4.21 15.32a303.5 303.5 0 0 0 43.59-36.82 60.42 60.42 0 0 0 9.15 19.4c-1 7.85-2.41 15.6-5.17 23ZM704.19 125c2.13-8.17 3.67-16.5 4.56-24.89l27.11 21.4 9.86-30.99c4.06 3.62 8.23 7.3 12.67 10.5l.93 70.68c-21.61-11.3-39.15-28.09-55.13-46.69Z" style="fill:#0d3032;stroke-width:0"/><path d="M841.9 575.18c-2.94 39.01-37.58 68.2-37.58 68.2s-29.87-34.05-26.93-73.06c2.94-39.01 37.58-68.2 37.58-68.2s29.87 34.05 26.93 73.06ZM775.59 618.28c7.29 22.36-5.29 46.51-5.29 46.51s-24.4-12.1-31.69-34.46c-7.29-22.36 5.29-46.51 5.29-46.51s24.4 12.1 31.69 34.46Z" class="cls-1"/><path d="M805.25 643.04c-10.77 13.51-19.04 29.71-25.5 46.66-2.96-16.58-9.43-25.64-9.43-25.64s-3.27 9.26-4.36 9.26c4.64 15.61 5.03 35.45 4.98 43.62-11.58 42.25-14.3 82.88-18 93.17 0 0 21.48-3.16 23.22-13.92 11.51-91.97 34.76-133.48 34.76-133.48l-5.66-19.68ZM92.61 810.51H784.6v70.23H92.61z" class="cls-2"/><path d="M784.44 811.1c0-65.61-154.84-118.79-345.84-118.79S92.76 745.49 92.76 811.1c0 25.86 24.06 49.78 64.9 69.28h561.88c40.84-19.5 64.9-43.43 64.9-69.28Z" style="fill:#b06e3d;stroke-width:0"/><path d="M764 808.83c0-58.84-145.68-106.55-325.39-106.55s-325.39 47.7-325.39 106.55c0 27.54 31.92 52.64 84.3 71.56H679.7c52.38-18.91 84.3-44.01 84.3-71.56Z" style="fill:#d19d42;stroke-width:0"/><path d="M713.65 806.24c0-44.4-123.14-80.4-275.05-80.4s-275.05 35.99-275.05 80.4c0 33.11 68.5 61.55 166.33 73.87h217.44c97.83-12.32 166.33-40.75 166.33-73.87Zm-274.97 70.57c-142.92 0-258.79-32.29-258.79-72.11s115.86-72.11 258.79-72.11 258.79 32.29 258.79 72.11-115.86 72.11-258.79 72.11Z" class="cls-8"/><path d="M150.58 806.55c0-48.03 128.99-86.96 288.11-86.96s288.11 38.93 288.11 86.96c0 31.52-55.57 59.13-138.76 74.38h53.75c63.19-17.76 103.02-43.67 103.02-72.52 0-53.55-137.1-96.95-306.22-96.95s-306.22 43.41-306.22 96.95c0 28.86 39.83 54.76 103.02 72.52h53.93c-83.19-15.25-138.76-42.86-138.76-74.38Z" class="cls-8"/></svg>