<svg xmlns="http://www.w3.org/2000/svg" id="BGs" viewBox="0 0 880 880"><defs><style>.cls-2{stroke-width:0;fill:#d2f9f4}</style></defs><path d="M1.5.95h876.16v876.16H1.5z" style="stroke-width:0;fill:#f9d2f2"/><path d="M289.81 8.91A2334.9 2334.9 0 0 1 330.64.95H1.5v44.56c97.65 3.63 191.14-16.84 288.31-36.59ZM880.93.95H650.58c76.4 11.49 153.21 26.38 230.35 32.4V.95ZM474.75 24.1c-55.14 3.99-108.93 17.85-161.76 33.48-54.41 16.1-108.39 34.61-164.25 45.22-50.96 9.68-97.58 8.36-147.25-.14v51.63c8.06 2.37 16.13 4.69 24.22 6.95 57.61 16.09 107.5 24.63 166.15 8.84 50.26-13.54 97.38-36.6 145.14-56.83 50.57-21.42 102.88-40.73 157.9-46.19 47.49-4.71 95.82 5.32 141.25 18.58 81.47 23.79 159.68 59.91 244.77 64.28V88.93c-86.71-7.01-171.65-33.74-256.62-50.55-48.89-9.67-99.6-17.9-149.56-14.29Z" class="cls-2"/><path d="M503.86 102.8c-53.62 6.33-103.03 29.02-150.12 54.3-43.62 23.41-86.29 50.59-133.51 66.33-57.16 19.06-105.14 4.7-160.57-13.64A2411.01 2411.01 0 0 1 1.5 189.6v42.88c28.91 12.22 57.78 24.4 86.84 35.57 49.97 19.21 94.89 38.64 147.2 17.56 44.77-18.04 83.13-50 123.02-76.46 42.29-28.04 88.17-53.63 139.36-59.85 47.05-5.72 95.63 4.38 138.8 23.05 36.62 15.84 70.16 37.8 106.4 54.43 43.5 19.96 89.92 29.92 137.81 27.69v-56.84c-88.2-.24-160.4-44.26-241.57-74.15-42.87-15.78-89.69-26.1-135.49-20.7Z" class="cls-2"/><path d="M615.85 212.42c-43.09-16.88-92.11-25.96-138.24-18.69-48.66 7.67-92.02 33.9-132.06 61.2-38.97 26.56-76.87 57.99-121.07 75.57-51.85 20.62-95.99 2.39-145.7-16.88-25.98-10.07-51.67-21.02-77.29-32.1v64.12a1223.93 1223.93 0 0 0 41.5 15.69c52.23 18.59 96.01 30.86 149.39 10.74 45.89-17.3 86.34-46.61 127.6-72.52 38.52-24.19 79.23-48.3 124.38-57.33 46.13-9.23 96.01-.15 139.51 16.23 86.93 32.74 160.54 94.65 256.58 100.91 13.85.9 27.32 0 40.46-2.25v-54.08c-1.48.07-2.97.14-4.47.19-99.79 2.88-172.43-56.24-260.61-90.79Z" class="cls-2"/><path d="M812.93 404.34c-96.04-9.03-172.45-78.4-260.59-110.37-43.26-15.69-92.03-23.69-137.51-13.68-43.95 9.67-84.32 31.96-123.24 53.77-43.59 24.43-86.85 50.98-134.29 67.4-53.81 18.61-98.66 12.65-152.09-3.6L1.5 396.7v49.31c36.29 3.47 71.56.95 109.38-9.73 51.16-14.45 99.32-37.69 147.33-60.12 40.86-19.09 82.33-39.24 126.5-49.45 46.08-10.66 94.76-4.22 139.08 10.95 89.48 30.62 166.75 103.66 261.43 118.39 33.42 5.2 65.34-.95 95.72-12.63v-46.63c-21.79 6.56-44.42 9.77-68 7.55Z" class="cls-2"/><path d="M785.72 498.53c-48.51-9.34-94.8-38.16-137.82-61.19-43.01-23.02-86.47-46.34-133.28-60.77-46.98-14.48-96.74-18.86-144.9-7.61-44.89 10.48-87.91 28.59-130.75 45.26-79.01 30.73-155.76 56.86-237.48 61.93v36.33c78.52-6.94 154.69-23.97 232.2-46.46 45.08-13.08 89.89-27.31 135.47-38.62 50.68-12.58 103.83-10.28 154.46 1.55 49.57 11.58 96.52 31.59 142.76 52.49 49.05 22.18 99.95 50.45 153.03 61.51 21.06 4.39 41.59 3.84 61.52-.05v-54.99c-30.31 11.4-62.17 16.97-95.2 10.61Z" class="cls-2"/><path d="M546.28 473.28c-52.62-7.79-107.49-7.7-159.13 5.59a2264.1 2264.1 0 0 1-139.05 31.29c-82.41 15.77-163.92 22.99-246.61 27.52v28c94.9-8.96 191.99 3.23 287.13-1.66 102.38-5.26 199.48-39.74 302.54-37.16 99.45 2.48 192.99 34.21 289.76 52.79v-12.18a177.16 177.16 0 0 1-32.11-3.72c-103.32-21.71-197.3-74.88-302.53-90.46Z" class="cls-2"/><path d="M640.9 574.92c-52 5.28-102.89 15.77-153.72 27.52-50.67 11.72-102.59 13.52-154.3 9.43-98.07-7.77-198.12-38.24-296.68-20.65a463.28 463.28 0 0 0-34.7 7.67v56.67c26.63-10.37 53.47-19.44 80.75-25.87 110.39-26.02 211.94 24.7 318.01 47.1 57.59 12.16 116.33 14.91 174.2 2.9 48.49-10.06 96-25.45 143.54-39.17 33.76-9.75 67.79-18.57 102.88-21.81 20.13-1.86 40.12-1.9 60.05-.89v-27.69c-79.82-12.28-158.18-23.53-240.03-15.21Z" class="cls-2"/><path d="M781.4 701.26c-103.77 46.49-212.17 60.76-323.3 32.9-120.64-30.25-230.52-92.19-358.1-61.2-33.45 8.12-66.16 19.35-98.51 32.12v40.54c34.37-10.5 69.13-19.68 104.55-26.53 64.02-12.37 127.36-9.82 190.47 6.19 56.57 14.35 110.97 35.99 167.19 51.56 107.62 29.81 221.11 29.19 325.24-13.33 30.67-12.52 60.44-27.45 91.97-37.77v-61.45c-4.62.78-9.24 1.72-13.86 2.85-30.05 7.33-57.6 21.55-85.66 34.13Z" class="cls-2"/><path d="M443.39 820.05c-53.32-18.36-104.9-41.66-159.2-57.17-61.67-17.62-123.72-20.4-187-10.41-32.21 5.09-64.07 11.83-95.7 19.67v31.75c26.46-4.96 53.03-9.02 79.71-11.92 56.59-6.16 111.28-2.25 165.37 16.35 49.22 16.93 94.61 42.74 141.34 65.27a823.4 823.4 0 0 0 14.41 6.79H754.7c31.89-13.58 63.47-27.9 95.81-40.35 9.73-3.75 19.92-7.62 30.42-11.35v-53.13c-41.8 15-82.57 34.98-123.17 50.42-102.91 39.16-211.65 29.45-314.37-5.92Z" class="cls-2"/><path d="M60.45 830.33a825.68 825.68 0 0 0-58.96 6.12v43.93h267.68c-19.93-11.62-40.35-22.31-61.93-30.69-47.52-18.45-96.32-22.73-146.79-19.36ZM880.93 880.38v-11.36a656.47 656.47 0 0 0-33.01 11.36h33.01Z" class="cls-2"/></svg>