<?xml version="1.0" encoding="UTF-8"?><svg id="BGs" xmlns="http://www.w3.org/2000/svg" viewBox="0 0 880 880"><defs><style>.cls-1{fill:none;}.cls-1,.cls-2,.cls-3,.cls-4,.cls-5,.cls-6,.cls-7,.cls-8,.cls-9,.cls-10{stroke-width:0px;}.cls-2{fill:#4bdb6c;}.cls-3{fill:#47ba7b;}.cls-4{fill:#359673;}.cls-5{fill:#083330;}.cls-6{fill:#b06e3d;}.cls-7{fill:#8e726c;}.cls-8{fill:#8af756;}.cls-9{fill:#995b45;}.cls-10{fill:#87594b;}</style></defs><rect class="cls-4" x="28.74" y="492.43" width="826.03" height="370.52"/><path class="cls-3" d="m807.1,284.88c-22.05-96.61-99.36-190.05-190.98-182.58-87.65,7.14-572.61,218-572.23,289.96.31,59.86,75.77,200.33,87.91,187.05,3.75,16.89,21.66,28.31,38.95,27.83,17.29-.49,33.19-10.99,43.62-24.79-6.64,19.31,6.38,42.93,26.25,47.63s42.09-10.58,44.81-30.82c3.53,18.92,30.48,26.19,46.12,14.98,15.64-11.21,19.56-33.83,13.91-52.23,14.83,1.44,30.01-8.46,34.66-22.61.39,15.52,10.57,30.36,24.91,36.32,14.34,5.96,32.04,2.7,43.31-7.97-3.48,19.12,5.01,40.86,22.43,49.49s42.23-.15,47.46-18.87c.45,15.07,13.53,28.71,28.57,29.79,15.04,1.08,29.93-10.54,32.54-25.39,23.11,21.21,64.4,17.34,83.16-7.81,23.48,5.92,32.07,35.43,76.2,15.82,6.69-2.97,88.27-238.66,68.38-325.79Z"/><path class="cls-10" d="m117.69,880.38c-12.05-71.37-33.44-135.33-8.55-211.02,15.07-30.38,23.58-50.8,34.62-82.51,42.81-82.03,114.94-102.34,183.35-158.35,39.37-29.48,74.54-134.69,18.61-152.2-19.36,14.31-26.47,41.29-41.44,60.06-52.3,62.71-131.92,96.78-197.05,144.74-29.81,18.73-18.44-52.44-18.83-67.41-24.23-4.22-49.18-4.33-73.45-.33-9.28.51-15.22,7.22-14.52,16.54-.18,4.68-.37,9.36-.55,14.05v436.44h117.82Z"/><path class="cls-2" d="m44.23,470.2c5.05-10.38,3.97-21.92,2.82-32.98,14.69,4.79,32.71,2.14,44.63-6.56s17.17-23.04,13-35.5c16.27,13.44,47.14,7.21,60.42-8.56,12.6-14.95,12.44-34.68,6.62-52.13,4.59,9.32,20.64,13.25,32.82,9.64,13.37-3.95,22.63-13.87,30.33-23.65-2.12,6.35,8.89,11.14,16.16,8.28s10.67-9.71,12.78-16.05c4.15-12.47,5.84-25.46,5.01-38.32,1.78,11.54,3.72,23.47,11.1,33.37s21.76,17.26,35.68,14.52c.46,12.31,3.95,25.41,15.03,33.65,11.09,8.24,31.51,8.66,39.74-1.76,7.12,9.66,6.82,23.62,18.53,29.6,11.47,5.85,27.7-.83,33.98-10.75,6.28-9.92,5.43-21.66,4.42-32.72,13.58,5.35,28.26,8.88,43.27,10.44,6.1.63,12.78.83,17.93-1.98,10.31-5.63,7.65-18.31,3.77-27.82,10.52,3.37,22.37,6,33.08,2.8,10.71-3.2,18.25-14.6,11.81-22.16,14.56,4.23,31.52,8.29,44.85,1.66,10.55-5.25,15.74-15.95,26.46-20.97,7.88-3.69,17.39-3.68,26.41-4.15,9.02-.47,18.81-1.86,24.93-7.35,6.11-5.49,5.18-16.2-3.45-18.29,8.49,2.29,16.88-2.56,21.02-9.27,5.61,5.03,15.55,6.74,21.79,1.98-7.24,8.77-7.77,22.23.69,30.09,8.45,7.86,25.66,6.74,31-3.07,3.47,10.58,15.06,18.59,27.38,18.93,12.32.34,24.43-7.02,28.63-17.39,2.61-6.45-.94-179.88-6.41-210.65-.49-2.77-568.67-23.73-780.61-20.88v439.28c3.54,2.86,7.74,4.95,12.77,5.74,13.34,2.1,26.54-6.63,31.6-17.01Z"/><path class="cls-7" d="m718.31,735.03c-22.3-14.65-27.71-39.8-28.47-66.97-9.1-40.16-10.43-79.18-6.47-118.09-10.1-12.4-13.81-30.12-8.47-45.29-14.52,1.62-32.35,1.62-40.73-9.58-13.75,21.3-18.65,58.95-25.45,83.29-49.91-41.77-58.8-97.67-58.58-147.62-9.17,3.66-20.53,3.14-28.92-2.35-14.94-9.79-20.38-29.87-17.63-47.52-5.27,4.79-12.59,6.28-19.55,5.13-17.34,143.23,157.95,302,78.3,454.79l9.69-5.59c62.94,5.27,142.57-30.45,146.29-100.19Z"/><path class="cls-1" d="m-.14,721.63v135.91c13.31-6.16,35.36-11.55,66.72-14.21,27.62-2.34-33.69-55.27-66.72-121.7Z"/><path class="cls-6" d="m880.11,880.38V25.83c-244.55-7.99-97.8,27.68-109.25,258.46-2.01,40.52,13.52,143.4-10.9,207.05-13.79,39.01-34.8,81.68-41.41,122.05-4.9,29.93-1.27,62.21-6.72,92.03,2.03,65.04-61.69,87.66-119.74,88.87-140.57-9.26-276.47-2.72-303.87,2.71-100.6,37.55-145.51-57.68-219.31-94.79-21.83-7.16-51.84-37.94-69.05-67.42v86.85c33.04,66.43,94.34,119.35,66.72,121.7-31.36,2.66-53.41,8.05-66.72,14.21v22.85h880.25Z"/><path class="cls-9" d="m58.71,846.6c13.56-5.93,31.79-19.79,34.86-35.73,3-16-7-30-18-40-28.03-23.05-55.27-47.26-75.7-75.78v43.74c5.15,11,11.33,21.41,18.53,30.94,13.89,18.39,50.67,59.94,40.32,76.83Z"/><path class="cls-9" d="m880.11,574.2c-9.83,61.59-18.44,123.68-57.36,178.31-4,4-36,43-47,57-26,33-68,35-106,39-141,14-278,0-420,18-37.49,4.81-74.76,8.69-111.68,13.87h742.04v-306.19Z"/><path class="cls-5" d="m785.21,533.83c-7.53-.68-15.26,4.42-20.71,11.25-5.45,6.83-9.03,15.24-12.52,23.49-7.26,17.17-14.62,34.69-17.16,53.09-3.68,26.65,3.66,53.78,19.33,71.43,9.44,10.64,24.16,17.89,36.99,10.26,9.51-5.66,14.98-17.62,19.64-28.75,5.06-12.09,10.03-24.23,14.9-36.41,4.08-10.2,8.19-21.37,6.16-31.68-2.11-10.71-10.42-17.93-12.94-28.47-1.68-7.02-.64-14.93-2.38-21.92-2.18-8.74-8.52-15.02-15.71-18.48-7.19-3.46-15.22-4.47-23.15-5.45"/><path class="cls-9" d="m732.4,710.51s19.42,29.12,51.2,20.76c31.78-8.37,37.34-20.56,42.81-39.46s18.45-37.88,18.45-37.88c0,0-9.39,94.9-48.8,96.66s-63.66-40.07-63.66-40.07Z"/><path class="cls-8" d="m-.14,1.77v86.57c4.19-2.46,8.06-5.45,11.48-8.91,3.45,19.87,7.47,45.75,36.21,36.39,12.55-4.4,21.54-15.27,29.86-25.66-2.53,46.52,66.89,22.78,87.76,4.29-.1,57.2,44.84,57.64,87.09,35.21,3.64,16.18,21.87,27.47,37.98,23.54s27.09-22.35,22.87-38.39c12.31,8.71,30.28,8.38,42.27-.77,2.67,8.66,10.61,15.46,19.58,16.77-24.02,9.23-43.89,39.91-32.97,65.07,9.18,15.64,32.69,10.83,49.49,3.99-13.91,82.63,45.44,44.48,73.55,3.84,5.78,38.42,53.85,15.95,64.18-10.13,17.58,9.88,39.11,15.51,57.96,8.35s31.85-30.7,22.5-48.57c45.88,28.71,64.16-33.83,105.69-26.66-6.96,25.68,31.9,38.06,41.22,13.25-.17,18.87,25.3,32.15,40.67,21.21-4.31,24.73,29.24,57.68,43.23,27.22,9.74,10.49,25.34,22.17,39.61,18.85V1.77H-.14Z"/></svg>