<?xml version="1.0" encoding="UTF-8"?><svg id="BGs" xmlns="http://www.w3.org/2000/svg" viewBox="0 0 880 880"><defs><style>.cls-1{fill:#ffd45c;}.cls-1,.cls-2{stroke-width:0px;}.cls-2{fill:#00dbdb;}</style></defs><rect class="cls-1" x=".42" y=".95" width="879.42" height="878.66"/><path class="cls-2" d="m491.91.95h-86.14c-18.06,6.82-36.43,12.81-55.23,17.55-66.34,16.73-132.32,13.29-196.95-8.36-8.36-2.8-16.59-5.89-24.73-9.18H54.15c35.21,18.06,69.78,37.35,107.54,49.95,117.79,39.32,225.78.6,330.21-49.95Z"/><path class="cls-2" d="m194.26,130.46c134.76,43,258.68-26.1,372.14-91.29,23.19-13.32,46.95-26.49,71.15-38.22h-66.99c-3.38,1.81-6.76,3.62-10.13,5.43-118.94,64.14-245.9,132.45-384.35,86.52C126.77,76.54,83.82,47.43,37.24,25.21,24.58,19.16,11.96,14.15-.68,10.1v28.56c17.76,4.89,35.42,11.71,53.11,20.63,47.3,23.85,90.92,54.92,141.83,71.17Z"/><path class="cls-2" d="m228.75,202.43c127.69,40.28,241.41-27.62,343.83-95.62,89.8-59.62,197.77-121.35,303.55-63.38,1.24.68,2.47,1.37,3.7,2.06V10.39c-7.58-3.68-15.16-6.82-22.74-9.44h-135.93c-52.64,15.29-103.55,44.66-150.75,73.82-107.21,66.22-225.93,135.13-356.45,94.28-55.71-17.44-102.14-53.13-153.59-79.35-20.32-10.36-40.61-17.89-61.07-22.87v24.44c23.56,5.38,46.87,14.04,70.18,26.35,53.26,28.13,101.11,66.47,159.25,84.81Z"/><path class="cls-2" d="m571.35,141.51c-97.02,70.04-204.7,135.57-329.22,96-60.91-19.36-110.48-60.63-165.86-90.86-25.53-13.93-51.07-23.59-76.96-29.42v24.69c26.94,6.25,53.52,16.55,80.05,31.39,57.16,31.98,108.14,75.81,171.43,95.94,121.58,38.69,223.79-23.98,315.73-95.83,79.59-62.2,179.31-121.92,279.82-68.77,11.68,6.17,22.75,13.26,33.5,20.84v-39.21c-6.04-3.91-12.21-7.63-18.55-11.09-102.28-55.79-206.02,5.73-289.93,66.3Z"/><path class="cls-2" d="m557.79,207.07c-38.63,32.86-77.16,66.74-124.47,86.73-56.65,23.94-122.77,28.01-181.34,8.81-61.91-20.31-111.91-63.43-167.26-96.07-28.27-16.68-56.61-28.32-85.4-35.41v32.92c26.31,7.44,52.28,18.54,78.23,33.56,56.66,32.8,108.37,75.7,171.68,95.63,57.47,18.09,121.57,15.2,176.58-9.79,44.94-20.41,80.9-54.35,117.46-86.54,75.63-66.59,169.7-111.35,269.22-65.95,23.87,10.89,45.8,25.11,67.36,39.95v-42.78c-16.25-11.91-33.01-23.03-51.16-31.96-99.5-48.94-195.15,6.46-270.89,70.9Z"/><path class="cls-2" d="m536.2,263.83c-36.89,31.03-72.2,64.97-115.79,86.72-55.08,27.48-118.7,31.24-177.53,13.84-66.1-19.54-120.67-63.15-179.98-96.35-21.09-11.81-42.23-21.24-63.59-28.38v31.85c15.65,6.05,31.2,13.29,46.71,21.75,61.12,33.34,117.35,77.22,185.09,96.97,59.03,17.21,120.98,13.61,176.54-12.94,46.66-22.3,85.09-57.2,125.63-88.53,81.87-63.27,180.98-93.98,279.94-49.57,23.13,10.38,44.97,23.16,66.61,36.31v-27.15c-24.07-15.31-48.36-30.22-74.57-41.6-97.38-42.26-192.3-7.49-269.07,57.08Z"/><path class="cls-2" d="m535.28,314.03c-99.09,67.95-191.47,140.11-319.32,103.08-66.3-19.21-122.23-60.94-181.94-93.8-11.57-6.37-23.13-12.11-34.7-17.25v31.86c7.35,3.63,14.7,7.48,22.04,11.57,59.89,33.3,116.63,74.46,183.63,92.76,130.77,35.72,230.86-42.26,336.02-106.14,92.29-56.06,201.46-84.7,302.98-35.4,12.2,5.92,24.09,12.4,35.85,19.12v-20.02c-17.94-10.57-36.09-20.73-55.07-29.34-99.77-45.29-203.04-15.72-289.49,43.56Z"/><path class="cls-2" d="m553.14,358.02c-115.12,60.68-226.96,147.46-364.84,109.91-67.78-18.46-125.24-59.71-185.92-93.27-1.02-.56-2.04-1.11-3.06-1.67v32.92c55.61,31.64,109.43,67.99,171.69,85.5,143.33,40.31,265.9-51.62,389-109.4,100.83-47.33,217.1-72.11,319.83-19.17v-21.78c-5.52-3.03-11.09-5.99-16.72-8.85-100.9-51.14-214.1-24.74-309.98,25.8Z"/><path class="cls-2" d="m563.59,411.17c-126.42,53.56-255.87,146.09-399.94,109.19-59.54-15.25-111.72-47.82-164.34-78.39v33.56c48.04,27.82,96.26,55.95,150.32,70.33,149.47,39.76,284.71-55.88,418.43-106.52,101.94-38.61,211.31-54.22,311.77-12.95v-34.28c-101.74-45.21-214.78-23.94-316.24,19.05Z"/><path class="cls-2" d="m565.12,475.43c-135.32,46.39-268.09,138.46-417.23,102.67-53.29-12.79-101.25-38.95-148.57-65.79v31.69c46.62,26.25,93.93,51.65,146.29,64.45,146.47,35.81,275.1-51.81,407.9-97.81,74.78-25.9,153.17-38.58,232.01-26.54,33.48,5.11,63.86,15.46,94.33,28.1v-38.5c-102.15-40.34-208.86-34.56-314.72,1.73Z"/><path class="cls-2" d="m555.33,538.26c-130.18,48.41-254.83,138.57-400.44,104.1-56.02-13.26-106.07-41.69-155.57-70.18v22.49c52.98,31.01,106.12,63.38,166.34,77.95,142.89,34.58,261.08-56.69,386.06-108.72,65.87-27.42,135.79-42.67,207.38-36.3,43.17,3.84,81.82,18.19,120.74,35.81v-24.36c-34.39-14.83-68.54-26.6-106.5-31.19-74.5-9.02-148.18,4.43-218.01,30.39Z"/><path class="cls-2" d="m741.31,548.28c-68.37-3.45-133.59,14.06-194.79,43.49-118.82,57.13-229.12,149.79-369.57,112.37-64.55-17.2-120.72-54.44-177.63-87.95v18.22c3.89,2.24,7.77,4.51,11.65,6.83,59.07,35.24,117.13,75.33,184.48,93.27,136.06,36.24,235.94-55.33,346.59-116.51,56.26-31.11,117.04-50.87,181.93-50.01,51.73.68,99.68,21.46,145.69,43.37,3.39,1.62,6.79,3.24,10.18,4.88v-25.9c-.43-.21-.87-.41-1.3-.62-43.9-20.74-88.15-38.97-137.23-41.44Z"/><path class="cls-2" d="m705.67,592.07c-61.16,1.83-116.63,23.16-167.57,56.01-101.44,65.42-190.59,154.32-321.92,119.26-68.62-18.32-127.43-59.94-187.23-96.39-9.85-6-19.71-11.77-29.63-17.27v18.29c15.01,8,29.87,16.63,44.68,25.81,60.18,37.31,119.25,80.2,188.5,99.27,64.04,17.64,124.7,7.37,181.38-26.39,44.23-26.35,81.06-62.8,122.44-93.06,45.88-33.56,96.8-56.04,154.15-59.57,55.96-3.44,111.98,21.35,161.7,44.5,9.19,4.28,18.42,8.73,27.68,13.28v-29.67c-6.52-3.2-13.02-6.35-19.5-9.43-48.06-22.84-100.42-46.27-154.66-44.65Z"/><path class="cls-2" d="m676.7,651.99c-53.98,4.97-100.65,28-142.06,62-37.09,30.46-69.66,66.45-110.83,91.76-55.69,34.24-116.88,41.29-179.46,22.46-67.68-20.37-125.29-62.74-184.29-100.01-20.06-12.67-40.24-24.36-60.74-34.79v22.08c24.81,12.15,49.1,26.18,73.22,41.66,59.26,38.02,117.48,82.03,186.05,102,59.38,17.29,119.61,12.86,173.16-19.13,40.48-24.18,70.82-60.62,106.19-91.06,37.56-32.32,80.36-53.4,130.11-58.63,57.63-6.06,118.14,16.03,170.63,37.67,13.74,5.66,27.45,11.71,41.16,17.95v-35.24c-11.17-5.35-22.3-10.56-33.41-15.53-51.74-23.12-112.01-48.5-169.72-43.19Z"/><path class="cls-2" d="m540.07,795.38c-32.98,28.24-61.3,61.95-100,82.93-1.31.71-2.63,1.39-3.96,2.07h58.56c16.39-13.39,32.02-27.85,48.7-41.03,86.69-68.49,200.8-56.28,300.17-23.7,12.21,4,24.3,8.24,36.29,12.61v-39.96c-13.43-5.5-26.91-10.83-40.49-15.82-101.56-37.34-211.74-52.07-299.28,22.9Z"/><path class="cls-2" d="m176.32,880.38h57.09c-54.63-22.98-103.21-59.48-152.59-91.54-26.78-17.39-53.79-32.94-81.5-46.1v29.56c28.48,13.36,56.21,29.23,83.69,47.07,30.87,20.04,61.41,41.85,93.31,61.01Z"/><path class="cls-2" d="m545.66,870.49c-4.49,3.23-8.92,6.54-13.32,9.89h44.43c87.89-41.98,186.18-34.06,279.1-1.2,1.12.4,2.24.8,3.36,1.2h20.61v-20.56c-10.84-4.01-21.77-7.9-32.82-11.61-100.66-33.76-211.61-42.23-301.36,22.28Z"/><path class="cls-2" d="m77.84,851.71c-25.86-15.97-51.91-30.32-78.53-42.61v35.14c23.33,10.41,46.3,22.28,69.15,35.34.47.27.95.54,1.42.81h53.36c-15.18-9.61-30.26-19.32-45.41-28.68Z"/></svg>