<svg xmlns="http://www.w3.org/2000/svg" id="BGs" viewBox="0 0 880 880"><defs><style>.cls-2{stroke-width:0;fill:#00dbdb}</style></defs><path d="M.42-.14h879.42v879.75H.42z" style="stroke-width:0;fill:#fbcdb8"/><path d="M491.91-.14h-86.14a507.87 507.87 0 0 1-55.23 17.57C284.2 34.18 218.22 30.74 153.59 9.05a440.7 440.7 0 0 1-24.73-9.19H54.15c35.21 18.08 69.78 37.39 107.54 50.01 117.79 39.36 225.78.6 330.21-50.01Z" class="cls-2"/><path d="M194.26 129.53c134.76 43.06 258.68-26.14 372.14-91.4 23.19-13.34 46.95-26.53 71.15-38.27h-66.99L560.43 5.3c-118.94 64.22-245.9 132.62-384.35 86.63C126.77 75.55 83.82 46.4 37.24 24.15A300.6 300.6 0 0 0-.68 9.02v28.6a286.2 286.2 0 0 1 53.11 20.66c47.3 23.88 90.92 54.99 141.83 71.26Z" class="cls-2"/><path d="M228.75 201.59c127.69 40.33 241.41-27.65 343.83-95.74 89.8-59.69 197.77-121.5 303.55-63.45l3.7 2.06V9.31a206.66 206.66 0 0 0-22.74-9.45H721.16c-52.64 15.31-103.55 44.71-150.75 73.91-107.21 66.3-225.93 135.3-356.45 94.4-55.71-17.46-102.14-53.19-153.59-79.45A279.6 279.6 0 0 0-.7 65.82v24.47c23.56 5.38 46.87 14.05 70.18 26.38 53.26 28.17 101.11 66.55 159.25 84.92Z" class="cls-2"/><path d="M571.35 140.6c-97.02 70.13-204.7 135.74-329.22 96.12-60.91-19.38-110.48-60.71-165.86-90.97C50.74 131.8 25.2 122.13-.69 116.29v24.72c26.94 6.25 53.52 16.58 80.05 31.43 57.16 32.02 108.14 75.9 171.43 96.06 121.58 38.73 223.79-24.01 315.73-95.95 79.59-62.28 179.31-122.07 279.82-68.86a306.31 306.31 0 0 1 33.5 20.87V85.31a288.46 288.46 0 0 0-18.55-11.1c-102.28-55.85-206.02 5.73-289.93 66.39Z" class="cls-2"/><path d="M557.79 206.24c-38.63 32.9-77.16 66.82-124.47 86.84-56.65 23.97-122.77 28.05-181.34 8.82-61.91-20.33-111.91-63.51-167.26-96.19-28.27-16.7-56.61-28.36-85.4-35.45v32.96c26.31 7.45 52.28 18.56 78.23 33.6 56.66 32.84 108.37 75.8 171.68 95.75 57.47 18.11 121.57 15.22 176.58-9.8 44.94-20.44 80.9-54.41 117.46-86.64 75.63-66.67 169.7-111.49 269.22-66.03 23.87 10.9 45.8 25.15 67.36 40v-42.83c-16.25-11.92-33.01-23.06-51.16-32-99.5-49-195.15 6.47-270.89 70.99Z" class="cls-2"/><path d="M536.2 263.07c-36.89 31.06-72.2 65.05-115.79 86.82-55.08 27.51-118.7 31.28-177.53 13.86-66.1-19.57-120.67-63.22-179.98-96.47A369.6 369.6 0 0 0-.69 238.87v31.89a395.02 395.02 0 0 1 46.71 21.78c61.12 33.38 117.35 77.31 185.09 97.09 59.03 17.23 120.98 13.63 176.54-12.96 46.66-22.33 85.09-57.27 125.63-88.64 81.87-63.34 180.98-94.09 279.94-49.63 23.13 10.39 44.97 23.19 66.61 36.35v-27.19c-24.07-15.33-48.36-30.26-74.57-41.65-97.38-42.31-192.3-7.5-269.07 57.15Z" class="cls-2"/><path d="M535.28 313.33c-99.09 68.04-191.47 140.29-319.32 103.21-66.3-19.23-122.23-61.02-181.94-93.92a454.93 454.93 0 0 0-34.7-17.27v31.9c7.35 3.63 14.7 7.49 22.04 11.58 59.89 33.34 116.63 74.55 183.63 92.87 130.77 35.76 230.86-42.31 336.02-106.27 92.29-56.13 201.46-84.8 302.98-35.44a603.19 603.19 0 0 1 35.85 19.14v-20.04c-17.94-10.59-36.09-20.76-55.07-29.38-99.77-45.34-203.04-15.74-289.49 43.62Z" class="cls-2"/><path d="M553.14 357.38C438.02 418.14 326.18 505.02 188.3 467.42c-67.78-18.48-125.24-59.79-185.92-93.39-1.02-.57-2.04-1.11-3.06-1.67v32.96c55.61 31.68 109.43 68.07 171.69 85.6 143.33 40.36 265.9-51.68 389-109.53 100.83-47.39 217.1-72.2 319.83-19.19v-21.8c-5.52-3.04-11.09-6-16.72-8.86-100.9-51.21-214.1-24.77-309.98 25.83Z" class="cls-2"/><path d="M563.59 410.59c-126.42 53.63-255.87 146.27-399.94 109.32-59.54-15.27-111.72-47.88-164.34-78.48v33.6c48.04 27.85 96.26 56.02 150.32 70.42 149.47 39.81 284.71-55.95 418.43-106.66C670 400.13 779.37 384.5 879.83 425.83v-34.32c-101.74-45.27-214.78-23.97-316.24 19.08Z" class="cls-2"/><path d="M565.12 474.92c-135.32 46.45-268.09 138.63-417.23 102.8-53.29-12.8-101.25-39-148.57-65.88v31.73c46.62 26.29 93.93 51.72 146.29 64.53 146.47 35.86 275.1-51.87 407.9-97.93 74.78-25.93 153.17-38.63 232.01-26.58 33.48 5.12 63.86 15.48 94.33 28.13v-38.55c-102.15-40.39-208.86-34.61-314.72 1.73Z" class="cls-2"/><path d="M555.33 537.83C425.15 586.3 300.5 676.57 154.89 642.06 98.87 628.78 48.82 600.32-.68 571.79v22.52c52.98 31.05 106.12 63.46 166.34 78.05 142.89 34.62 261.08-56.76 386.06-108.86 65.87-27.46 135.79-42.72 207.38-36.34 43.17 3.85 81.82 18.21 120.74 35.86v-24.39c-34.39-14.85-68.54-26.63-106.5-31.23-74.5-9.04-148.18 4.43-218.01 30.43Z" class="cls-2"/><path d="M741.31 547.87c-68.37-3.45-133.59 14.08-194.79 43.55-118.82 57.2-229.12 149.97-369.57 112.51C112.4 686.71 56.23 649.42-.68 615.87v18.24a928.9 928.9 0 0 1 11.65 6.83c59.07 35.29 117.13 75.42 184.48 93.39 136.06 36.29 235.94-55.4 346.59-116.65 56.26-31.15 117.04-50.93 181.93-50.07 51.73.69 99.68 21.48 145.69 43.42 3.39 1.62 6.79 3.25 10.18 4.89v-25.93l-1.3-.62c-43.9-20.77-88.15-39.02-137.23-41.5Z" class="cls-2"/><path d="M705.67 591.71c-61.16 1.83-116.63 23.19-167.57 56.08-101.44 65.5-190.59 154.51-321.92 119.41-68.62-18.34-127.43-60.02-187.23-96.51A839.86 839.86 0 0 0-.68 653.4v18.31A791.9 791.9 0 0 1 44 697.55c60.18 37.36 119.25 80.29 188.5 99.39 64.04 17.66 124.7 7.38 181.38-26.42 44.23-26.38 81.06-62.87 122.44-93.18 45.88-33.6 96.8-56.11 154.15-59.64 55.96-3.45 111.98 21.37 161.7 44.56 9.19 4.29 18.42 8.74 27.68 13.3v-29.71c-6.52-3.2-13.02-6.36-19.5-9.44-48.06-22.87-100.42-46.33-154.66-44.7Z" class="cls-2"/><path d="M676.7 651.71c-53.98 4.97-100.65 28.03-142.06 62.08-37.09 30.5-69.66 66.53-110.83 91.88-55.69 34.29-116.88 41.34-179.46 22.49-67.68-20.39-125.29-62.82-184.29-100.14A756.33 756.33 0 0 0-.68 693.18v22.11c24.81 12.17 49.1 26.21 73.22 41.71 59.26 38.07 117.48 82.13 186.05 102.12 59.38 17.31 119.61 12.87 173.16-19.15 40.48-24.21 70.82-60.7 106.19-91.17 37.56-32.36 80.36-53.46 130.11-58.7 57.63-6.07 118.14 16.05 170.63 37.72a1216.85 1216.85 0 0 1 41.16 17.98v-35.29a1379.05 1379.05 0 0 0-33.41-15.55c-51.74-23.15-112.01-48.56-169.72-43.24Z" class="cls-2"/><path d="M540.07 795.27c-32.98 28.28-61.3 62.02-100 83.03-1.31.71-2.63 1.4-3.96 2.07h58.56c16.39-13.4 32.02-27.88 48.7-41.08 86.69-68.58 200.8-56.35 300.17-23.73a1193.6 1193.6 0 0 1 36.29 12.62v-40.01a1189.9 1189.9 0 0 0-40.49-15.84c-101.56-37.38-211.74-52.13-299.28 22.93ZM176.32 880.38h57.09c-54.63-23-103.21-59.56-152.59-91.66-26.78-17.41-53.79-32.98-81.5-46.15v29.59c28.48 13.37 56.21 29.27 83.69 47.13 30.87 20.07 61.41 41.9 93.31 61.08Z" class="cls-2"/><path d="M545.66 870.48a581.02 581.02 0 0 0-13.32 9.9h44.43c87.89-42.03 186.18-34.1 279.1-1.2l3.36 1.2h20.61V859.8a1115.28 1115.28 0 0 0-32.82-11.62c-100.66-33.8-211.61-42.29-301.36 22.31ZM77.84 851.67C51.98 835.68 25.93 821.32-.69 809v35.18a777.95 777.95 0 0 1 69.15 35.38l1.42.82h53.36c-15.18-9.62-30.26-19.35-45.41-28.71Z" class="cls-2"/></svg>