<?xml version="1.0" encoding="utf-8"?>
<!-- Generator: Adobe Illustrator 28.0.0, SVG Export Plug-In . SVG Version: 6.00 Build 0)  -->
<svg version="1.1" id="Cap" xmlns="http://www.w3.org/2000/svg" xmlns:xlink="http://www.w3.org/1999/xlink" x="0px" y="0px"
	 viewBox="0 0 880 880" style="enable-background:new 0 0 880 880;" xml:space="preserve">
<style type="text/css">
	.st0{fill:url(#SVGID_1_);stroke:#083330;stroke-width:11.1246;stroke-linecap:round;stroke-miterlimit:10;}
	.st1{fill:none;stroke:#083330;stroke-width:11.1246;stroke-linecap:round;stroke-miterlimit:10;}
	.st2{fill:#FBCDB8;}
</style>
<g id="Butt">
	<linearGradient id="SVGID_1_" gradientUnits="userSpaceOnUse" x1="442.9027" y1="575.9254" x2="437.8727" y2="250.6486">
		<stop  offset="2.793811e-03" style="stop-color:#FFCB98"/>
		<stop  offset="1" style="stop-color:#FFE5AB"/>
	</linearGradient>
	<path class="st0" d="M442.7,309.3C545.7-63.4,78.2,69.5,77.6,351.8C79.7,642.7,612.5,594.4,753.2,465
		c169.9-179.3-153.9-502-317.4-339"/>
	<path class="st1" d="M456.1,266.8c12.7,8.6,21.4,23.2,22.9,38.7"/>
	<path class="st2" d="M252.6,165.5c8.1,14.6-42.8,40.6-49.4,25.3C195.1,176.2,245.9,150.1,252.6,165.5z"/>
	<path class="st2" d="M341.7,155c2.6,10.5-33.5,17.8-35,7.1C304.1,151.6,340.2,144.3,341.7,155z"/>
	<path class="st2" d="M301.7,129.9c3.2,9.6-29.7,19.3-32,9.5C266.5,129.8,299.4,120.1,301.7,129.9z"/>
	<path class="st2" d="M526.2,122.1c-2.8,16.6,53.7,23.6,54.9,6.8C583.8,112.4,527.3,105.4,526.2,122.1z"/>
	<path class="st2" d="M576.8,164.3c-3.7,10.2,30.4,22.4,33.7,12C614.2,166.1,580.1,154,576.8,164.3z"/>
	<path class="st2" d="M610,141.4c-2.6,6.5,20,14.5,21.9,7.8C634.5,142.6,611.9,134.7,610,141.4z"/>
	<path class="st2" d="M637,173.9c-2.6,4.7,13.7,13,15.8,8.1C655.4,177.3,639.1,169,637,173.9z"/>
	<path class="st1" d="M318.6,74.6c-0.9,8-1.1,16-0.6,24"/>
	<path class="st1" d="M283.7,68.2c4.1,14,16.5,26.6,13.9,42"/>
	<path class="st1" d="M239.8,94.6c5.9,8.9,11.1,18.3,15.6,28"/>
	<path class="st1" d="M614,71.5c0,12.7-0.9,25.3-2.7,37.9"/>
	<path class="st1" d="M636.4,120.1c5.1-9.8,10.2-19.5,15.3-29.3"/>
	<path class="st1" d="M668.4,134.6c7.7-6,14.9-12.6,21.5-19.8"/>
</g>
</svg>
