<?xml version="1.0" encoding="utf-8"?>
<!-- Generator: Adobe Illustrator 28.0.0, SVG Export Plug-In . SVG Version: 6.00 Build 0)  -->
<svg version="1.1" id="Layer_1" xmlns="http://www.w3.org/2000/svg" xmlns:xlink="http://www.w3.org/1999/xlink" x="0px" y="0px"
	 viewBox="0 0 880 880" style="enable-background:new 0 0 880 880;" xml:space="preserve">
<style type="text/css">
	.st0{fill:#FFFFEA;}
	.st1{fill:#083330;}
	.st2{fill:#FFD45C;}
	.st3{fill:url(#SVGID_1_);}
</style>
<g>
	<g>
		<path class="st0" d="M344.8,415.4c-3.6-11.2-17.4-33-61.2-45.5c-43.4-12.3-74.6-26.6-95.5-42.4c-32-24.2-76.8-57.6-81.6-114
			c-5.8-67.8,142.3-132,327-143.2s335.3,35,341.9,102.7c2.7,27.9-17.7,58.9-27.6,74.4c-23.6,36.7-109.4,94.8-148.5,112.1
			c-50.8,22.6-64.9,56.7-64.9,56.7"/>
		<g>
			<path class="st1" d="M350.1,413.9c-5.4-16.4-19.5-28.8-34.2-36.9c-13.9-7.7-29.1-11.7-44.2-16.4c-14.4-4.5-28.6-9.6-42.4-15.8
				c-11.4-5.1-22.4-11-32.7-18c-8.7-6-17.1-12.6-25.2-19.2c-18.9-15.4-36.6-32.9-47.9-54.9c-6.1-11.8-10-24.9-11.3-38.1
				c-0.3-3.4-0.3-6.8,0-10.2c0-0.3,0.2-1.1,0,0.1c0.1-0.5,0.1-0.9,0.2-1.4c0.1-0.8,0.3-1.5,0.5-2.3c0.3-1.5,0.8-3,1.3-4.5
				c1.2-3.7,1.8-5,3.7-8.6c1.8-3.2,3.8-6.3,6-9.3c0.4-0.5,1.9-2.4,3-3.7c1.4-1.6,2.8-3.2,4.3-4.7c3-3.1,6.1-5.9,9.3-8.7
				c15.5-13.1,34-23.4,52.5-32c23.7-11,48.5-19.5,73.6-26.5c62.1-17.3,126.7-25.8,191.1-28c60.7-2.1,122.3,1.3,181.6,14.7
				c22.8,5.2,45.6,11.8,66.9,21.3c16.5,7.4,32.5,16.4,45.2,28.7c5.5,5.4,9.1,9.7,12.8,16.3c2,3.5,2.5,4.9,3.6,8.3
				c0.5,1.5,0.9,3,1.2,4.5c0.2,0.8,0.3,1.5,0.5,2.3c0.1,0.3,0.1,0.6,0.2,0.9c0.2,1.1-0.1-0.9,0.1,0.6c2.7,26.2-13.1,51.2-26.8,72.3
				c-10.9,16.9-28,31.2-43.8,44c-19.5,15.8-40.1,30.2-61.4,43.5c-9.1,5.7-18.3,11.1-27.8,16.1c-10.4,5.5-21.4,9.9-31.5,15.9
				c-17.7,10.5-34,24.6-45,42.2c-1.7,2.7-3.2,5.5-4.4,8.5c-1.2,2.8,1.2,6.1,3.9,6.8c3.2,0.9,5.7-1.1,6.8-3.9c-1.2,3,0.3-0.5,0.7-1.2
				c1.1-2.1,2.4-4.2,3.7-6.2c4.6-7,10.1-13.2,16.7-19.4c9.8-9.1,21-16.5,32.8-22.5c9.4-4.8,19-8.9,28.2-14
				c21.5-11.9,42-25.4,61.8-39.9c19.6-14.3,39.1-29.6,55.6-47.5c6.6-7.1,12.1-14.8,17.3-22.9c7.3-11.6,14-23.5,18.8-36.4
				c7.3-19.7,8.5-40.8-2.5-59.2c-8.5-14.2-21.7-25.2-35.6-33.9C719,103.2,698.8,95,678.5,88.5c-55.2-17.7-114.2-24-171.9-25.2
				C439,61.8,370.9,67.8,304.8,82c-28.2,6-56.1,13.6-83.2,23.6c-22.7,8.3-45.1,18.2-65.6,31c-26,16.2-57.5,42.2-55.2,76.3
				c1.9,27.3,14.2,52.4,31.7,73c15.4,18.1,34.3,32.8,53.3,46.9c21.9,16.3,47.9,27,73.6,35.6c25,8.4,52.8,13.5,71.2,34.2
				c1.5,1.6,2,2.3,3,3.7c1,1.3,1.9,2.7,2.7,4.1c0.7,1.2,1.3,2.5,2,3.8c0.7,1.4-0.2-0.7,0.4,0.9c0.2,0.6,0.4,1.2,0.6,1.8
				C341.6,423.7,352.4,420.8,350.1,413.9L350.1,413.9z"/>
		</g>
	</g>
	<g>
		<path class="st2" d="M113.6,225.2c-0.7-3.8-1.3-7.7-1.7-11.7c-5.7-66.3,139.9-129.2,321.6-140.1s329.7,34.2,336.2,100.5
			c0.6,5.9,0.1,12-1.1,18c0,0-28,90.7-323.7,99.6C149.3,300.3,113.6,225.2,113.6,225.2z"/>
	</g>
	
		<radialGradient id="SVGID_1_" cx="443.6789" cy="243.6666" r="135.8091" fx="422.2986" fy="243.8231" gradientTransform="matrix(-3.353817e-02 -0.9994 2.5711 -8.627805e-02 -167.9288 708.119)" gradientUnits="userSpaceOnUse">
		<stop  offset="0.2908" style="stop-color:#FF5956"/>
		<stop  offset="0.3758" style="stop-color:#FF6460;stop-opacity:0.8802"/>
		<stop  offset="0.5241" style="stop-color:#FF8179;stop-opacity:0.671"/>
		<stop  offset="0.7182" style="stop-color:#FFAFA3;stop-opacity:0.3973"/>
		<stop  offset="0.9483" style="stop-color:#FFF0DC;stop-opacity:7.295263e-02"/>
		<stop  offset="1" style="stop-color:#FFFFEA;stop-opacity:0"/>
	</radialGradient>
	<path class="st3" d="M724.5,165.9c1.2,34.5-121,68.9-282.7,74.5c-161.7,5.5-289-13.7-290.1-48.2s133.3-81.4,295-86.9
		C608.4,99.7,723.3,131.4,724.5,165.9z"/>
	<g>
		<g>
			<path class="st1" d="M157.2,176.5c-12.3,4-13.6,20.3-5.8,29.2c3.2,3.6,7.5,6.2,11.7,8.3c12.5,6.3,26.3,9.9,39.8,13
				c41.6,9.5,84.6,13.7,127.1,16.5c47.2,3.1,94.7,4.1,141.9,1.6c25.6-1.4,51.1-4.3,76.5-8.1c29.5-4.4,58.8-10.1,87.7-17.7
				c21.8-5.7,43.6-12.4,64.1-21.9c6.7-3.1,13.4-6.6,19.3-11.1c5.1-3.8,10.2-8.5,11.7-15c1.5-6.5-0.8-13.3-7.5-15.6
				c-6.8-2.3-9.7,8.4-3,10.7c-0.2-0.1-0.3-0.3-0.5-0.4c0.5,0.8,0.2,0,0.3,0.9c0-0.3,0-0.4,0,0.5c0,1.3,0.1-0.1-0.2,1.2
				c-0.3,1.2-0.8,1.9-1.5,3c-0.8,1.3,0.3-0.2-0.2,0.2c-0.4,0.4-0.8,0.9-1.2,1.4c-0.9,0.9-1.8,1.8-2.7,2.6c-0.5,0.4-1,0.8-1.4,1.2
				c1.2-1-0.6,0.4-0.9,0.7c-1.3,1-2.7,1.9-4.1,2.7c-3.1,1.9-6.4,3.7-9.6,5.3c-17.7,8.8-37.3,15-56.7,20.4
				c-26.6,7.4-53.6,13.1-80.8,17.6c-25.5,4.2-51.1,7.6-76.8,9.4c-44.6,3.1-89.4,2.6-134,0.3c-42.1-2.2-84.1-5.8-125.4-13.4
				c-15-2.8-30.1-6-44.6-11c-1.4-0.5-2.9-1-4.3-1.6c-0.6-0.2-1.2-0.5-1.8-0.7c-0.4-0.1-0.7-0.3-1.1-0.4c0.8,0.3,0.6,0.3-0.1,0
				c-2.3-1-4.6-2.1-6.8-3.3c-0.9-0.5-1.7-1-2.6-1.6c-0.5-0.3-0.9-0.6-1.4-0.9c-0.1-0.1-0.3-0.2-0.4-0.3c-1.2-0.8,0.7,0.7,0.1,0.1
				c-2.3-2.2-3.5-3.1-4.1-6.3c-0.3-1.4-0.2-2.9,0.3-4.5c0.4-1.2,1.1-1.9,2.1-2.2C166.9,185,164,174.2,157.2,176.5L157.2,176.5z"/>
		</g>
	</g>
</g>
</svg>
