<?xml version="1.0" encoding="utf-8"?>
<!-- Generator: Adobe Illustrator 28.0.0, SVG Export Plug-In . SVG Version: 6.00 Build 0)  -->
<svg version="1.1" id="Cap" xmlns="http://www.w3.org/2000/svg" xmlns:xlink="http://www.w3.org/1999/xlink" x="0px" y="0px"
	 viewBox="0 0 880 880" style="enable-background:new 0 0 880 880;" xml:space="preserve">
<style type="text/css">
	.st0{fill:#083330;}
	.st1{fill:#4BDB6C;stroke:#083330;stroke-width:11.1246;stroke-linecap:round;stroke-miterlimit:10;}
	.st2{fill:none;stroke:#083330;stroke-width:11.1246;stroke-linecap:round;stroke-miterlimit:10;}
</style>
<g>
	<path class="st0" d="M654.8,258.8h-394c0,0-56,163.7-55.6,167.5l-5.9,92.6c10.5,2.8,21.6-4.5,26.9-14c5.3-9.5,6.3-20.7,7.6-31.5
		c0.6-4.7,3-40.1,1.8-49.4c3.3,1.5,12.6,0.5,18,9.7c4.5,7.7,1.6,17.5,1.9,26.4c0.3,8.9,7,19.6,15.6,17.2c9-2.5,8.8-15,8.1-24.3
		c-0.2-2.5-0.1-5.4,1.6-7.2c3.7-3.8,10.4,1,11.1,6.3c0.6,5.3-1.9,10.4-2,15.7c-0.2,5.3,4.3,11.6,9.3,9.7c1.2-0.4,2.1-1.3,3.3-1.7
		c6.3-2.5,10.8,6.6,10.3,13.4c-0.5,6.7-1.8,15.2,4,18.7c4.7,2.8,11.2-0.4,13.7-5.3c2.5-4.9,2-10.7,1.3-16.2
		c-1.1-8.5-2.8-17.1-3.7-25.6l0.4,0.5c1,16.8,26.2,27.9,27.3,0.7c2.8-72.9,161.4-30,164.6-29.1c5.9,1.5,8.7,8.3,9.1,14.4
		c0.3,6.1-1,12.2,0.3,18.2s6.7,11.7,12.6,10.4c7.7-1.7,8.8-12.8,15.3-17.3c3.3-2.3,7.6-2.6,11.4-3.8c9.5-2.8,25-10.1,29.5-19.1
		c5.6,14.5-0.1,47,12.2,49.5c15.2,3,16.7-15.2,22.7-36.4c3.4-11.8,42.6,5.1,43.4,24.3c4.8,1.7,9,4.8,11.5,9.1c2,3.4,3,7.5,5.9,10.1
		c2.9,2.6,8.9,2.2,9.4-1.7c5.4,10.5,1.6,27.1,12.5,31.7c6.6,2.8,14.6-2,17.7-8.5c3.1-6.5,2.7-14.1,2.2-21.3
		c-0.5-7.2-0.9-14.8,2.2-21.3c0.7-1.6,1.7-3.1,3.3-3.9c0.6-0.3,1.2-0.5,1.8-0.5C739.1,449.8,654.8,258.8,654.8,258.8z"/>
	<path class="st1" d="M585,387.5c10.4-2.9,16.9,11.8,14.8,22.4c-2.1,10.6-7.8,26.9-3.3,36.6c3.9,8.4,15.6,11.9,23.4,7.2
		c7.9-4.8,10.1-16.8,4.5-24.1c1.9-4.5,9.2-3.7,11.9,0.4c2.7,4.1,2.1,9.4,1.5,14.2c-2.3,17.1-4.7,34.2-7,51.3
		c-1.1,7.9-2.1,16.3,3.3,23.1c3,3.7,8,5.4,12.5,3.6c11.5-4.7,4.3-25.5,14.8-31.9c6.5,9,1.4,21.4-1.3,32.3
		c-2.7,11.1,1.9,27.3,13.6,25.4c2.6-0.4,5-1.7,6.9-3.5c14.8-13.9,11.1-37,5.3-55.9c-5.9-19.2-13.1-40.7-2.1-58.3
		c1.5-2.4,4.1-4.1,6.9-4.1c8-0.2,9,10.6,8.3,18.2c-0.7,7.4,2.9,13.9,10.1,15.7c11.3,2.8,27-12.2,24.6-2.6s-8.6,20-3.4,28.4
		c5.2,8.4,18.9,7.1,25.7,0s8.7-17.6,10.2-27.4c4.8-30.9,9.6-63,0.6-92.9c-15.8-52.5-71.2-89.5-75.1-144.2
		c-1.7-23.4,5.6-50.5-10.2-67.8c-7.8-8.5-19.4-12.2-30.5-15.5c-72.5-21.6-133.9-41.5-209.5-44.9l-15.2-1c-57.7-3-113.1,4-148.2,37.7
		c-9,8.7-16.9,18.5-26,27.1c-24.2,23.2-57.7,36.9-75.8,65.1c-20.6,32.2-15.4,74.3-26.6,110.9c-9.4,30.7-30.4,57.2-38.1,88.4
		c-2.9,11.8-3.5,25.2,3.1,35.4c6.6,10.2,22.5,14.8,31.3,6.4c-1.1,13.2,0,11.7-1.1,25c-0.6,7.1-0.4,15.8,5.8,19.3
		c9.2,5.3,19-7.1,19.9-17.7c0.9-10.6-2.5-18.9,4.5-15.5c9.7,7.2,3.4,23.8,0.9,36c-2.5,12.3,1.5,29.6,14.3,29.6
		c2.5,0,4.9-0.8,7.1-2.1c30.1-18-9.9-89.1,23.4-90c6.6,3.3,0.8,14.4-1.1,21.5c-1.9,7.1,3.7,16.4,11,15.9c2.1-0.1,4-1.1,5.4-2.6
		c10.5-11.2,9.3-28,6.7-42.7c-2.4-13.9-5.3-29,0.9-41.6c7.4-14.9,28.2-16.2,37.5-2.4l2.7,4c0.4,4.7-0.2,9.6-0.4,14.4
		c-0.2,7.2,1.7,15.7,8.2,18.8c8.3,4,18.2-3.7,20.8-12.5c2.6-8.9,0.5-18.3,0.3-27.5c-0.4-15.1,0.3-33.9,19.6-36.3
		c2.1-0.3,4.3-0.2,6,1c2.1,1.4,2.8,4.1,3.1,6.6c0.7,6.2-0.6,12.7,1.7,18.5c2.2,5.5,7.6,9.6,13.5,10.1s12-2.5,15.1-7.5
		c3.4-5.4,3.3-12.1,4-18.5c0.7-6.7,3.2-14.1,9.7-16.4c1.3-0.5,2.8-0.5,4.1,0c4.4,1.9,2.9,8.4,5.1,12.5c2.7,5,10.6,4.9,14.6,0.9
		c3.7-3.7,4.1-9.3,4.4-14.5c0-0.3,0.5-0.4,0.6-0.1c1.8,5,1.3,9.2,6.3,10.5c3.2,0.8,6.7,0.1,9.2-2.2c7.9-7.2-2-20.5,12.6-25
		c3-0.9,6.2-0.8,9.2,0c6.9,1.9,19.1,2.3,21.6-5.5"/>
	<path class="st1" d="M508.8,347.7c6.3,2.9-6.4,39.3,17.6,36.8c11.8-1.2,14.2-13.5,23-4.5c2.8,2.8,3.7,6.8,3.9,10.7
		c0.3,8.1-5.4,28.7,6.3,34.3c10.6,5.1,20-4.3,18.1-18.9c-1.1-8.9,1.2-18.1,4.8-26.3c3.8-8.7,12.5-15,22-15.8"/>
	<path class="st2" d="M198.8,249.3c0.7,4.6,6.2,6.8,10.8,7.2s9.8,0,13.5,2.9c4.2,3.3,4.8,9.3,5.2,14.6c1.2,17.2,3.7,34.2,7.7,51
		c1.1,4.5,2.6,9.4,6.5,11.6c4.2,2.4,9.8,0.8,13.2-2.7c3.4-3.5,5-8.3,5.9-13.1c2.6-13.1,2.7-29.2,14.3-35.8c1.2-0.7,2.7-1.3,4.1-1
		c1.8,0.4,3,2.2,4.5,3.4c3.6,3,9.4,2,12.9-1.1c3.5-3.1,5.2-7.8,6-12.4c1.4-8.3,0.5-17.2,3.6-25c3.1-7.9,12.9-14.2,20-9.7
		c3.8,2.4,5.6,7.1,9.4,9.6c5.7,3.8,13.8,1,18.6-3.9c4.9-4.9,7.7-11.3,11.9-16.8s10.8-10.1,17.5-8.7c3.1,0.6,5.8,2.5,8.8,3.6
		c9.6,3.7,21.6-1.6,25.4-11.2"/>
	<path class="st2" d="M505.7,162.5c5.3,2.8,9,8.2,9.8,14.1c0.6,5-0.8,9.9-1.1,14.9c-0.3,5,1,10.7,5.2,13.3c6.3,3.8,14-1.1,20.6-4.3
		c1.7-0.8,3.7-1.5,5.5-0.8c2.9,1.1,3.2,5,3.1,8.1c-0.2,6.9-0.2,13.8-0.1,20.8c0,1.8,0.1,3.8,1.2,5.3c1.1,1.6,3,2.3,4.9,2.7
		c11.1,2.6,23.6-3.8,28.1-14.2c2.2-5.1,2.6-10.7,4.2-16s5-10.6,10.3-12c2.3-0.6,4.8-0.4,7.1-0.7c6.9-0.9,12.8-6.9,13.7-13.7"/>
	<path class="st1" d="M399.4,275.8c4.4-2.7,10.2,0.8,12.8,5.3c2.5,4.5,3.3,9.8,6,14.2c2.7,4.4,8.9,7.5,13,4.3
		c5.3-4.2,2.7-15.6,9.4-16.9c4-0.7,7.1,3.7,7.4,7.8s-0.9,8.2-0.1,12.1c1,5.1,5.6,9.3,10.8,9.8c5.2,0.5,10.5-2.8,12.4-7.6
		c12.1-13.7-0.7,24.8,4,36.9c3.9,10,18.4,12.4,27.1,6.2c8.7-6.2,11.8-18.1,10.6-28.7c-0.8-7.1-3.3-14-4.3-21.1
		c-1-7.1-0.4-15,4.2-20.5c4.6-5.5,14.1-7.2,18.9-1.8c7.9,8.7-2.1,26.3,7.6,33c4.1,2.8,10.5,1.3,12.9-3c1.2-2.1,1.5-4.6,3-6.5
		c3.6-4.4,11.4-1.4,14,3.7s1.9,11.2,2.6,16.8c0.7,6.5,3.5,13,8.6,17c5.2,4,13.1,4.8,18.2,0.7c5.3-4.2,6.2-12,5.6-18.8
		c-0.6-6.8-2.2-13.8-0.4-20.3s9.1-12.3,15.3-9.5"/>
	<g>
		<g>
			<path class="st0" d="M138.4,446.2c1.1-0.4,2.3-0.6,3.4-0.9c-0.2,0.1-1.2,0.1-0.4,0.1c0.3,0,0.6,0,0.8,0c1.1,0-0.2,0.1-0.3-0.1
				c0,0.1,1.2,0.5,0.2,0c-1-0.5,0.2,0.1,0.2,0.1c-0.2,0-0.9-0.8-0.4-0.2c-0.4-0.6-0.6-0.8-0.3-0.4c0.2,0.4,0.1,0.2-0.2-0.5
				c0,0,0.2,0.7,0.2,0.7c-0.1-0.8-0.1-0.9-0.1-0.5c0,0.1,0,0.3,0,0.4c0,0.3,0,0.7,0,1c0,0.7,0,1.5-0.1,2.2c-0.2,6.3-0.6,12.6-1.3,19
				c-0.3,2.9,2.8,5.7,5.6,5.6c3.3-0.1,5.3-2.5,5.6-5.6c0.4-3.7,0.7-7.4,0.9-11.2c0.2-3.6,0.6-7.2,0.4-10.8c-0.2-4.7-2.5-9-7.2-10.4
				c-3.3-1-6.8-0.4-10,0.7c-2.8,0.9-4.8,3.9-3.9,6.8C132.5,445,135.5,447.1,138.4,446.2L138.4,446.2z"/>
		</g>
	</g>
</g>
</svg>
