<?xml version="1.0" encoding="utf-8"?>
<!-- Generator: Adobe Illustrator 28.0.0, SVG Export Plug-In . SVG Version: 6.00 Build 0)  -->
<svg version="1.1" id="Layer_1" xmlns="http://www.w3.org/2000/svg" xmlns:xlink="http://www.w3.org/1999/xlink" x="0px" y="0px"
	 viewBox="0 0 880 880" style="enable-background:new 0 0 880 880;" xml:space="preserve">
<style type="text/css">
	.st0{fill:url(#SVGID_1_);stroke:#083330;stroke-width:11.3096;stroke-linecap:round;stroke-miterlimit:10;}
	.st1{fill:#FFFFFF;}
</style>
<g>
	
		<radialGradient id="SVGID_1_" cx="446.4523" cy="593.6" r="340.2832" gradientTransform="matrix(-6.451479e-03 -1 1.3983 -9.021467e-03 -380.7145 1045.3982)" gradientUnits="userSpaceOnUse">
		<stop  offset="0" style="stop-color:#BA1356"/>
		<stop  offset="1" style="stop-color:#FF5956"/>
	</radialGradient>
	<path class="st0" d="M801.8,353.8c0,120-163.3,216.2-363.6,216.2S76.7,473.8,76.7,353.8S239,76,439.3,76S801.8,233.8,801.8,353.8z"
		/>
	<ellipse class="st1" cx="446.9" cy="227" rx="174.1" ry="125.4"/>
	<g>
		<path class="st1" d="M218.7,264.2c-15-26-41.6-42.6-73.6-49c-38.6,43.6-62.7,94.3-62.7,138.6c0,38.6,16.4,74.5,48.5,105.9
			C213.9,411.6,253.2,324.1,218.7,264.2z"/>
	</g>
	<g>
		<path class="st1" d="M659.5,264.2c15-26,41.6-42.6,73.6-49c38.6,43.6,62.7,94.3,62.7,138.6c0,38.6-16.4,74.5-48.5,105.9
			C664.3,411.6,625,324.1,659.5,264.2z"/>
	</g>
</g>
</svg>
