<?xml version="1.0" encoding="utf-8"?>
<!-- Generator: Adobe Illustrator 28.0.0, SVG Export Plug-In . SVG Version: 6.00 Build 0)  -->
<svg version="1.1" id="Cap" xmlns="http://www.w3.org/2000/svg" xmlns:xlink="http://www.w3.org/1999/xlink" x="0px" y="0px"
	 viewBox="0 0 880 880" style="enable-background:new 0 0 880 880;" xml:space="preserve">
<style type="text/css">
	.st0{fill:#FFD45C;stroke:#083330;stroke-width:11.1246;stroke-linecap:round;stroke-miterlimit:10;}
	.st1{fill:#FF5956;stroke:#083330;stroke-width:11.1246;stroke-linecap:round;stroke-miterlimit:10;}
	.st2{fill:#FF5956;}
</style>
<g>
	<path class="st0" d="M695.2,495.2c64.2-15.7,66.9-84.5,58.1-110.1c-31.5-91.5-118.2-128.8-148.5-195.5
		C549.3,67.5,483.6,72.9,441.2,77.5c-61.8,6.6-107.6,74.3-177.3,151.5c-52.5,58.2-128.8,84.9-142.4,154.6
		C109,447,146,490.7,198.2,504.3L448,437.4L695.2,495.2z"/>
	<g>
		<path class="st1" d="M199.5,439c19.4-8,44.4,4.3,71.2,0.6c37.6-4.4,55.2-20.3,77-32.8c22.9-13.2,49.5-19.7,108.6-19.8
			c46.6-0.1,73.1,14.9,78,21.6c66.8,46,97.3-7.9,160.6,15.1c45.4,25.5,23.4,62.7,10.4,69.5c-21.2,11.1-61.6,15.2-96,6.1
			c-98.2-26-78.8-39.9-169.7-33.8c-84.7,5.6-129.8,45.5-207.1,43.9c-17.4-0.3-32.3,0-47.5-10.1C172.3,490.7,164.5,456.4,199.5,439z"
			/>
	</g>
	
		<ellipse transform="matrix(0.9248 -0.3805 0.3805 0.9248 -93.632 144.4862)" class="st2" cx="318.6" cy="309.1" rx="86.9" ry="75.1"/>
	<g>
		<path class="st2" d="M411.1,199.1c8.9,38.5,66.6,58.2,128.8,43.8c27.7-6.4,51.8-18.5,69-33.3c-4.8-7-8.9-17.1-12.5-24.6
			c-21.6-45-36.1-65.1-65.7-85.2c-7.3,0.8-15.6,1.7-23.1,3.5C445.5,117.7,402.2,160.6,411.1,199.1z"/>
	</g>
	
		<ellipse transform="matrix(0.3131 -0.9497 0.9497 0.3131 87.6824 795.5092)" class="st2" cx="593.8" cy="337.1" rx="46.2" ry="83.1"/>
</g>
</svg>
