<?xml version="1.0" encoding="utf-8"?>
<!-- Generator: Adobe Illustrator 28.0.0, SVG Export Plug-In . SVG Version: 6.00 Build 0)  -->
<svg version="1.1" id="Cap" xmlns="http://www.w3.org/2000/svg" xmlns:xlink="http://www.w3.org/1999/xlink" x="0px" y="0px"
	 viewBox="0 0 880 880" style="enable-background:new 0 0 880 880;" xml:space="preserve">
<style type="text/css">
	.st0{fill:url(#SVGID_1_);stroke:#083330;stroke-width:11.1246;stroke-linecap:round;stroke-miterlimit:10;}
	.st1{fill:#FFD45C;stroke:#083330;stroke-width:11.1246;stroke-miterlimit:10;}
	.st2{fill:none;stroke:#083330;stroke-width:11.1246;stroke-linecap:round;stroke-miterlimit:10;}
	
		.st3{fill:url(#SVGID_00000021802960894054072070000009244062201305982634_);stroke:#083330;stroke-width:11.1246;stroke-linecap:round;stroke-miterlimit:10;}
</style>
<g>
	<linearGradient id="SVGID_1_" gradientUnits="userSpaceOnUse" x1="442.8376" y1="207.5035" x2="441.3222" y2="390.8641">
		<stop  offset="1.562371e-03" style="stop-color:#C8A5DB"/>
		<stop  offset="0.8254" style="stop-color:#FFFFEA"/>
	</linearGradient>
	<path class="st0" d="M344.8,415.4c-12.9-48.5-82.6-22-83.7-79.9c-3.8-16-12.9-31-25.8-42.6c-40.1,5.3-44-31.5-64.3-44.2
		c-20.3-12.7-42.8-26.8-34.3-47.2c7.5-18,7.6-46.6,3-60.4l525.3-50c149.2,53.8,58.1,68.2,66.7,124.3c4.8,31.3-53.2,32.4-66.7,61.2
		c-13.5,24.9,9.7,58.5-7.3,81.1c-33.5,44.5-86.1-19.6-123.2,58.5"/>
	<path class="st1" d="M243.6,90.3c-41.3-13.1-120.1-12.6-116.7,47c8.7,25.8,38,10,54.4,24.2c17.8,42.5,42.2,91.2,94.2,91.6
		c64.2,21.7,91.7-66.5,152-56c26,7.3,49.6,18.3,75.7,8.4c24.9,6,73.1,28.5,76.1-13.3c30.7-41.6,122.7,40.2,125.7-43.8
		c-9.9-39.4,30.4-17.2,48.1-26.4c17.4-18.4-2.9-49-25.1-52c-28.9-11.1-57.7-5.2-85.8,3.9c-51.3-7.5-97.5,4.5-146.5,22.2
		c-84.4,18.8-172.7-34.4-255.4-6.1"/>
	<path class="st2" d="M206.4,221.3c-0.5,17.4,5.5,34.5,14.1,49.6c8.6,15.1,20,28.5,31.2,41.7"/>
	<path class="st2" d="M660.6,291.4c-0.3-59,57.2-61.9,42.9-114.6"/>
	<path class="st2" d="M583.5,193.4c-0.4,17,3.9,34.1,1.1,50.8c-6.9,40.9-53.5,68.4-54.7,109.8"/>
	<path class="st2" d="M272.9,254c-11.4,17,14.9,32.2,15.7,48.5c2.5,53,32.9,38.9,72.2,81.8"/>
	<path class="st2" d="M344.9,240.4c-15.1,43.3,42,71,45.5,112.1"/>
	<path class="st2" d="M393.4,206.3c-11.6,53.8,47.5,86.2,27.1,142"/>
	<path class="st2" d="M507.6,206.4c0.6,18.2-10.8,34.2-18.8,50.5c-16.5,33.6-19.1,72.9-13,109.8"/>
	<path class="st2" d="M454.9,206.3c-7,25.5-9.1,52.4-6.1,78.8"/>
	<path class="st2" d="M549.5,221.4c-0.1,30.1-37.9,50.2-31.4,85.8"/>
	<path class="st2" d="M590.5,326.9c20.4-19.4,10-52.8,22.8-75.9c10.7-19.2,40.8-34.1,33.2-59.5"/>
	<path class="st2" d="M179,160.8c-8.1,27.3-4.5,60.6,28.8,89.4"/>
	<path class="st2" d="M639.3,221.2c-20.7,48.2,24.4,64-26.9,124.4"/>
	
		<linearGradient id="SVGID_00000159441184111046056090000014119961741066284986_" gradientUnits="userSpaceOnUse" x1="443.8716" y1="191.9742" x2="440.8725" y2="105">
		<stop  offset="0.3208" style="stop-color:#FF8F5F;stop-opacity:0.997"/>
		<stop  offset="1" style="stop-color:#FF905F;stop-opacity:0"/>
	</linearGradient>
	
		<path style="fill:url(#SVGID_00000159441184111046056090000014119961741066284986_);stroke:#083330;stroke-width:11.1246;stroke-linecap:round;stroke-miterlimit:10;" d="
		M183.5,112.3c9.1,30.4,37.1-6.2,54.9,57.2c27.1,48.6,72,21.7,101.8-6c35.6-20.8,78.2-0.1,117.6-5.1c24.9-11.8,54.2,8.7,75.6-3.6
		c11.4-26,35.1-35.8,62.6-28.1c25.7,0.2,90.9,32.8,82.9-14.9c2.6-9.5,25.4-10.6,17.4-23.3"/>
	<path class="st2" d="M314.4,254.7c1.2,18.2,14.6,74.3,66.9,77.1"/>
</g>
</svg>
