<?xml version="1.0" encoding="utf-8"?>
<!-- Generator: Adobe Illustrator 28.0.0, SVG Export Plug-In . SVG Version: 6.00 Build 0)  -->
<svg version="1.1" id="Feet" xmlns="http://www.w3.org/2000/svg" xmlns:xlink="http://www.w3.org/1999/xlink" x="0px" y="0px"
	 viewBox="0 0 880 880" style="enable-background:new 0 0 880 880;" xml:space="preserve">
<style type="text/css">
	.st0{fill:url(#SVGID_1_);}
	.st1{fill:url(#SVGID_00000087397581506285437910000002491028802203215532_);}
	.st2{fill:url(#SVGID_00000119113878033047593090000012317374409102260111_);}
	.st3{fill:#FFFFEA;stroke:#083330;stroke-width:11.1246;stroke-linecap:round;stroke-miterlimit:10;}
	.st4{fill:#FF5956;stroke:#083330;stroke-width:9.9555;stroke-miterlimit:10;}
	.st5{fill:#8AF756;stroke:#083330;stroke-width:11.1246;stroke-linecap:round;stroke-linejoin:round;stroke-miterlimit:10;}
	.st6{fill:#FFFFFF;stroke:#083330;stroke-width:11.1246;stroke-linecap:round;stroke-miterlimit:10;}
	.st7{fill:none;stroke:#083330;stroke-width:11.1246;stroke-linecap:round;stroke-miterlimit:10;}
</style>
<g>
	
		<radialGradient id="SVGID_1_" cx="169.9872" cy="809.4841" r="95.5104" gradientTransform="matrix(1 0 0 0.1356 0 699.691)" gradientUnits="userSpaceOnUse">
		<stop  offset="0" style="stop-color:#969696"/>
		<stop  offset="1" style="stop-color:#FFFFFF;stop-opacity:0"/>
	</radialGradient>
	<ellipse class="st0" cx="170" cy="809.5" rx="95.4" ry="13.7"/>
	
		<radialGradient id="SVGID_00000070814980219874471040000012722036681740767649_" cx="725.6254" cy="809.4841" r="95.5104" gradientTransform="matrix(1 0 0 0.1356 0 699.691)" gradientUnits="userSpaceOnUse">
		<stop  offset="0" style="stop-color:#969696"/>
		<stop  offset="1" style="stop-color:#FFFFFF;stop-opacity:0"/>
	</radialGradient>
	
		<ellipse style="fill:url(#SVGID_00000070814980219874471040000012722036681740767649_);" cx="725.6" cy="809.5" rx="95.4" ry="13.7"/>
	
		<radialGradient id="SVGID_00000168096371376573531440000002713087821200573866_" cx="446.2045" cy="798.7997" r="154.776" gradientTransform="matrix(1 0 0 0.1356 0 690.4557)" gradientUnits="userSpaceOnUse">
		<stop  offset="0" style="stop-color:#969696"/>
		<stop  offset="1" style="stop-color:#FFFFFF;stop-opacity:0"/>
	</radialGradient>
	
		<ellipse style="fill:url(#SVGID_00000168096371376573531440000002713087821200573866_);" cx="446.2" cy="798.8" rx="154.6" ry="22.2"/>
	<polygon class="st3" points="323.5,697.3 260.8,744.3 245.7,726.3 306.5,676.9 	"/>
	<path class="st4" d="M276.6,741.8l-45.4,33.9c-1,0.8-2.5,0.6-3.3-0.4l-18.5-21.9c-0.9-1-0.7-2.6,0.3-3.4l43.1-37.1
		c1-0.9,2.6-0.8,3.5,0.3l20.8,25.1C277.9,739.3,277.7,740.9,276.6,741.8z"/>
	<path class="st5" d="M237.3,781.6c10.5-7.8,19.8-4.9,24.5-5.6c4.6-0.7,4.2-9.2,0.7-14.6s-14.5-8.9-28.2-5.6
		c7.9-4.6,15.6-23.1,10-29s-15.7-18.9-18.4-13.7s-11.4,28.8-19.8,24.3s-30.5-35.3-30.5-35.3l-33.4,24.5l62.9,69.8L237.3,781.6z"/>
	<path class="st6" d="M136.4,688.7c7.2-5.7,17.8-7.1,26.4-3.5c8.5,3.7,14.5,13.4,12.7,22.5c-1.6,8.8-9.2,14.9-16.2,20.3l-13.6,9.4
		L131.1,693L136.4,688.7z"/>
	<path class="st6" d="M202.4,781.6c3.2-3.8,7.2-5.6,12.1-5.9c5-0.2,14.7,1.1,20.6,9.1c0.2,0.3,0.4,0.7,0.3,1.1
		c-0.1,0.3-0.3,0.5-0.5,0.6c-6.9,5.9-8.7,7-16,12.4"/>
	<path class="st7" d="M202.9,722.9c1.6,5.4,0.2,11.3-2.5,16.1c-2.8,4.8-6.8,8.8-11,12.5"/>
	<path class="st7" d="M188.6,709c2.3,5.1,1.8,11.1-0.3,16.3c-2.1,5.2-5.6,9.7-9.2,13.9"/>
	<path class="st6" d="M131.1,693c8.7,16,10.7,26.9,31,51.5c17.1,20.8,58.1,52.3,55.9,55.6c0,0-10.7,14.2-13.7,11.5
		c-8.2-7.5-9.7-8.3-28.6-24.2c-18.9-16-34.3-34-44.8-51.9c-8.3-14.1-12.4-25.9-13.8-30.2c-0.3-1,0-2.1,0.8-2.7L131.1,693z"/>
	<polygon class="st3" points="590.5,643.6 662.8,673.7 655,695.9 581.6,668.5 	"/>
	<path class="st4" d="M652.7,661.3l52.3,21.9c1.2,0.5,1.8,1.8,1.4,3.1l-9.5,27.1c-0.4,1.3-1.8,1.9-3.1,1.5l-53.8-18.3
		c-1.3-0.4-2-1.9-1.5-3.1l11-30.7C649.9,661.4,651.4,660.8,652.7,661.3z"/>
	<path class="st5" d="M706.9,675c-12.1-5.1-14.3-14.6-17.3-18.2s-10.1,1-13,6.8c-2.9,5.7-0.3,17,9.5,27.2c-8-4.5-27.8-1.7-30,6.1
		c-2.2,7.8-8.4,23.1-2.5,22.8c5.9-0.3,30.6-4.8,31,4.7s-14.9,44.2-14.9,44.2l38,16.3l28.2-89.7L706.9,675z"/>
	<path class="st6" d="M678.1,809c-8.6-3.3-15.2-11.7-16.4-21c-1.2-9.2,4.2-19.3,12.9-22.4c8.4-3,17.5,0.4,25.7,3.7l15,6.9
		l-30.9,35.2L678.1,809z"/>
	<path class="st6" d="M724.7,705.1c-4.9-0.9-8.5-3.3-11.2-7.5c-2.7-4.1-6.5-13.3-2.6-22.3c0.2-0.4,0.4-0.7,0.8-0.8
		c0.3-0.1,0.5,0,0.8,0.1c8.5,3,10.4,4,18.8,7.5"/>
	<path class="st7" d="M673.8,734.4c3.8-4.1,9.6-5.9,15.2-6s11.1,1.4,16.4,3.2"/>
	<path class="st7" d="M669.1,753.8c3.2-4.6,8.7-7.2,14.2-8s11.2-0.1,16.6,0.9"/>
	<path class="st6" d="M684.5,811.5c9.4-15.6,17.7-22.9,28.6-52.9c9.2-25.3,15.6-76.6,19.5-76.4c0,0,17.7,1.9,16.8,6
		c-2.3,10.9-2.2,12.5-6.4,36.9c-4.2,24.4-11.9,46.8-22,64.9c-8,14.3-16,23.9-19,27.2c-0.7,0.8-1.8,1.1-2.7,0.7L684.5,811.5z"/>
</g>
</svg>
