<?xml version="1.0" encoding="utf-8"?>
<!-- Generator: Adobe Illustrator 28.0.0, SVG Export Plug-In . SVG Version: 6.00 Build 0)  -->
<svg version="1.1" id="Layer_1" xmlns="http://www.w3.org/2000/svg" xmlns:xlink="http://www.w3.org/1999/xlink" x="0px" y="0px"
	 viewBox="0 0 880 880" style="enable-background:new 0 0 880 880;" xml:space="preserve">
<style type="text/css">
	.st0{fill:url(#SVGID_1_);}
	.st1{fill:#FFFFEA;stroke:#083330;stroke-width:11.1246;stroke-linecap:round;stroke-miterlimit:10;}
</style>
<g>
	<g>
		
			<radialGradient id="SVGID_1_" cx="392.1776" cy="788.9344" r="189.6618" gradientTransform="matrix(1.2158 0 0 0.3703 -35.9616 456.325)" gradientUnits="userSpaceOnUse">
			<stop  offset="0" style="stop-color:#969696"/>
			<stop  offset="1" style="stop-color:#FFFFFF;stop-opacity:0"/>
		</radialGradient>
		<ellipse class="st0" cx="440.9" cy="748.5" rx="230.3" ry="74.4"/>
		<path class="st1" d="M566.5,782.2c-0.1-1.7-0.4-3.6-1.1-5.2c-1.6-4-3.9-7.2-7-10.3c-1.9-1.9-4-3.6-6.1-5.3
			c-2.4-1.9-4.8-3.8-7.2-5.7c-5.1-4.1-10.4-8-15.8-11.7c-5.4-3.6-11-6.8-16.8-9.8c-8.2-4.2-16.6-7.9-25.1-11.4
			c-13.4-5.5-27-10.6-40.6-15.6c-2.8-1-6.1,0-8.5,1.3c-2.5,1.4-4.1,4.1-4.9,6.8c-0.8,2.7-0.1,6.2,1.3,8.5c1.6,2.6,4,3.9,6.8,4.9
			c8.7,3.2,17.3,6.4,25.9,9.7c5.8,2.3,11.5,4.6,17.3,7.1c8,3.5,15.9,7.2,23.5,11.4c5.2,2.9,10.2,6.1,15,9.6c1,0.7,1.9,1.5,2.9,2.2
			c2.5,1.9,5.2,3.7,7.5,5.9c3,2.8,4.1,4.3-1.2,4.8c-5.6,0.5-82.5,13.5-85.4,20.6c13,0.1,50.7,2.7,63.7,2.4
			c7.3-0.2,14.5-0.5,21.8-0.7c3.7-0.1,7.4-0.3,11.2-0.5c2.5-0.1,4.9-0.2,7.3-0.8c3.9-0.9,7.6-3.1,10.5-5.8c2.2-2,3.8-5,4.5-7.9
			C566.5,785.4,566.7,783.8,566.5,782.2z"/>
		<path class="st1" d="M522.8,770.2c-0.9-0.4-1.8-0.7-2.7-1.1c-2-0.5-4-0.4-5.9,0.1c-9.4,1.9-18.9,3.7-28.3,5.2
			c-20.1,3.2-40.3,5.4-60.5,6.9c-20,1.5-40.1,2.2-60.1,2.6c-5.6,0.1-11.3,0.5-16.9,0.3c-5.3-0.2-4.3-1.8-1.5-4.7
			c2.2-2.3,4.8-4.2,7.2-6.3c0.9-0.8,1.9-1.6,2.8-2.3c4.6-3.7,9.5-7.2,14.5-10.3c7.4-4.6,15.1-8.7,22.9-12.6c5.6-2.8,11.2-5.4,16.9-8
			c8.4-3.8,16.9-7.4,25.3-11c2.8-1.2,5-2.6,6.5-5.3c1.3-2.4,1.8-5.9,0.9-8.6c-0.9-2.7-2.7-5.2-5.3-6.5c-2.5-1.2-5.9-2-8.6-0.9
			c-13.4,5.6-26.7,11.4-39.8,17.6c-8.3,3.9-16.5,8-24.5,12.6c-5.6,3.2-11,6.7-16.2,10.6c-5.2,3.9-10.3,8.1-15.2,12.4
			c-2.3,2-4.6,4-6.9,6c-2,1.8-4.1,3.5-5.9,5.6c-2.9,3.3-5,6.6-6.4,10.7c-0.6,1.6-0.7,3.5-0.8,5.2c0,1.6,0.2,3.2,0.7,4.8
			c0.8,2.8,2.7,5.7,4.9,7.7c3.1,2.6,6.8,4.5,10.8,5.3c2.5,0.5,4.8,0.4,7.3,0.4c3.7,0,7.5-0.1,11.2-0.1c7.3-0.1,14.5-0.2,21.8-0.4
			c14.7-0.3,29.3-0.9,44-1.8c15-0.9,29.9-2.2,44.8-4c16.4-2,32.8-4.5,49.1-7.5c0.8-0.2,1.6-0.3,2.4-0.5c4.9,8.1,21.6,22.6,27.3,22.4
			C546.6,814.6,552,804.7,522.8,770.2z"/>
		<path class="st1" d="M460.2,773.9c-20.2-2.2-79.1-12.9-88.4-15.2c-1.9-0.6-3.9-0.8-5.9-0.3c-0.9,0.3-1.8,0.6-2.7,1
			c-30.3,33.6-25.2,43.6-17.4,44.1c5.7,0.3,22.8-13.6,28-21.5c0.8,0.2,1.6,0.4,2.4,0.5c3.3,0.7,5.3,0.5,8.4,1.6
			c2,0.7,97.8-7.9,98.5-8C475.5,775.4,467.9,774.7,460.2,773.9z"/>
	</g>
</g>
</svg>
