<?xml version="1.0" encoding="utf-8"?>
<!-- Generator: Adobe Illustrator 28.0.0, SVG Export Plug-In . SVG Version: 6.00 Build 0)  -->
<svg version="1.1" id="Feet" xmlns="http://www.w3.org/2000/svg" xmlns:xlink="http://www.w3.org/1999/xlink" x="0px" y="0px"
	 viewBox="0 0 880 880" style="enable-background:new 0 0 880 880;" xml:space="preserve">
<style type="text/css">
	.st0{fill:url(#SVGID_1_);}
	.st1{fill:#FFFFEA;stroke:#083330;stroke-width:11.1246;stroke-linecap:round;stroke-miterlimit:10;}
</style>
<g>
	
		<radialGradient id="SVGID_1_" cx="440.6481" cy="810.8591" r="154.776" gradientTransform="matrix(1 0 0 0.186 0 655.2884)" gradientUnits="userSpaceOnUse">
		<stop  offset="0" style="stop-color:#969696"/>
		<stop  offset="1" style="stop-color:#FFFFFF;stop-opacity:0"/>
	</radialGradient>
	<ellipse class="st0" cx="440.6" cy="806.1" rx="154.6" ry="30.5"/>
	<path class="st1" d="M364.1,719.5c-0.4,16.9-3.1,33.6-8.2,49.7c-0.5,1.4-1,2.9-2.2,3.9c-1.4,1.1-3.3,1.1-5,1
		c-10.9-0.2-21.9,0.3-32.8,1.6c-7,0.8-15.6,3.4-16.7,10.4c-0.8,4.8,2.8,9.5,7.2,11.5c4.4,2.1,9.4,2.2,14.3,2.3
		c25.9,0.4,51.9,0.8,77.8,1.2c1.1,0,2.2,0,3.1-0.5c1.5-0.8,2-2.7,2.4-4.4c5.4-25,9.7-50.3,13-75.7"/>
	<path class="st1" d="M489.9,712c1.3,27.7,2.7,55.3,4,83c0.1,1.9,0.3,4,1.7,5.2c1.2,1,2.8,1.1,4.4,1.1c19.8,0.1,39.5-2.3,58.7-7.1
		c5.9-1.5,23.5-6.4,23.4-12.6c-0.1-2.6,0.4-4.7-2.1-7.5c-6.8-7.7-38.1-3.4-48.3-4.8c-1.8-0.3,0.7-51,1.2-71.2"/>
</g>
</svg>
