<?xml version="1.0" encoding="utf-8"?>
<!-- Generator: Adobe Illustrator 28.0.0, SVG Export Plug-In . SVG Version: 6.00 Build 0)  -->
<svg version="1.1" id="Feet" xmlns="http://www.w3.org/2000/svg" xmlns:xlink="http://www.w3.org/1999/xlink" x="0px" y="0px"
	 viewBox="0 0 880 880" style="enable-background:new 0 0 880 880;" xml:space="preserve">
<style type="text/css">
	.st0{fill:url(#SVGID_1_);}
	.st1{fill:#FFFFEA;stroke:#083330;stroke-width:11.1246;stroke-linecap:round;stroke-miterlimit:10;}
	.st2{fill:#FFFFEA;}
	.st3{fill:none;stroke:#083330;stroke-width:11.1246;stroke-linecap:round;stroke-miterlimit:10;}
	.st4{fill:none;stroke:#083330;stroke-width:11.1246;stroke-linecap:round;stroke-linejoin:round;stroke-miterlimit:10;}
</style>
<g>
	
		<radialGradient id="SVGID_1_" cx="447.9185" cy="794.7173" r="154.776" gradientTransform="matrix(2.3712 0 0 0.2169 -623.169 622.6909)" gradientUnits="userSpaceOnUse">
		<stop  offset="0" style="stop-color:#CBCBCB"/>
		<stop  offset="1" style="stop-color:#FFFFFF"/>
	</radialGradient>
	<ellipse class="st0" cx="438.9" cy="795.1" rx="366.5" ry="35.5"/>
	<path class="st1" d="M755.6,817.2c-12-17.4-52.9-25.9-52.9-25.9c-0.5-9,2.5-127.5-6.5-171.6c-2.8-13.7-20.4-9.3-30.3-3
		c-10.4,6.6-95.8,53.2-103,65.4c4.3,3.8,14,16.2,14.7,15.3c5.4-7.1,70.3-41.7,91.3-53.6c3-1.7,6.6-1.1,7,2.4
		c1.8,17.2,7,139.8,6.9,148.9c-2.7,16-1.2,23.1,6.8,24.8C702.2,822.6,766.4,832.9,755.6,817.2z"/>
	<path class="st1" d="M130.4,817.2c12-17.4,52.9-25.9,52.9-25.9c0.5-9-2.5-127.5,6.5-171.6c2.8-13.7,20.4-9.3,30.3-3
		c10.4,6.6,97.2,55.7,104.3,67.8c-4.3,3.8-14,16.2-14.7,15.3c-5.4-7.1-71.6-44.1-92.6-56c-3-1.7-6.6-1.1-7,2.4
		c-1.8,17.2-7,139.8-6.9,148.9c2.7,16,1.2,23.1-6.8,24.8C183.8,822.6,119.6,832.9,130.4,817.2z"/>
	<path class="st1" d="M87.3,774.9c26.6-16.4,52.8-18.8,52.8-18.8c0.1-9-9.1-90.9,11.3-203.6c2.3-12.4,20-10.2,30.1-4.3
		c10.7,6.2,113.9,62.4,121.6,74.2c-4.2,4-13.3,16.8-14.1,15.9c-5.7-6.9-87.9-52-109.4-62.9c-3.1-1.6-5.8-0.6-6.9,2.7
		c-17,55.1-13,171-9.5,178.8c3.4,15.9,1.4,15.2-5.3,20C146.2,785.6,66.1,788,87.3,774.9z"/>
	<path class="st1" d="M796.7,774.9c-26.6-16.4-52.8-18.8-52.8-18.8c-0.1-9,9.1-90.9-11.3-203.6c-2.3-12.4-20-10.2-30.1-4.3
		c-10.7,6.2-112.5,60-120.2,71.8c4.2,4,13.3,16.8,14.1,15.9c5.7-6.9,86.5-49.5,108-60.5c3.1-1.6,5.8-0.6,6.9,2.7
		c17,55.1,13,171,9.5,178.8c-3.4,15.9-1.4,15.2,5.3,20C737.9,785.6,818,788,796.7,774.9z"/>
	<g>
		<path class="st2" d="M573.3,720.1l-32.7-11.8l-16.2,22.4c15.1-1.4,47.3,4.8,61,11.4c13.7,6.6-1.4,14.3-8.6,16.7
			c-38.5,12.3-45.3-3.8-50.3,9.3c-4.9,12.7,19.2,10.4,19.2,10.4c-13.2,7-18.2,41.7,2.8,30.7c2.8-3.4,4.8-19,9.3-20.9l0.9,0.2
			c-3.5,7.6-1.4,17.8,0.5,21.4c4.4,8.1,13.2,9.9,16.2,1c0.7-8.5-4.8-10.9-1.7-19.6l0.4,0.1c0.5,20.1,9.7,23.7,12.9,23.5
			c15.2-3.6,1.4-23.9,8-32.3C645.7,750,623.6,731.6,573.3,720.1z"/>
		<path class="st3" d="M558.8,788.8c-3.6,7.6-1.6,18,0.4,21.6c4.4,8.1,13.2,9.9,16.2,1c0.7-8.8-5.3-11.1-1.3-20.7"/>
		<path class="st4" d="M574,791.9c0.5,20.1,9.7,23.7,12.9,23.5c15.2-3.6,1.4-23.9,8-32.3c50.8-32.7,32.7-56.3-34-69.2l-39.4,13.6
			c15.1-1.4,50.4,8.5,64,15.1c13.7,6.6-1.4,14.3-8.6,16.7c-38.5,12.3-45.3-3.8-50.3,9.3c-4.9,12.7,19.2,10.4,19.2,10.4
			c-13.2,7-18.2,41.7,2.8,30.7c2.8-3.4,4.8-19,9.3-20.9"/>
	</g>
	<g>
		<path class="st2" d="M312,720.1l32.7-11.8l16.2,22.4c-15.1-1.4-47.3,4.8-61,11.4c-13.7,6.6,1.4,14.3,8.6,16.7
			c38.5,12.3,45.3-3.8,50.3,9.3c4.9,12.7-19.2,10.4-19.2,10.4c13.2,7,18.2,41.7-2.8,30.7c-2.8-3.4-4.8-19-9.3-20.9l-0.9,0.2
			c3.5,7.6,1.4,17.8-0.5,21.4c-4.4,8.1-13.2,9.9-16.2,1c-0.7-8.5,4.8-10.9,1.7-19.6l-0.4,0.1c-0.5,20.1-9.7,23.7-12.9,23.5
			c-15.2-3.6-1.4-23.9-8-32.3C239.6,750,261.7,731.6,312,720.1z"/>
		<path class="st3" d="M326.5,788.8c3.6,7.6,1.6,18-0.4,21.6c-4.4,8.1-13.2,9.9-16.2,1c-0.7-8.8,5.3-11.1,1.3-20.7"/>
		<path class="st4" d="M311.3,791.9c-0.5,20.1-9.7,23.7-12.9,23.5c-15.2-3.6-1.4-23.9-8-32.3c-50.8-32.7-32.7-56.3,34-69.2
			l39.4,13.6c-15.1-1.4-50.4,8.5-64,15.1c-13.7,6.6,1.4,14.3,8.6,16.7c38.5,12.3,45.3-3.8,50.3,9.3c4.9,12.7-19.2,10.4-19.2,10.4
			c13.2,7,18.2,41.7-2.8,30.7c-2.8-3.4-4.8-19-9.3-20.9"/>
	</g>
</g>
</svg>
