<?xml version="1.0" encoding="utf-8"?>
<!-- Generator: Adobe Illustrator 28.0.0, SVG Export Plug-In . SVG Version: 6.00 Build 0)  -->
<svg version="1.1" id="Face" xmlns="http://www.w3.org/2000/svg" xmlns:xlink="http://www.w3.org/1999/xlink" x="0px" y="0px"
	 viewBox="0 0 880 880" style="enable-background:new 0 0 880 880;" xml:space="preserve">
<style type="text/css">
	.st0{fill:#FFE5AB;stroke:#083330;stroke-width:3.7082;stroke-linecap:round;stroke-linejoin:round;stroke-miterlimit:10;}
	.st1{fill:#083330;}
	.st2{fill:none;stroke:#083330;stroke-width:2.7811;stroke-linecap:round;stroke-linejoin:round;stroke-miterlimit:10;}
</style>
<g>
	<path class="st0" d="M366.9,607.4c-18.5,2.1-30.8,11.6-31.8,36.9s8.1,42.9,25.8,43.4c17.7,0.5,48.5-11.1,49-27.3s-3.4-33-16.7-43.9
		C384.6,609.4,376,606.3,366.9,607.4z"/>
	<path class="st0" d="M490.2,623c-11.1,8.1-6.6,32.8-3,40.4c3.5,7.6,19.2,24.8,39.9,21.7s29.8-27.8,26.8-39.9
		c-3-12.1-14.1-36.9-30.3-37.4C507.3,607.4,503.4,613.4,490.2,623z"/>
	<path class="st1" d="M370.7,685.5c-11.2-1.5-21.3-9.9-24.5-20.7c-1.5-4.9-1.6-10.2-1.7-15.3c-0.2-10.2,0-21.3,6.3-29.3
		c7.1-9,19.8-11.4,31.2-10.8c3.9,1.5,7.7,3.9,11.6,7.1c13.3,10.9,17.2,27.8,16.7,43.9c-0.4,11.6-16.4,20.9-32,25
		C375.8,685.8,373.2,685.8,370.7,685.5z"/>
	<path class="st1" d="M512.5,612.2c-3.6,0.2-7.3,0.8-10.6,1.2c-3.7,2.5-7.5,5.8-12.7,9.6c-11.1,8.1-6.6,32.8-3,40.4
		c2.8,6,13.3,18.2,28,21.3c7.8-0.2,15.5-3.6,21.1-9.1c5.7-5.7,9-13.7,9.1-21.8c0-6.2-1.8-12.3-4.3-18c-1.9-4.5-4.3-8.8-7-12.8
		c-2.2-3.4-4.8-6.6-8.4-8.6C520.9,612.4,516.7,612,512.5,612.2z"/>
	<path class="st2" d="M489.7,682.6c4.1,3.5,8.3,6.9,12.4,10.4"/>
	<path class="st2" d="M510.9,696.3c4.2-0.1,8.4-0.2,12.6-0.4c2.5-0.1,5-0.3,7.4-1c3-0.9,5.6-2.7,8.2-4.5c3.7-2.6,7.4-5.1,11.1-7.7
		c2.6-1.8,5.2-3.6,7.2-6c2-2.4,3.4-5.5,3.1-8.7"/>
	<path class="st2" d="M504.8,701.2c12.3,0.3,25,0.5,36.1-4.7c1.3-0.6,3.3-3.3,6.5-5.6"/>
	<path class="st2" d="M559,689.7c-6.5,7.5-13.7,15.4-23.4,17.3"/>
	<path class="st2" d="M514.9,598.8c6-0.2,12.1-0.2,18.1,0c3,0.1,6.1,0.2,9,1.2c7.9,2.7,12.2,10.9,15.1,18.7
		c3.4,9.2,5.8,18.8,7.2,28.5"/>
	<path class="st2" d="M500.7,592c8.7-1.9,17.7-2.3,26.5-1.4c3.3,0.4,6.6,0.9,9.5,2.4c2.9,1.5,5.4,4.1,6.2,7.3"/>
	<path class="st2" d="M494.6,606.3c-5.1,3.5-10.4,7.2-13.6,12.6c-1.6,2.7-2.6,5.7-3.4,8.8c-2.5,9.2-3.3,18.9-1.2,28.2"/>
	<path class="st2" d="M485.1,599.2c-4,4.9-8.1,9.9-11,15.6c-2.9,5.7-4.5,12.2-3.4,18.5"/>
	<path class="st2" d="M468.4,645.3c1.4,8,2.9,15.9,4.3,23.9c0.4,2.2,0.8,4.4,1.7,6.5c0.8,1.7,1.9,3.2,3,4.7c2.6,3.5,5.3,7,7.9,10.5"
		/>
	<path class="st2" d="M467.8,667.9c1,5.7,2.1,11.4,4.4,16.7c2.3,5.3,5.9,10.2,11,12.9"/>
	<path class="st2" d="M350.7,693.2c4,0.3,8,0.7,12,1c2.8,0.2,5.6,0.5,8.4,0.5c14.2,0.2,29.2-5.8,36.5-18"/>
	<path class="st2" d="M378.9,702.9c4.3-0.4,8.5-1.2,12.4-3c3.8-1.9,7.2-4.9,8.9-8.8"/>
	<path class="st2" d="M334.8,678.3c-5.6-10.9-8.2-15.3-12-24.3c-5.1-12.1-2.6-26.7,5.2-37.3c7.8-10.6,20.3-17.1,33.3-19"/>
	<path class="st2" d="M374.5,597.1c6-0.6,12,1.3,17.1,4.5c5.1,3.2,9.4,7.5,13.4,12c1.6,1.8,3.1,3.6,4.3,5.7c2.3,4,2.9,8.8,3.5,13.4"
		/>
	<path class="st2" d="M356.8,588.8c6.6,0.8,13.2,1.6,19.8,2.5c10.6,1.4,21.9,3.3,29.7,10.7"/>
	<path class="st2" d="M411.7,607.4c2,3.9,5.1,7,7.8,10.4c2.7,3.4,4.9,7.5,4.6,11.9"/>
	<path class="st2" d="M339.9,596.6c-9.8,8.3-20.1,17.2-23.9,29.5c-1.7,5.6-2,11.5-1.9,17.3c0.2,9.7,6.1,18.5,10.9,30.3"/>
	<path class="st2" d="M338.2,687.1c4.7,10.3,14.5,18.1,25.6,20.5c6.8,1.4,13.8,0.9,20.8,0.4"/>
	<path class="st2" d="M334.8,693.6c5.6,8.4,13.4,15.4,22.5,20"/>
	<path class="st2" d="M439.4,600.8c1.6,7.3,2.6,14.7,3,22.2"/>
	<path class="st2" d="M446.2,594.2c0.1,4.6,0.9,9.3,2.2,13.7"/>
	<path class="st2" d="M450.2,613.4c-0.3,1.5-0.2,3.1,0.3,4.6"/>
	<path class="st2" d="M456.7,604.8c-0.9,3.1-1.2,6.4-0.9,9.6"/>
	<path class="st2" d="M438.6,647.8c-7.3,3.8-13.5,9.6-17.7,16.6"/>
	<path class="st2" d="M444.2,654.9c-8.7,6.6-15.2,16-18.4,26.5"/>
	<path class="st2" d="M446.2,660.9c-3,3.1-5.6,6.7-7.6,10.6"/>
</g>
</svg>
