<?xml version="1.0" encoding="utf-8"?>
<!-- Generator: Adobe Illustrator 28.0.0, SVG Export Plug-In . SVG Version: 6.00 Build 0)  -->
<svg version="1.1" id="Face" xmlns="http://www.w3.org/2000/svg" xmlns:xlink="http://www.w3.org/1999/xlink" x="0px" y="0px"
	 viewBox="0 0 880 880" style="enable-background:new 0 0 880 880;" xml:space="preserve">
<style type="text/css">
	.st0{fill:#FFE5AB;}
	.st1{fill:#5B2951;}
	.st2{fill:#FF617F;}
	.st3{fill:url(#SVGID_1_);stroke:#083330;stroke-width:5;stroke-linecap:round;stroke-linejoin:round;stroke-miterlimit:10;}
	
		.st4{fill:url(#SVGID_00000006689547663668585320000014033302687384854925_);stroke:#083330;stroke-width:5;stroke-linecap:round;stroke-linejoin:round;stroke-miterlimit:10;}
	.st5{fill:none;stroke:#083330;stroke-width:2.7811;stroke-linecap:round;stroke-linejoin:round;stroke-miterlimit:10;}
	
		.st6{fill:url(#SVGID_00000000218722350806988880000011472134728040345776_);stroke:#083330;stroke-width:2.7811;stroke-linecap:round;stroke-linejoin:round;stroke-miterlimit:10;}
	
		.st7{fill:url(#SVGID_00000067195668453412736640000012294391760399579790_);stroke:#083330;stroke-width:2.7811;stroke-linecap:round;stroke-linejoin:round;stroke-miterlimit:10;}
	.st8{fill:#083330;}
	.st9{fill:#FFFFF5;}
	.st10{fill:#FFFFFF;stroke:#083330;stroke-width:2.7811;stroke-linecap:round;stroke-linejoin:round;stroke-miterlimit:10;}
	.st11{fill:#FF5956;}
	.st12{fill:none;stroke:#083330;stroke-width:5;stroke-linecap:round;stroke-linejoin:round;stroke-miterlimit:10;}
	.st13{fill:none;stroke:#083330;stroke-width:1.8541;stroke-linecap:round;stroke-linejoin:round;stroke-miterlimit:10;}
</style>
<g>
	<path class="st0" d="M417.8,624.2c8.8,3.6,5.5,20.9,3,25c-1.4,2.2-3.3,4-5.3,5.7c-2,1.7-4.2,3.4-6.5,4.8l1.3,0.4
		c-0.5,4.2-4.6,6.9-8.2,9c-3.3,1.9-6.6,3.9-10.3,5c-6.4,1.9-13.4,1.2-19.9-0.6s-12.7-4.3-19.2-6c-4.3-1.1-8.9-1.9-12.4-4.7
		c-3.6-2.9-5.4-7.7-5.8-12.3c-0.4-4.6-1.4-12,2.7-17.2l0.7,1.2c0.1-4-0.3-16.3,10.8-21.2L417.8,624.2z"/>
	<path class="st0" d="M533.9,602.9c1.8,0.1,6,2.2,6.7,3.9c0.7,1.7,0.9,2,0.8,3.8l0.8-0.2c4.1,3.1,5.6,8.9,4.6,13.9
		c-1,5.1-4.2,9.4-7.8,13.1c-7.2,7.2-16.8,12-26.9,13.5c-7.6,1.1-14,1.1-21.3-1.3l-0.8-0.3c-0.1-0.3-0.3-0.5-0.6-0.8
		c-1.8-2-10.7-0.2-8.2-7l0.6-1.1c-1-0.6-1.8-1.3-2.8-1.8c-8.4-4.1-17.7-19.9-7.3-28.3L533.9,602.9z"/>
	<path class="st1" d="M476.2,657c-7.5,0-15.4-1.4-22.3,0.5c-8.4,2.3-15.7,8.4-24.4,8.8c-3.8,0.2-7.7-0.7-11.2,0.6
		c-1.6,0.6-3,1.6-4.3,2.8c-3.3,3-6,7.1-5.6,11.5c0.4,4.6,4.2,8.2,8.1,10.5c5.3,3.1,11.4,4.6,17.4,5.8c8.3,1.7,16.8,2.8,25.1,1
		s16.2-7,19.2-14.9c1.9-5,1.7-10.5,0.8-15.8"/>
	<path class="st2" d="M453.3,674.7c0,0,11.6,8.4,9.8,16.9c-1.8,8.5-2,6.9-2,6.9l-13.3,1.1l-27.7-5.4l-11.2-9.2l0.3-9.2l4.8-6
		L453.3,674.7z"/>
	<linearGradient id="SVGID_1_" gradientUnits="userSpaceOnUse" x1="381.3319" y1="656.9614" x2="381.3319" y2="605.195">
		<stop  offset="0" style="stop-color:#FFFFFF"/>
		<stop  offset="0.5071" style="stop-color:#FFFFFC"/>
		<stop  offset="0.8095" style="stop-color:#FFFFF4"/>
		<stop  offset="1" style="stop-color:#FFFFEA"/>
	</linearGradient>
	<path class="st3" d="M359,604.5c-4.8,1.8-8.5,6.1-10.5,10.8c-2,4.8-2.5,10-2.5,15.2c0,3.1,0.2,6.3,1.2,9.3
		c1.8,5.4,6.3,9.7,11.5,12.3c5.1,2.6,10.9,3.6,16.6,4c7.8,0.6,15.7,0.3,23-2.4c7.3-2.7,13.8-8.2,16.6-15.4c1.3-3.4,1.7-7.1,1.7-10.8
		c0-2.4-0.2-4.9-1-7.1c-2.5-6.6-9.7-10-16.2-12.7"/>
	
		<linearGradient id="SVGID_00000173876618480067633670000008482893558770100123_" gradientUnits="userSpaceOnUse" x1="530.1281" y1="619.4712" x2="479.4402" y2="596.4639">
		<stop  offset="0" style="stop-color:#FFFFFF"/>
		<stop  offset="0.5149" style="stop-color:#FFFFFD"/>
		<stop  offset="0.81" style="stop-color:#FFFFF4"/>
		<stop  offset="1" style="stop-color:#FFFFEA"/>
	</linearGradient>
	
		<path style="fill:url(#SVGID_00000173876618480067633670000008482893558770100123_);stroke:#083330;stroke-width:5;stroke-linecap:round;stroke-linejoin:round;stroke-miterlimit:10;" d="
		M475.8,603.9c-4.4,4.9-5.1,12.5-2.3,18.5c2.8,6,8.6,10.2,14.9,12.1c6.3,1.9,13.1,1.5,19.5,0c9.5-2.3,18.9-7.5,23.5-16.2
		c2.7-5.1,3.7-10.9,4.1-16.6c0.2-2.9,0.1-5.8-0.8-8.6c-2.2-7.4-9.6-10.6-14.9-12c-13.8-3.5-23.7,0.1-32.1,3.5"/>
	<path class="st5" d="M498.6,641.1c5.7,2,13.1-1.3,18.8-3.1c3.7-1.2,7.7-1.5,11.2-3.1c8.1-3.8,11.8-13.5,12.4-22.4
		c0.1-1.8,0.1-3.6-0.6-5.3s-2.2-3.1-4-3.1"/>
	<path class="st5" d="M467.2,621.6c1.2,7.4,5.7,13,11.7,17.3c6,4.3,16.4,7.9,24.7,7.1"/>
	<path class="st5" d="M490.6,649.9c7.2,2.5,13.7,2.4,21.3,1.3c10.1-1.5,19.6-6.3,26.9-13.5c3.7-3.6,6.8-8,7.8-13.1
		c1-5.1-0.5-10.8-4.6-13.9"/>
	<path class="st5" d="M339.9,622.6c-3.2,8.2-2.5,17.2-1.1,25.1c0.3,2,0.7,4.1,1.8,5.8c1.4,2.2,3.6,3.6,6,4.7
		c3.6,1.7,7.4,2.7,11.3,3.1"/>
	<path class="st5" d="M349.1,653.6c3.9,5.1,9.7,8.6,16,9.5c4.2,0.7,8.5,0.2,12.8,0.4c6.6,0.2,13.1,1.9,19.6,0.8
		c6.7-1.1,12.6-5.1,17.7-9.5c2-1.7,3.9-3.4,5.3-5.7c2.5-4.1,2.7-9.2,2.9-14"/>
	<path class="st5" d="M336.9,633.4c-4,5.1-3,12.5-2.7,17.2c0.4,4.6,2.2,9.4,5.8,12.3c3.5,2.8,8.1,3.6,12.4,4.7
		c6.5,1.7,12.7,4.3,19.2,6s13.5,2.5,19.9,0.6c3.7-1.1,7-3.1,10.3-5c3.6-2.1,7.7-4.8,8.2-9"/>
	<path class="st5" d="M401.8,685.5c1.8,5.7,6.4,10.1,11.6,13c5.2,2.9,11.1,4.3,16.9,5.5c11.2,2.4,22.9,4.1,34.1,1.8
		c3.8-0.7,7.5-2,10.5-4.4c5.5-4.5,7.2-12,8.6-18.9"/>
	<path class="st5" d="M434.2,709.3c8.3,2.7,17.1,2.8,25.8,2.1c5.3-0.4,10.9-1.3,15.2-4.4"/>
	
		<linearGradient id="SVGID_00000182528796888162676760000002103906199622259896_" gradientUnits="userSpaceOnUse" x1="366.7702" y1="647.4774" x2="398.585" y2="630.7612">
		<stop  offset="7.971301e-02" style="stop-color:#93278F"/>
		<stop  offset="0.4788" style="stop-color:#C8A5DB"/>
		<stop  offset="0.9116" style="stop-color:#FFFFEA"/>
	</linearGradient>
	
		<path style="fill:url(#SVGID_00000182528796888162676760000002103906199622259896_);stroke:#083330;stroke-width:2.7811;stroke-linecap:round;stroke-linejoin:round;stroke-miterlimit:10;" d="
		M370.6,627.6c-2,2.2-3.2,5-4.1,7.9c-0.7,2.4-1.2,5-0.7,7.5c0.9,5,5.2,8.7,9.9,10.4c5.1,1.9,11,1.7,15.8-0.7
		c4.8-2.4,8.5-7.3,9.1-12.7s-2-11.1-6.7-13.9c-4.3-2.5-12.2-3-14.3-2.5C377.5,624.2,372.6,625.4,370.6,627.6z"/>
	
		<linearGradient id="SVGID_00000059269489074544012120000015894897327523863717_" gradientUnits="userSpaceOnUse" x1="493.0263" y1="622.8905" x2="518.3703" y2="604.6464">
		<stop  offset="7.971301e-02" style="stop-color:#93278F"/>
		<stop  offset="0.4788" style="stop-color:#C8A5DB"/>
		<stop  offset="0.9116" style="stop-color:#FFFFEA"/>
	</linearGradient>
	
		<path style="fill:url(#SVGID_00000059269489074544012120000015894897327523863717_);stroke:#083330;stroke-width:2.7811;stroke-linecap:round;stroke-linejoin:round;stroke-miterlimit:10;" d="
		M517.9,604.1c-4.5-3.6-10.6-5.4-16.2-4.1c-5.6,1.3-10.5,5.8-11.7,11.5c-1.2,5.7,1.7,12.1,7,14.4c2.4,1.1,5.1,1.3,7.8,1.4
		c2.3,0.1,4.7,0,6.9-0.6c6.6-1.8,9.8-8.3,9.8-13.2C521.4,609.4,519.5,605.5,517.9,604.1z"/>
	<path class="st8" d="M378.7,635.4c-1.2,0.4-2,1.7-2.1,2.9c-0.1,1.3,0.2,2.5,0.6,3.8c0.1,0.5,0.3,0.9,0.6,1.2
		c0.3,0.3,0.7,0.4,1.1,0.5c1.2,0.3,2.4,0.6,3.6,0.3c2.1-0.4,3.8-2.5,3.7-4.6c-0.1-2.2-2-4.1-4.1-4.3
		C382.2,635.2,379.9,635,378.7,635.4z"/>
	<path class="st8" d="M508.3,611.9c-0.9-1.6-2.3-2.7-3.7-2.3c-1.4,0.5-2.2,1.9-2.6,3.3c-0.5,1.7-0.4,3.7,0.9,4.9
		c1,0.9,2.5,1.1,3.9,1.1c0.6,0,1.3,0.1,1.7-0.4c0.3-0.3,0.3-0.7,0.4-1.1C509.6,615,508.3,611.9,508.3,611.9z"/>
	<path class="st9" d="M511.2,608.7c-2.2-0.1-4.5,0.8-6.1,2.3c-0.3,0.3-0.6,0.6-0.7,1.1c-0.2,0.8,0.3,1.6,1,1.9s1.5,0.4,2.3,0.3
		c1.5-0.1,2.9-0.5,4.3-1c0.7-0.3,1.5-0.6,2-1.2c0.5-0.6,0.8-1.5,0.5-2.2c-0.5-1.1-2-1.2-3.3-1.2"/>
	<path class="st9" d="M390.1,632.7c-2.7-0.2-5.6-0.2-7.7,1.4c-1,0.7-1.8,1.9-1.5,3c0.2,0.8,0.8,1.5,1.5,1.9s1.6,0.6,2.4,0.7
		c1,0.2,2,0.4,3.1,0.5c1.4,0.1,2.9-0.2,3.7-1.4c0.3-0.4,0.4-1,0.5-1.5c0.2-1,0.2-2-0.1-2.9c-0.3-0.9-1.2-1.7-2.2-1.7"/>
	<path class="st10" d="M412.1,672c0,0-0.1,4.4,2.4,4.4c2.6,0,8.6-4.2,8.6-4.2l3-5.8l-7.9,0.5L412.1,672z"/>
	<path class="st11" d="M425.5,666.3c1.3,0.1,2.7,0.1,4,0.1c8.7-0.4,16-6.5,24.4-8.8c6.9-1.9,14.8-0.5,22.3-0.5l2,5.6l-29.5,11.1
		l-19.7-1.8L425.5,666.3z"/>
	<path class="st10" d="M424.1,676.4c2.3,0.9,9.8,0.7,12.1-0.8c2.3-1.5,2.3-7.7-1.5-8.5s-9.7-2.6-11.2,2.4
		C422.1,674.5,424.1,676.4,424.1,676.4z"/>
	<path class="st10" d="M481.2,663.6c0,0,5.5,1.8,6.7-0.7c1.2-2.4-0.3-6.3-0.3-6.3l-6.1,1.1L481.2,663.6z"/>
	<path class="st10" d="M476.8,658.3c0,0-5,9,0.7,9.7c5.7,0.7,6.2-3.4,6.1-5.8c-0.1-2.4-1.9-4.6-1.9-4.6L476.8,658.3z"/>
	<path class="st10" d="M465.9,660c-2.6,0.5-5.4,4.6-3.8,9.7c1.6,5.1,5.3,4.2,7.7,2.4c2.4-1.8,2-0.5,5.4-1.3
		C478.6,670,474.4,658.5,465.9,660z"/>
	<path class="st10" d="M455.6,677.2c3.4-0.1,8.6-1.2,8.9-5.1c0.3-3.9-4.2-7.8-7.1-8.1c-3-0.3-7-0.1-8.1,5.5
		C448.1,675.2,452.5,677.4,455.6,677.2z"/>
	<path class="st10" d="M437.4,679.3c1.3,1.1,1.5,0.7,4.6,1.1c3.1,0.4,7.7-0.1,8.9-2.4c1.2-2.3-1.1-5-1.1-6.1c0-1.1,1.3-6.1-3.5-5
		c-4.9,1.1-9.7,2.7-9.6,6.9C436.8,677.9,437.4,679.3,437.4,679.3z"/>
	<path class="st12" d="M480,643.4c-2.6,6.7,6.3,4.9,8.2,7c2.5,2.8-0.4,5-2.5,5.6c-9.8,2.8-21.8-1.1-31.7,1.6
		c-8.4,2.3-15.7,8.4-24.4,8.8c-3.8,0.2-7.7-0.7-11.2,0.6c-1.6,0.6-3,1.6-4.3,2.8c-3.3,3-6,7.1-5.6,11.5c0.4,4.6,4.2,8.2,8.1,10.5
		c5.3,3.1,11.4,4.6,17.4,5.8c8.3,1.7,16.8,2.8,25.1,1s16.2-7,19.2-14.9c1.9-5,2.1-8.9,1.3-14.2"/>
	<path class="st13" d="M456.5,677.6c3.2,2.7,7.9,7.6,6.6,14c-1.8,8.5-1.8,6.2-1.8,6.2"/>
</g>
</svg>
