<?xml version="1.0" encoding="utf-8"?>
<!-- Generator: Adobe Illustrator 28.0.0, SVG Export Plug-In . SVG Version: 6.00 Build 0)  -->
<svg version="1.1" id="Face" xmlns="http://www.w3.org/2000/svg" xmlns:xlink="http://www.w3.org/1999/xlink" x="0px" y="0px"
	 viewBox="0 0 880 880" style="enable-background:new 0 0 880 880;" xml:space="preserve">
<style type="text/css">
	.st0{fill:#FFE5AB;}
	.st1{fill:#FFFFFF;stroke:#083330;stroke-width:9.2705;stroke-linecap:round;stroke-miterlimit:10;}
	.st2{fill:#083330;}
	.st3{fill:#FFFFFF;}
	.st4{fill:#FFFFEA;}
	.st5{fill:none;stroke:#083330;stroke-width:9.2705;stroke-linecap:round;stroke-miterlimit:10;}
	.st6{fill:none;stroke:#083330;stroke-width:9.2705;stroke-linecap:round;stroke-linejoin:round;stroke-miterlimit:10;}
	.st7{fill:#C5F9D0;}
	.st8{fill:#FBCDB8;}
</style>
<g>
	<g>
		<circle class="st0" cx="362.6" cy="624.4" r="34.6"/>
		<circle class="st1" cx="373.2" cy="618.5" r="34.6"/>
		<circle class="st2" cx="373.2" cy="618.5" r="20.8"/>
		<ellipse class="st3" cx="380.3" cy="609.1" rx="14.9" ry="15.2"/>
		<ellipse class="st3" cx="360.4" cy="619.7" rx="4.1" ry="4.2"/>
	</g>
	<g>
		<circle class="st0" cx="519.2" cy="623.8" r="34.6"/>
		<circle class="st1" cx="509.6" cy="618.5" r="34.6"/>
		<circle class="st2" cx="509.6" cy="618.5" r="20.8"/>
		<ellipse class="st3" cx="516.7" cy="609.1" rx="14.9" ry="15.2"/>
		<ellipse class="st3" cx="496.8" cy="619.7" rx="4.1" ry="4.2"/>
	</g>
	<ellipse class="st4" cx="368.9" cy="657.3" rx="37.4" ry="21.2"/>
	<path class="st5" d="M337.9,647.1c3.9-4.1,9.2-6.6,14.6-8.2c16.3-5,35.1-2.9,48.9,7.2"/>
	<ellipse class="st4" cx="513.4" cy="657.3" rx="37.4" ry="21.2"/>
	<path class="st5" d="M544.4,647.1c-3.9-4.1-9.2-6.6-14.6-8.2c-16.3-5-35.1-2.9-48.9,7.2"/>
	<path class="st6" d="M403.4,659.2c-1.8,8.8-9.6,16.1-18.6,17.2"/>
	<path class="st6" d="M477.7,659.2c1.8,8.8,9.6,16.1,18.6,17.2"/>
	<path class="st2" d="M402.8,658.4c0,0,43.4,12.6,75.8,0.5c6.6,9.6,6.6,9.6,6.6,9.6s-6.6,29.8-42.9,29.3c-36.4-0.5-47-27.8-47-27.8
		L402.8,658.4z"/>
	<path class="st3" d="M427.3,669.7c0,0,12.3,2,29,0.3c-0.5,10.6,0,15.7-12.6,15.7C431.1,685.7,427.3,684.8,427.3,669.7z"/>
	<path class="st7" d="M456,675.3c0.1-1.6,0.2-3.4,0.3-5.3c-16.7,1.7-29-0.3-29-0.3c0,1.7,0.1,3.2,0.2,4.6
		C437,676.1,446.5,676.3,456,675.3z"/>
	<path class="st0" d="M424.5,701.8c0,0,14.1,6.6,36.4,0.4C453.3,716.5,424.5,711.4,424.5,701.8z"/>
	<circle class="st8" cx="509.3" cy="650.8" r="4"/>
	<circle class="st8" cx="528" cy="657.9" r="4"/>
	<circle class="st8" cx="514.8" cy="665.4" r="4"/>
	<circle class="st8" cx="371.9" cy="650.8" r="4"/>
	<circle class="st8" cx="353.2" cy="657.9" r="4"/>
	<circle class="st8" cx="366.3" cy="665.4" r="4"/>
	<path class="st8" d="M465.2,642.2c0,2.5-10,9.6-22.2,9.6s-22.2-7.1-22.2-9.6s10,1.5,22.2,1.5S465.2,639.7,465.2,642.2z"/>
</g>
</svg>
