<?xml version="1.0" encoding="utf-8"?>
<!-- Generator: Adobe Illustrator 28.0.0, SVG Export Plug-In . SVG Version: 6.00 Build 0)  -->
<svg version="1.1" id="Face" xmlns="http://www.w3.org/2000/svg" xmlns:xlink="http://www.w3.org/1999/xlink" x="0px" y="0px"
	 viewBox="0 0 880 880" style="enable-background:new 0 0 880 880;" xml:space="preserve">
<style type="text/css">
	.st0{fill:url(#SVGID_1_);}
	.st1{fill:url(#SVGID_00000140704773221294123510000015045746575051508868_);}
	.st2{fill:#995F37;}
	.st3{fill:#083330;}
	.st4{fill:#FFFFEA;}
</style>
<g>
	<radialGradient id="SVGID_1_" cx="338.1057" cy="647.4304" r="29.2973" gradientUnits="userSpaceOnUse">
		<stop  offset="0" style="stop-color:#FF5956"/>
		<stop  offset="0.1458" style="stop-color:#FF5D5A;stop-opacity:0.8542"/>
		<stop  offset="0.3019" style="stop-color:#FF6A65;stop-opacity:0.6981"/>
		<stop  offset="0.4627" style="stop-color:#FF8078;stop-opacity:0.5373"/>
		<stop  offset="0.6267" style="stop-color:#FF9E93;stop-opacity:0.3733"/>
		<stop  offset="0.7934" style="stop-color:#FFC4B5;stop-opacity:0.2066"/>
		<stop  offset="0.9598" style="stop-color:#FFF3DF;stop-opacity:4.015309e-02"/>
		<stop  offset="1" style="stop-color:#FFFFEA;stop-opacity:0"/>
	</radialGradient>
	<circle class="st0" cx="338.1" cy="647.4" r="29.3"/>
	
		<radialGradient id="SVGID_00000067944898859616510060000001459447874387082129_" cx="543.8602" cy="647.4304" r="29.2973" gradientUnits="userSpaceOnUse">
		<stop  offset="0" style="stop-color:#FF5956"/>
		<stop  offset="0.1458" style="stop-color:#FF5D5A;stop-opacity:0.8542"/>
		<stop  offset="0.3019" style="stop-color:#FF6A65;stop-opacity:0.6981"/>
		<stop  offset="0.4627" style="stop-color:#FF8078;stop-opacity:0.5373"/>
		<stop  offset="0.6267" style="stop-color:#FF9E93;stop-opacity:0.3733"/>
		<stop  offset="0.7934" style="stop-color:#FFC4B5;stop-opacity:0.2066"/>
		<stop  offset="0.9598" style="stop-color:#FFF3DF;stop-opacity:4.015309e-02"/>
		<stop  offset="1" style="stop-color:#FFFFEA;stop-opacity:0"/>
	</radialGradient>
	<circle style="fill:url(#SVGID_00000067944898859616510060000001459447874387082129_);" cx="543.9" cy="647.4" r="29.3"/>
	<g>
		<path class="st2" d="M481.6,623.4c-1.6,0-3.2-0.7-4.2-1.9c-5.3,5.1-13.4-2.8-7.9-8c2.3-1.7,1.2-5.5,4.6-6.7
			c14.2-6.6,27.4-16.5,42.9-20.3c2.1-0.6,4.2,0.1,5.6,1.6c3.2-1.5,7.2-0.7,8.5,2.9c0.7,2,0.2,4.2-1.2,5.7c1,2,0.8,4.4-0.6,6.1
			c-4.1,2.7-4.6,7-8.7,9.2C507.2,615.7,495,623,481.6,623.4z"/>
	</g>
	<g>
		<path class="st2" d="M414.2,620.9c-0.7,0.1-8.6-2.3-9.4-2.4c-11.7,4.4-38.3-7.3-50.8-11.4c-2.4-1-3.5-3.7-2.5-6
			c1.2-3.2,4.7-2.4,7-4.3c-0.2-0.7-0.3-1.4-0.1-2.2c-6.4-0.6-5-10.6,1.3-9.2c6.7,2.4,52.6,12.3,44.7,21.3
			c4.6,3.2,15.9,3.7,14.3,11.2C417.8,619.7,416.1,620.9,414.2,620.9z"/>
	</g>
	<g>
		<path class="st2" d="M441.9,704.9c-3.9,0.1-5.5-3.7-6.2-7c-6.9,8-12.7-1.8-11.1-9.1c-4.6,4.3-15.1,14.9-18.7,4.4
			c-4.4,3.1-12.8,9.5-16,1.7c-3.9,2.1-9.6,1.2-10-3.9c-7.7,6.4-15.6-0.2-10.9-9c-7.4,2.7-27.2,0.1-14.4-9.9c19.4-6.2,28-12.5,40-22
			c6.9-2.7,14.1,0.1,20.2,3.3c4.8-1.9,16.4-0.7,14.5,6.9c1.2-4.9,7.8-11.5,12.1-4.9c2.2-1.3,5.4-0.8,7,1.2c1.9-1.7,5.2-1.8,7.2-0.1
			c5.3-4.8,10.1,1.7,11.1,6.8c-3.4-9.4,7-17.8,11.7-6.6c3.7-3.5,7.7-13.6,14.1-7.6c6.9-7.7,12.1,3.4,15,10.2
			c5.3,7,13.8,15.7,20.9,19.6c9.8,13-8.3,12.1-15.3,2.5c1.9,12.2-9.4,14.1-14.9,4c0.8,9.8-9.2,10.6-16.1,5.1
			c-2.5,7.3-12.5,7.5-16,2.6c-1.7,8.6-10.3,11.6-14.7,3C448.9,699.3,446.5,704.7,441.9,704.9z M483.9,677.8
			C483.9,677.8,483.9,677.8,483.9,677.8C483.9,677.8,483.9,677.8,483.9,677.8C483.9,677.7,483.9,677.7,483.9,677.8z"/>
	</g>
	<ellipse class="st3" cx="387.3" cy="631.9" rx="7.2" ry="9.9"/>
	<ellipse class="st3" cx="502.8" cy="631.9" rx="7.2" ry="9.9"/>
	<circle class="st4" cx="391.8" cy="626.3" r="3.4"/>
	<circle class="st4" cx="506.5" cy="626.3" r="3.4"/>
</g>
</svg>
