<?xml version="1.0" encoding="utf-8"?>
<!-- Generator: Adobe Illustrator 28.0.0, SVG Export Plug-In . SVG Version: 6.00 Build 0)  -->
<svg version="1.1" id="Face" xmlns="http://www.w3.org/2000/svg" xmlns:xlink="http://www.w3.org/1999/xlink" x="0px" y="0px"
	 viewBox="0 0 880 880" style="enable-background:new 0 0 880 880;" xml:space="preserve">
<style type="text/css">
	.st0{fill:#FFFFFF;}
	.st1{fill:#059CA0;}
	.st2{fill:#083330;}
	.st3{fill:none;stroke:#083330;stroke-width:7.4164;stroke-miterlimit:10;}
	.st4{fill:none;stroke:#083330;stroke-width:7.4164;stroke-linecap:round;stroke-miterlimit:10;}
</style>
<g>
	<path class="st0" d="M527.6,647c-4,2-8.9,1.6-13.2,0.1c-4.3-1.5-8.1-4-11.9-6.3c-5-3-10.3-5.7-16-6.5c-3.5-0.5-7.2-0.2-10.7-0.6
		c-3.5-0.4-7.2-1.8-9.3-4.7c-1.7-2.5-7.7-16.8,4.6-21.5c7.5-3.2,20.9-4.8,33.5-1.7c15.3,3.8,28.8,13.6,30.4,25.2
		C535.8,637.2,533.3,644.2,527.6,647C527.6,647,527.6,647,527.6,647z"/>
	<path class="st0" d="M388.5,636.1c2.8-0.3,5.6-0.7,8.2-1.5c5.3-1.5,10.5-4.8,12-10.1c1.8-6.4-2.7-13.2-8.7-16.1
		c-6-2.9-12.7-4-19.3-3.4c-7.6,0.8-13.1,2.3-19.5,5.9c-2.2,1.5-4.3,2.8-4.3,2.8c-7.4,4.9-13,12.5-15.4,21c-1.3,4.6-1.2,10.7,3,13.1
		c2.6,1.5,5.9,1,8.7,0.1c9.4-2.7,17.7-8.5,27.3-10.7C383.2,636.7,385.8,636.4,388.5,636.1z"/>
	<g>
		<path class="st1" d="M377.2,635.5c13-3.7,21.5-13.6,19.1-22.2c-0.5-1.6-1.2-3-2.3-4.3c-4-1-8.1-1.3-12.2-0.9c-0.1,0-0.2,0-0.3,0
			c1,1,1.7,2.2,2.1,3.6c1.5,5.4-2.6,11.3-9.3,13.1c-6.7,1.9-13.3-0.9-14.8-6.3c-0.2-0.8-0.3-1.7-0.3-2.5c-0.7,0.5-1.2,0.8-1.2,0.8
			c-3.4,2.2-6.4,5-8.9,8.2c0.1,0.5,0.2,1,0.3,1.5C351.7,635.1,364.2,639.1,377.2,635.5z"/>
		<path class="st2" d="M359.1,616.1c0,0.8,0.1,1.7,0.3,2.5c1.5,5.4,8.2,8.2,14.8,6.3c6.7-1.9,10.8-7.8,9.3-13.1
			c-0.4-1.4-1.1-2.6-2.1-3.6c-7.5,0.8-12.9,2.4-19.2,5.8C361,614.8,359.9,615.5,359.1,616.1z"/>
	</g>
	<path class="st3" d="M388.5,636.1c2.8-0.3,5.6-0.7,8.2-1.5c5.3-1.5,10.5-4.8,12-10.1c1.8-6.4-2.7-13.2-8.7-16.1
		c-6-2.9-12.7-4-19.3-3.4c-7.6,0.8-13.1,2.3-19.5,5.9c-2.2,1.5-4.3,2.8-4.3,2.8c-7.4,4.9-13,12.5-15.4,21c-1.3,4.6-1.2,10.7,3,13.1
		c2.6,1.5,5.9,1,8.7,0.1c9.4-2.7,17.7-8.5,27.3-10.7C383.2,636.7,385.8,636.4,388.5,636.1z"/>
	<g>
		<path class="st1" d="M495.4,635.5c12.8,3.4,25.2-1.8,27.9-11.7c0.7-2.7,0.6-5.4-0.1-8c-3-2.2-6.4-4.1-10.1-5.6
			c0.9,2.1,1.2,4.5,0.6,6.8c-1.6,6-8.4,9.4-15.2,7.6c-6.8-1.8-10.9-8.2-9.3-14.2c0.5-1.9,1.6-3.6,3-4.9c-4.5-0.1-8.8,0.2-12.6,0.9
			c-1.1,1.5-1.9,3.2-2.4,5C474.4,621.3,482.6,632.1,495.4,635.5z"/>
		<path class="st2" d="M492.1,605.6c-1.4,1.3-2.5,3-3,4.9c-1.6,6,2.6,12.4,9.3,14.2c6.8,1.8,13.5-1.6,15.2-7.6
			c0.6-2.3,0.4-4.7-0.6-6.8c-2.8-1.2-5.8-2.2-8.9-3C500.2,606.2,496.1,605.7,492.1,605.6z"/>
	</g>
	<polygon class="st2" points="346.1,669.1 366.9,680.2 407.7,683.2 496.1,671.1 455,661 413.8,655.9 372.9,660 	"/>
	<path class="st0" d="M368.1,662.2c0.3,3.3,0.5,5.9,2.4,7c1.9,1.2,4.3,1.2,6.5,1.2c3,0,6.3-0.3,8.5-2.3c2.5-2.4,2.6-6.3,2.5-9.8"/>
	<polygon class="st0" points="528.3,620 501.1,615.1 524.3,629.5 	"/>
	<path class="st3" d="M527.6,647c-4,2-8.9,1.6-13.2,0.1c-4.3-1.5-8.1-4-11.9-6.3c-5-3-10.3-5.7-16-6.5c-3.5-0.5-7.2-0.2-10.7-0.6
		c-3.5-0.4-7.2-1.8-9.3-4.7c-1.7-2.5-7.7-16.8,4.6-21.5c7.5-3.2,20.9-4.8,33.5-1.7c15.3,3.8,28.8,13.6,30.4,25.2
		C535.8,637.2,533.3,644.2,527.6,647C527.6,647,527.6,647,527.6,647z"/>
	<path class="st4" d="M305.9,639.3c3.4,1.7,7.2,2.6,11,2.8c4.2,0.2,8.8-0.7,11.4-3.9"/>
	<path class="st4" d="M550.3,639.9c5.8,7.2,16.6,10,25.1,6.3"/>
	<path class="st0" d="M391,658.6c0.5,4,4.5,6.6,8.4,7.3c3.9,0.7,8,0.1,11.9,0.4c2.5,0.2,5.2,0.7,7.2-0.7c2-1.4,2.5-4,2.9-6.3"/>
	<path class="st0" d="M426.6,658.2c0.6,1.8,1.3,3.7,1.9,5.5c0.3,0.8,0.5,1.6,1.1,2.1c0.7,0.6,1.6,0.9,2.5,1.1c4.3,1,8.6,1.7,13,2.1
		c1.6,0.2,3.5,0.2,4.7-1c1.3-1.3,2.7-4.8,3.2-7.1"/>
	<path class="st0" d="M346.9,671.7c2.9,1.2,6,2.2,9,3.1c0.6,0.2,1.2,0.3,1.9,0.3c0.7,0,1.4-0.2,2.1-0.4c1.3-0.4,2.6-0.8,3.8-1.2
		c0.5-0.1,0.9-0.3,1.3-0.7c0.5-0.6,0.4-1.5,0.2-2.3c-0.5-2.1-1-4.1-1.5-6.2c-0.1-0.2-0.1-0.4-0.3-0.6c-0.2-0.2-0.5-0.2-0.8-0.2
		c-4.4-0.1-11.6,2.9-15.9,3.7"/>
	<path class="st0" d="M458.7,661c-0.8,1.9-3.3,6.1,0,9c0.7,0.6,1.6,0.8,2.5,1c4.9,0.9,9.8,1.8,14.7,2.8c1.2,0.2,2.4,0.4,3.5,0.3
		c3.3-0.3,5.8-3.1,8.9-4.5"/>
	<path class="st4" d="M318.7,641.9c-2.3,10.9,5.1,23,15.8,25.9c10.2,2.8,20.7-1.9,30.7-5.3c26.8-8.9,55.9-8.4,83.7-3.4
		c27.4,4.9,54.5,14.1,82.3,12.8c6.8-0.3,13.8-1.4,19.2-5.4c5.7-4.2,8.8-11.7,7.8-18.7"/>
	<path class="st4" d="M342.1,669.2c8,4.3,16.1,8.6,24.9,11c8.8,2.4,18.1,2.8,27.2,2.7c41.2-0.7,81.8-12.8,122.9-10.9"/>
	<path class="st4" d="M354.4,691.6c0,0,13.5,11.4,62.3,5.4c0,0,35.7-5.4,51.9-6.4"/>
	<polygon class="st0" points="398.9,615.1 371.3,615.8 396.9,625.2 	"/>
</g>
</svg>
