<?xml version="1.0" encoding="utf-8"?>
<!-- Generator: Adobe Illustrator 28.0.0, SVG Export Plug-In . SVG Version: 6.00 Build 0)  -->
<svg version="1.1" id="Face" xmlns="http://www.w3.org/2000/svg" xmlns:xlink="http://www.w3.org/1999/xlink" x="0px" y="0px"
	 viewBox="0 0 880 880" style="enable-background:new 0 0 880 880;" xml:space="preserve">
<style type="text/css">
	.st0{fill:#FF905F;}
	.st1{fill:#FFFFFF;stroke:#083330;stroke-width:4.0964;stroke-miterlimit:10;}
	.st2{fill:#083330;}
	.st3{fill:none;stroke:#083330;stroke-width:3.0723;stroke-linecap:round;stroke-linejoin:round;stroke-miterlimit:10;}
	.st4{fill:#FFFFFF;}
	.st5{fill:#FFFFFF;stroke:#083330;stroke-width:3.0723;stroke-linecap:round;stroke-linejoin:round;stroke-miterlimit:10;}
	.st6{fill:none;stroke:#083330;stroke-width:4.0964;stroke-miterlimit:10;}
</style>
<g>
	<path class="st0" d="M371,674.5c0,6.2,17.5-0.9,25.9,5.8c8.4,6.7,21.9,13,37.6,16.4c12.3,2.6,41.7,6,55.1-14.7
		c13.4-20.8,34.2-16.2,33.1-25.5c-1.1-9.3-11.5,0.7-24.7-7.4c-13.2-8.2-25.7-20.6-45.2-18.2c-18.6,2.3-32,5.6-45.6,19.5
		C392.8,665,371,663.9,371,674.5z"/>
	<path class="st1" d="M386.6,602.2c-7.9,2.3-13.8,13-7.1,20.5c6.7,7.4,22.3,3.3,24.9-6.3C407.1,606.6,401.9,597.7,386.6,602.2z"/>
	<path class="st1" d="M492.8,586.4c-8.2,1-16.9,8.4-12.1,20.3c4.8,11.9,21.3,7.6,25.5,2.9C511.1,604,508.4,584.5,492.8,586.4z"/>
	<ellipse transform="matrix(0.5 -0.866 0.866 0.5 -337.3851 641.0517)" class="st2" cx="386.5" cy="612.7" rx="5.2" ry="3.7"/>
	
		<ellipse transform="matrix(0.9818 -0.1897 0.1897 0.9818 -104.4958 105.3449)" class="st2" cx="498.1" cy="598.5" rx="3.9" ry="5.4"/>
	<path class="st3" d="M364.5,668.3c-1.5,2.1-2.2,4.9-1.8,7.5c0.4,2.6,1.8,5.1,3.9,6.7"/>
	<path class="st3" d="M358,671.8c-1.5,3.5-1.1,7.7,1,10.8"/>
	<path class="st3" d="M529,653.3c0.1,2.5,0.1,5-0.6,7.4c-0.7,2.4-2.1,4.7-4.4,5.8c-0.7,0.3-1.5,0.6-2.2,1c-1.1,0.7-1.7,1.8-2.3,2.9"
		/>
	<path class="st3" d="M409.8,697.8c7.3,5.1,22.9,15,51.1,11.6c17.2-2,28-9.5,32.2-15.7"/>
	<path class="st3" d="M466.3,621.7c6.2,1.1,11.8,4.5,17,8.2c5.1,3.7,10.1,7.8,15.8,10.5"/>
	<path class="st3" d="M387.4,655.2c10.1-4.5,16.4-14.6,25.6-20.7"/>
	<path class="st3" d="M367.1,612.3c-1.7,5.1-0.3,11.1,3.2,15.2s8.7,6.7,14,7.4c5.4,0.7,10.9-0.4,15.9-2.5"/>
	<path class="st3" d="M361,622.5c1,4.8,3.5,10,14.3,16.4"/>
	<path class="st3" d="M380.9,640.1c1.7,0.3,3.9,0.5,6.1,0.5"/>
	<path class="st3" d="M360.6,634.8c5,7,15,12.1,23.7,11.5"/>
	<path class="st3" d="M494.7,622c8.6,0.4,17.2-4.5,21.1-12.1"/>
	<path class="st3" d="M513.9,590.9c1.5,3.3,2.5,6.9,2.8,10.5"/>
	<path class="st3" d="M497.5,629.5c6.5-1.1,12.9-3.7,17.6-8.3s8.3-10.8,8-17.8"/>
	<path class="st3" d="M469,601.7c2,7.8,8.1,13.9,14.6,18.6"/>
	<path class="st3" d="M410.1,623c1.1-1.6,2.1-3.2,2.8-5c1.3-3.4,1.1-7.2,0.9-10.8"/>
	<path class="st3" d="M437.2,601.5c0.6,3,1.1,6,1.7,9.1"/>
	<path class="st3" d="M443.4,595.7c-0.2,3.4-0.2,6.8,0.2,10.2"/>
	<path class="st3" d="M444.6,611.4c-0.1,0.6-0.1,1.1,0.1,1.7"/>
	<path class="st3" d="M449.5,600.2c0.1,3.3,0.2,6.7,0.2,10"/>
	<path class="st4" d="M400.3,682.3c-0.1,0-0.1,0-0.2,0c-0.2,0-0.3-0.1-0.4-0.2c0,0,0-0.1-0.1-0.1l-13.6-5.5c0,0-0.1,0-0.1,0
		c-0.2,0-0.4-0.1-0.5-0.3c-0.1-0.2-26,4.9-8.2-8.6c0.2-0.2-0.5-0.3-0.4-0.6c0-0.3,0.3-0.4,0.5-0.4c0.1,0,3.2,0.4,5.7,2.4l1.3,1.1
		l0.3-1.7c0.3-1.4,0.8-2.4,1.6-3.2c1.1-1.1,2.6-1.6,4.6-1.6c1.3,0,2.7,0.2,4.3,0.7l0.9,0.2l0.3-0.9c1.8-4.6,7-8.9,7.5-9.3
		c0,0,0.1,0,0.1-0.1l0.5-0.3l-0.1-0.9c0-0.2,0-0.3,0.2-0.4l7.3-7.1c0.1-0.1,0.2-0.1,0.3-0.1c0.3-0.1,3-0.6,6.2-0.6
		c3.5,0,6.4,0.7,8.3,2c0.4,0.3,0.9,0.7,1.2,1.1l1.4,1.5l0.3-2c0.9-5.5,3.5-9,7.8-10.6c1.1-0.4,2.1-0.6,3.1-0.6
		c1.4,0,2.6,0.4,3.8,1.1c1.9,1.2,3.5,3.5,4.8,6.8l1.3,3.3l0.7-3.4c0.7-3.2,1.7-5.7,3.2-7.5c1.9-2.2,4.4-3.4,7.5-3.4h0.1
		c3.2,0,5.6,1.2,7.3,3.5c1.5,2,2.4,5,2.7,8.9l2,0c0.2-3.6,1.1-6.1,2.7-7.5c1.1-1,2.3-1.3,3.1-1.3c0.3,0,0.6,0,0.6,0.1
		c0.1,0,0.1,0,0.2,0.1l11.7,8.6c0.1,0,0.1,0.1,0.2,0.2l0.2,0.5l0.5,0.1c0.1,0,0.1,0,0.2,0l10.5,5.7l6.2,0.9l0.3-0.6
		c0.1-0.2,0.2-0.3,0.4-0.3l10.1,0.1c0.2,0,0.4,0.1,0.5,0.3l2,4.1c0.1,0.2,0.1,0.4,0,0.5l-2.8,4.2c-0.1,0.1-10.6-1.6-10.7-1.6
		c0,0,0.1,7.3-0.1,7.3c-0.2,0-0.5-0.3-0.5-0.5c0,0-11.4,5.4-23.5,18c-0.5,0.5-1.4,0.2-2,0.2c-2.6,0-4.8-0.9-6.6-2.5
		c-0.4-0.4-0.9-0.9-1.3-1.5l-1.1-1.5l-0.7,1.7c-1.8,4.2-4.4,6.4-7.9,6.6c-0.2,0-0.3,0-0.5,0c-3.7,0-6.8-2.1-9.2-6.4l-1.3-2.2
		l-0.6,2.4c-1.5,5.8-3.9,9-7.2,9.6c-0.5,0.1-1,0.1-1.4,0.1c-1.9,0-3.8-0.6-5.5-1.9c-1.6-1.2-3.1-3-4.5-5.4l-1.2-2.1l-0.6,2.4
		c-0.3,1.2-0.8,2.2-1.3,3.1c-1.2,1.7-2.9,2.6-5.1,2.7c-0.2,0-0.3,0-0.5,0c-1.2,0-2.4-0.2-3.4-0.6l-1-0.4l-0.4,1
		c-0.3,0.7-0.6,1.2-0.9,1.5c-1.3,1.3-3.1,1.4-3.6,1.4c-0.1,0-0.2,0-0.2,0c-0.2,0-0.3-0.1-0.4-0.2L400.3,682.3z M471.9,649.5
		c-0.2,4.9-1.2,9.4-1.7,11.6l1.8,0.8c0-0.1,0.1-0.1,0.2-0.2c0,0,0.6-0.2,2.4-0.4l1.1-0.1l-0.2-1.1c-0.3-1.6-0.7-4.4-1.4-8.4
		c-0.1-0.8-0.1-1.5-0.2-2.3L471.9,649.5z"/>
	<path class="st3" d="M404.8,671l-19.1,4.9c0,0-5.6-16.2,10.5-10.9c1.1-5.2,7.8-10.5,7.8-10.5L404.8,671z"/>
	<path class="st3" d="M510.3,653.2l-1.5,7.3c0,0-14.9,0.8-16.2-0.6c-0.4-3.1-5.2-18.1-5.2-18.1l16,10.5L510.3,653.2z"/>
	<polygon class="st3" points="519.7,660.7 509.6,659 510.5,652.2 520.6,652.3 522.6,656.5 	"/>
	<path class="st3" d="M414.3,667.5c0,0,0.6,21.9,12.8,21.3c12.3-0.6,3.6-27.6,3.6-27.6L414.3,667.5z"/>
	<path class="st5" d="M485.2,683.6c7.1-1.1,6.6-15.2,6.3-21.5c-16-1.1-19.3,0.1-19.3,0.1S470.1,685.8,485.2,683.6z"/>
	<path class="st5" d="M465.6,686.5c-12.3,0.6-14.1-23.7-14.1-23.7l24,0.3C475.5,663.1,476.6,686,465.6,686.5z"/>
	<path class="st5" d="M454.7,656.7c0,0,2.8,31.7-8,33.3c-10.7,1.7-15.8-16.7-17.4-29C441.1,656.2,454.7,656.7,454.7,656.7z"/>
	<line class="st3" x1="509.6" y1="659" x2="509.3" y2="666.2"/>
	<path class="st3" d="M417.2,691.7c0,0,4.7,0.3,4.5-4.5"/>
	<polyline class="st5" points="399.9,681.8 396,670.2 411,667.4 	"/>
	<path class="st3" d="M377,667c0,0,6.7,0.8,8,6.3"/>
	<path class="st5" d="M450.8,656c0,0-1.4-23.4-13.5-19c-12.1,4.5-6.6,24.3-6.6,24.3L450.8,656z"/>
	<path class="st5" d="M451.5,662.8c0,0-5.6-29.6,10-29.4c15.6,0.1,9.5,28.9,9.5,28.9L451.5,662.8z"/>
	<path class="st5" d="M429.8,666.3l-24,6.3l-0.8-14.8c-0.2-3.2,0.9-6.3,3.2-8.5l3.7-3.6c0,0,15.3-3.3,16.9,5.6
		S429.8,666.3,429.8,666.3z"/>
	<path class="st5" d="M491.4,662.1l0.1-8.5c0.1-5-2.2-9.7-6.2-12.6L480,637c0,0-5.6-3.6-7.4,13.4c-0.4,7-1.1,11.7-1.1,11.7H491.4z"
		/>
	<path class="st6" d="M371,674.5c0,6.2,17.5-0.9,25.9,5.8c8.4,6.7,21.9,13,37.6,16.4c12.3,2.6,41.7,6,55.1-14.7
		c13.4-20.8,34.2-16.2,33.1-25.5c-1.1-9.3-11.5,0.7-24.7-7.4c-13.2-8.2-25.7-20.6-45.2-18.2c-18.6,2.3-32,5.6-45.6,19.5
		C392.8,665,371,663.9,371,674.5z"/>
	<path class="st2" d="M518.4,661c-0.6,0-8.7-1.6-8.7-1.6l-0.1,7.3L518.4,661z"/>
	<polygon class="st2" points="389.2,676.1 397.4,673.3 399.7,682.1 	"/>
	<path class="st3" d="M452.6,694.1c2.4-0.7,4.3-3,4.6-5.5c2.6,2.5,6.4,3.8,10.1,3.4"/>
	<path class="st3" d="M430.2,635.9c-1.8,1.2-3.2,3-4,5"/>
	<path class="st3" d="M435,690.7c0.9,1.2,1.9,2.4,3.2,3.3c1.3,0.9,2.8,1.5,4.3,1.4"/>
</g>
</svg>
