<?xml version="1.0" encoding="utf-8"?>
<!-- Generator: Adobe Illustrator 28.0.0, SVG Export Plug-In . SVG Version: 6.00 Build 0)  -->
<svg version="1.1" id="Face" xmlns="http://www.w3.org/2000/svg" xmlns:xlink="http://www.w3.org/1999/xlink" x="0px" y="0px"
	 viewBox="0 0 880 880" style="enable-background:new 0 0 880 880;" xml:space="preserve">
<style type="text/css">
	.st0{fill:#083330;}
	.st1{fill:none;stroke:#083330;stroke-width:2.7811;stroke-linecap:round;stroke-linejoin:round;stroke-miterlimit:10;}
</style>
<g>
	<path class="st0" d="M417.4,628.4c-0.8,0-1.7,0-2.5,0c0.4-0.8,0-2-1.2-2c-21.2-0.6-42.5-0.7-63.7-0.2c-6,0.1-12,0.3-18,0.5
		c-1.8,0.1,3.5,5.7,5.3,5.7c4.1-0.1,8.1-0.1,12.2-0.2c0.1,0.5,0.6,1,1.3,1c16.3,0.8,32.6,1.2,49,1c4.7,0,9.4-0.1,14-0.2
		c1.6,0,2.5-2.8,3.6-2.8C419.2,631.1,419.2,628.4,417.4,628.4z"/>
	<path class="st0" d="M551.7,627.3c-21.7,0.3-43.3,0.5-65,0.8c-6.1,0.1-12.3,0.2-18.4,0.2c-1.5,0-1.7,1.9-0.8,2.5
		c-0.5,0-0.9,0-1.4,0c-0.6,0-1,0.4-1.2,0.8c-0.2,0-0.4,0-0.7,0c-1.8,0-1.8,2.8,0,2.8c1.3,0,2.5,0,3.8,0c1.4,0.3,2.9,0.3,4.4,0.4
		c2.8,0.1,5.7,0.2,8.5,0.3c5.7,0.2,11.4,0.3,17.1,0.5c11.2,0.3,22.5,0.4,33.7,0.4c6.5,0,12.9,0,19.4-0.1
		C552.9,636,553.5,627.3,551.7,627.3z"/>
	<path class="st0" d="M502.9,674.3c-19,0.4-34.7-1.6-53.7-2.1c-18.9-0.5-37.3-1.3-56.9-1.9c-10.7-0.3-15.2-0.2-25.9-0.8
		c-1.8-0.1-3.5,6.5-1.7,6.6c8.3,0.3,16.5,0.5,24.8,0.7c0.2,0.2,0.5,0.4,0.9,0.4c29.7,2.3,42.5,1.8,86.4,3.6
		c8.4,0.4,19.7,0.9,28.1,1.1C506.8,681.9,504.7,674.2,502.9,674.3z"/>
	<path class="st1" d="M550.2,628.9c7.6-2.6,15.2-5,22.8-7.4"/>
	<path class="st1" d="M549.7,630.1c7.6,0.8,15.1,1.9,22.6,3.5"/>
	<path class="st1" d="M548.6,630c4.8,5.1,10.9,9.1,17.6,11.4"/>
	<path class="st1" d="M549.9,632.5c1.4,4.1,3.5,7.9,6.1,11.3"/>
	<path class="st1" d="M336.3,628.8c-7-3.8-14.4-6.9-22-9.2"/>
	<path class="st1" d="M335.9,628.4c-8.4,1-16.8,1.4-25.2,1.2"/>
	<path class="st1" d="M339.6,628.5c-7,1.7-12.8,7.2-20,8.1"/>
	<path class="st1" d="M335.8,631.1c-1.9,4.2-4.2,8.3-6.8,12.1"/>
	<path class="st1" d="M464.3,633.2c14.9,19.1,35.7,33.5,58.7,40.8"/>
	<path class="st1" d="M469.4,639.4c8.5,9.3,20.7,14.1,32.5,18.4c10.9,3.9,21.9,7.7,33.3,10.1"/>
	<path class="st1" d="M470.5,640.3c17.2,8.9,36.2,14.3,55.5,15.9"/>
	<path class="st1" d="M417.8,630.7c-24.3,17.4-51.7,30.5-80.5,38.5"/>
	<path class="st1" d="M412,632.4c-12.2,9.7-26.8,16.2-41.7,20.6s-30.4,7-45.8,9.5"/>
	<path class="st1" d="M355.6,647.5c11.3,1.2,22.9,0.7,34.1-1.6"/>
	<path class="st1" d="M419.3,609.8c2.8,6.3,5.7,12.6,8.5,18.8"/>
	<path class="st1" d="M423.3,604.4c5.2,9.1,10.4,18.1,15.6,27.2"/>
	<path class="st1" d="M439,611.7c0.1,2.7,0.6,5.3,1.5,7.8"/>
	<path class="st1" d="M453.6,604.6c-3,10.2-5.3,20.5-7,31"/>
	<path class="st1" d="M456.9,617.7c-1.4,4.3-2.4,8.7-3,13.1"/>
	<path class="st1" d="M500.1,670.1c5.3,8.5,9.4,17.8,12.1,27.5c0.4,1.4,0.8,2.9,1.2,4.4"/>
	<path class="st1" d="M368,666.4c-6.3,9.9-7.7,22.1-8.9,33.9"/>
	<path class="st1" d="M414.2,691.2c19.3-1.2,39-1.6,57.7,3.6c-20-3.5-40.6-3-60.4,1.5c14.7-2.8,29.7-0.5,44.5,1.8
		c-10.5-0.7-21.2-0.3-31.6,1.2c8.4,0.4,16.8,0.9,25.2,1.3"/>
	<circle class="st0" cx="441.9" cy="624.5" r="1.4"/>
	<circle class="st0" cx="458.4" cy="613" r="1.4"/>
</g>
</svg>
