<?xml version="1.0" encoding="utf-8"?>
<!-- Generator: Adobe Illustrator 28.0.0, SVG Export Plug-In . SVG Version: 6.00 Build 0)  -->
<svg version="1.1" id="Face" xmlns="http://www.w3.org/2000/svg" xmlns:xlink="http://www.w3.org/1999/xlink" x="0px" y="0px"
	 viewBox="0 0 880 880" style="enable-background:new 0 0 880 880;" xml:space="preserve">
<style type="text/css">
	.st0{fill:none;stroke:#083330;stroke-width:7.4164;stroke-linecap:round;stroke-miterlimit:10;}
	.st1{fill:#FFFFFF;stroke:#083330;stroke-width:11.1246;stroke-miterlimit:10;}
	.st2{fill:#083330;}
	.st3{fill:#FFFFFF;}
	.st4{fill:#FFFFEA;stroke:#083330;stroke-width:7.4164;stroke-linecap:round;stroke-miterlimit:10;}
</style>
<g>
	<path class="st0" d="M532.9,639.5c8.3-8.4,17.3-16.1,26.9-23c1.8-1.3,3.7-2.6,5.9-3c4.9-1,10.1,3.5,9.8,8.5"/>
	<path class="st0" d="M353.5,622.8c-8.7-7.2-18.7-13-29.5-16.4c-11.6-3.6-15.9,8.1-13.9,9.8"/>
	<circle class="st1" cx="382.9" cy="628.2" r="39"/>
	<circle class="st1" cx="503.4" cy="635.8" r="39"/>
	<path class="st0" d="M422.4,637.8c5.8-5.2,13.8-7.9,21.6-7.4s15.3,4.3,20.4,10.2"/>
	<g>
		<path class="st2" d="M382.4,687.5c13.5,3.7,30.4-7,47.3-7.2c7.4-0.1,20.6,6.4,28,7.1c14.6,1.4,20.4-4.2,35-3.3
			c6.4,0.4,13,1.5,18.1,5.4c5.1,3.9,5.5,9.5,2.6,15.3c-2.8,5.5-12.4,8.1-18.5,8.6c-14.2,1.2-22.9-2-37.2-3.5
			c-26-2.7-44.3,1.8-73.8-2.9c-3.3-0.5-8.3-1.6-10.4-4.2C369.9,698.4,368.9,683.8,382.4,687.5z"/>
		<g>
			<path class="st2" d="M382,688.8c10.6,2.8,21.8-1.9,32-4.6c5.4-1.4,11.2-2.9,16.8-2.5c4.6,0.3,9.2,2.1,13.5,3.5
				c4.3,1.4,8.7,3.1,13.3,3.5c5.4,0.5,10.7,0,15.9-1.1c4.9-1,9.7-2.2,14.7-2.3c5.7-0.2,11.9,0.4,17.3,2.7c2.5,1.1,5.1,2.6,6.7,4.9
				c1.4,2.1,1.8,4.5,1.4,7c-0.4,2.3-1.4,4.6-3.1,6.3c-1.6,1.5-3.6,2.6-5.7,3.4c-10,3.9-21.3,2.8-31.7,1.1c-6-1-11.9-2-18-2.5
				c-5.6-0.5-11.3-0.7-16.9-0.7c-10.9,0-21.8,0.6-32.7,0.1c-6.3-0.2-12.5-0.8-18.8-1.7c-2.6-0.4-5.2-0.8-7.7-1.6
				c-1.8-0.6-3.9-1.6-4.8-3.1c-2.2-3.6-2.9-11.3,2.4-12.7C378.3,688,380.2,688.4,382,688.8c1.7,0.5,2.5-2.2,0.7-2.7
				c-3.6-0.9-7.9-1.1-10.6,1.8c-2,2.2-2.6,5.5-2.3,8.4c0.3,2.9,1.2,6.1,3.5,8.1c4.2,3.5,10.7,3.9,15.8,4.5
				c12.2,1.6,24.5,1.6,36.7,1.4c12-0.2,23.9-0.3,35.8,1.3c11.9,1.6,23.7,4.5,35.8,2.7c4.8-0.7,9.9-2.2,13.8-5.2
				c3.9-3,5.9-8.6,5-13.4c-1.1-5.8-6.6-9.3-11.8-11c-5.7-2-12.2-2.4-18.3-2c-5.1,0.4-10.1,1.7-15.1,2.6c-5.2,1-10.9,1.4-16.1,0.2
				c-5-1.1-9.8-3-14.6-4.5c-2.3-0.7-4.7-1.4-7.1-1.8c-2.5-0.4-4.9-0.4-7.4-0.1c-6.3,0.6-12.4,2.3-18.5,4.1c-5.5,1.6-11.2,3.3-17,3.7
				c-2.6,0.2-5.2,0-7.7-0.7C381,685.7,380.3,688.4,382,688.8z"/>
		</g>
	</g>
	<g>
		<path class="st3" d="M422.4,684.3c-0.1,3.8-0.1,7.6,0.1,11.3c0.1,1.3,0.2,2.8,1.2,3.7c0.7,0.6,1.7,0.8,2.6,1
			c3,0.5,6.2,0.4,9.2-0.1c1.5-0.2,3-0.6,4-1.6c1.6-1.5,1.8-4,1.9-6.3c0.1-1.9,0.2-3.8,0.2-5.7c0,0-3.8-2.5-9.1-3.2
			C427.3,682.8,422.4,684.3,422.4,684.3z"/>
		<g>
			<path class="st2" d="M421,684.3c-0.1,3-0.1,6,0,9.1c0.1,2.3-0.1,5.2,1.7,6.9c1,0.9,2.3,1.2,3.6,1.4c1.5,0.2,2.9,0.3,4.4,0.3
				c2.5,0,5.3-0.2,7.7-1.1c5.1-2.1,4.4-8.6,4.6-13.2c0-1,0.2-1.8-0.7-2.4c-0.4-0.3-0.9-0.5-1.4-0.8c-1.8-0.9-3.7-1.6-5.7-2.1
				c-4.2-1-9-0.8-13.2,0.5c-1.7,0.5-1,3.2,0.7,2.7c5.9-1.8,13-1.3,18.2,2.1c-0.2-0.4-0.5-0.8-0.7-1.2c-0.1,1.9-0.1,3.8-0.2,5.7
				c-0.1,1.3-0.1,2.8-0.6,4c-0.6,1.4-1.8,2-3.1,2.3c-1.7,0.4-3.5,0.6-5.2,0.6c-1.7,0-3.6,0-5.3-0.4c-1.6-0.4-1.7-1.7-1.8-3.2
				c-0.2-3.8-0.2-7.6-0.1-11.3C423.9,682.5,421.1,682.5,421,684.3z"/>
		</g>
	</g>
	<g>
		<path class="st3" d="M464.2,690.7c-0.1,2.7-0.7,5.6-2.5,7.6c-2.6,3-7.2,3.6-11.1,2.7c-1.4-0.3-2.8-0.8-3.6-2
			c-0.6-0.9-0.8-2.1-0.8-3.2c-0.2-2.9-0.1-5.8,0.1-8.7c0,0,3.5,1.4,7.8,2.5C459.1,691.1,464.2,690.7,464.2,690.7z"/>
		<g>
			<path class="st2" d="M462.8,690.7c-0.1,2.7-0.8,5.5-2.9,7.3c-1.8,1.6-4.3,2-6.7,1.9c-1.2,0-2.5-0.2-3.7-0.7
				c-1.2-0.4-1.8-1.2-2-2.5c-0.2-1.5-0.2-3-0.2-4.5c0-1.7,0.1-3.5,0.2-5.2c-0.6,0.4-1.2,0.9-1.8,1.3c5.8,2.2,12,4,18.3,3.6
				c1.8-0.1,1.8-2.9,0-2.8c-6.1,0.4-12-1.4-17.6-3.5c-0.9-0.3-1.7,0.5-1.8,1.3c-0.3,3.1-0.4,6.2-0.1,9.2c0.1,1.3,0.4,2.6,1.2,3.7
				c0.8,1,1.9,1.6,3.1,2c4.4,1.4,10.3,0.8,13.5-2.8c2.1-2.4,2.8-5.5,2.9-8.6C465.6,688.9,462.9,688.9,462.8,690.7z"/>
		</g>
	</g>
	<path class="st4" d="M392.1,678.8c-4.6,11.6-25.8,21.4-41.4,16.8"/>
	<path class="st0" d="M518.3,684.8c3.6,3,6.8,6.7,8.7,10.9s2.7,9.2,1.5,13.7"/>
</g>
</svg>
