<?xml version="1.0" encoding="utf-8"?>
<!-- Generator: Adobe Illustrator 28.0.0, SVG Export Plug-In . SVG Version: 6.00 Build 0)  -->
<svg version="1.1" id="Face" xmlns="http://www.w3.org/2000/svg" xmlns:xlink="http://www.w3.org/1999/xlink" x="0px" y="0px"
	 viewBox="0 0 880 880" style="enable-background:new 0 0 880 880;" xml:space="preserve">
<style type="text/css">
	.st0{fill:#FFE5AB;}
	.st1{fill:#083330;}
	.st2{fill:#FFFFFF;}
	.st3{fill:#FBCDB8;}
	.st4{fill:none;stroke:#083330;stroke-width:5.5623;stroke-linecap:round;stroke-linejoin:round;stroke-miterlimit:10;}
	.st5{fill:#FBCDB8;stroke:#083330;stroke-width:5.5623;stroke-linecap:round;stroke-linejoin:round;stroke-miterlimit:10;}
	.st6{fill:none;stroke:#083330;stroke-width:2.7811;stroke-linecap:round;stroke-linejoin:round;stroke-miterlimit:10;}
	.st7{fill:#FF5956;}
</style>
<g>
	<circle class="st0" cx="407.4" cy="614.7" r="10"/>
	<circle class="st0" cx="473.2" cy="614.4" r="10"/>
	<circle class="st1" cx="409.3" cy="613.1" r="8.4"/>
	<circle class="st1" cx="471.9" cy="612.9" r="8.4"/>
	
		<ellipse transform="matrix(0.8127 -0.5826 0.5826 0.8127 -278.7354 353.8167)" class="st2" cx="411.1" cy="610.5" rx="3" ry="4.1"/>
	
		<ellipse transform="matrix(0.8127 -0.5826 0.5826 0.8127 -266.7648 390.5563)" class="st2" cx="474.2" cy="610.3" rx="3" ry="4.1"/>
	<path class="st0" d="M462.2,637.7c0,0,4,20.7-19.2,20.2s-21-18.9-21-18.9s6.8-5.1,19.7-5.1S462.2,637.7,462.2,637.7z"/>
	<path class="st3" d="M461.4,649.5c-14.5-6.1-31.5,10.1-35.9-12.4c-2.2,1-3.4,1.9-3.4,1.9s-2.3,18.4,21,18.9c3,0.1,5.5-0.2,7.6-0.8
		C457.3,656,459.8,652.5,461.4,649.5z"/>
	<path class="st4" d="M422.1,639.2c0,0-2.3,18.4,21,18.9s19.2-20.2,19.2-20.2"/>
	<path class="st5" d="M428.7,666.3c0,0,14.5,15.5,29.3-0.2c0.5-0.5-3.4,3.7-3.9,4.7c-0.8,4.4-0.9,12.9-11.2,12.4
		C426.6,682.4,428.7,666.3,428.7,666.3z"/>
	<path class="st6" d="M429,685.1c2.7,3.3,6.9,5,11.1,5.6s8.5,0.2,12.7-0.3c-6.3,2.7-13.5,0.9-20.4,0.9c3.9,2.2,8.3,3.4,12.7,3.5"/>
	<path class="st7" d="M432.8,674.5c0,0,9.4,1.2,13.6,5.7C437.5,681.9,433.7,676.6,432.8,674.5z"/>
	<g>
		<g>
			<path class="st1" d="M464.3,625.1c3.5,2.8,9.1,2.8,13.3,2c3.8-0.7,8.2-2.4,10.5-5.6c-0.8-0.4-1.7-0.7-2.5-1.1
				c-2.6,6.9-11.9,8.8-18.4,7.5c-1.5-0.3-2.6,1.8-1.1,2.5c2.8,1.4,5.9,1.8,9,1.8c3.2,0,6.5-0.2,9.6-0.9c5.4-1.3,10.4-4.8,12.1-10.3
				c0.5-1.7-2.1-2.4-2.7-0.7c-1.5,4.7-6,7.4-10.6,8.4c-2.7,0.6-5.4,0.7-8.2,0.7c-2.7,0-5.4-0.2-7.8-1.4c-0.4,0.8-0.7,1.7-1.1,2.5
				c8.1,1.7,18.6-1,21.8-9.4c0.6-1.6-1.7-2.2-2.5-1.1c-1.8,2.5-5.8,3.6-8.6,4.2c-2,0.4-4.2,0.5-6.3,0.2c-1.5-0.2-3.4-0.5-4.6-1.4
				C464.9,622,462.9,624,464.3,625.1L464.3,625.1z"/>
		</g>
	</g>
	<g>
		<g>
			<path class="st1" d="M415.7,623.1c-5.9,2.8-13,2.8-18.8-0.1c-1.5-0.7-2.7,1-1.7,2.2c5,6.1,13.5,6.7,20.8,5.8
				c-0.1-0.9-0.2-1.8-0.4-2.7c-6,2-13,3.7-19.1,1.1c-3.5-1.5-6.5-4.4-7.9-8c-0.6-1.7-3.3-0.9-2.7,0.7c1.6,4.3,5,7.8,9.2,9.6
				c6.8,3,14.5,1.3,21.2-0.9c1.4-0.5,1.3-2.9-0.4-2.7c-6.6,0.8-14.2,0.6-18.8-5c-0.6,0.7-1.1,1.5-1.7,2.2c6.8,3.4,14.8,3.4,21.7,0.1
				C418.7,624.7,417.3,622.3,415.7,623.1L415.7,623.1z"/>
		</g>
	</g>
	
		<ellipse transform="matrix(0.9756 -0.2193 0.2193 0.9756 -135.952 95.8813)" class="st3" cx="363.8" cy="660.2" rx="33.1" ry="37.7"/>
	
		<ellipse transform="matrix(0.2193 -0.9756 0.9756 0.2193 -240.4957 1019.8897)" class="st3" cx="517.1" cy="660.2" rx="37.7" ry="33.1"/>
</g>
</svg>
