<?xml version="1.0" encoding="utf-8"?>
<!-- Generator: Adobe Illustrator 28.0.0, SVG Export Plug-In . SVG Version: 6.00 Build 0)  -->
<svg version="1.1" id="Face" xmlns="http://www.w3.org/2000/svg" xmlns:xlink="http://www.w3.org/1999/xlink" x="0px" y="0px"
	 viewBox="0 0 880 880" style="enable-background:new 0 0 880 880;" xml:space="preserve">
<style type="text/css">
	.st0{fill:#FFFFFF;stroke:#083330;stroke-width:9.977;stroke-linecap:round;stroke-linejoin:round;stroke-miterlimit:10;}
	.st1{fill:#083330;}
	.st2{fill:none;stroke:#083330;stroke-width:3.3257;stroke-linecap:round;stroke-linejoin:round;stroke-miterlimit:10;}
	.st3{fill:none;stroke:#083330;stroke-width:3.3489;stroke-linecap:round;stroke-linejoin:round;stroke-miterlimit:10;}
	.st4{fill:none;stroke:#083330;stroke-width:2.9994;stroke-linecap:round;stroke-linejoin:round;stroke-miterlimit:10;}
	.st5{fill:#FFFFFF;}
	.st6{fill:none;stroke:#083330;stroke-width:9.977;stroke-linecap:round;stroke-linejoin:round;stroke-miterlimit:10;}
</style>
<g>
	<path class="st0" d="M407.4,674.3c4.7-4.3,8.5-9.8,10.9-15.7c4.5-10.9,4.9-23.1,2.8-34.7c-0.8-4.1-1.9-8.3-4.2-11.8
		c-1.9-2.9-4.4-5.2-7.1-7.3c-17.7-13.8-41-18-60.5-2.7c-12.2,11.9-12.7,23.9-12.9,37.4c-0.2,14.5,3.1,30.6,14.9,38.9
		c8.3,5.8,19.1,6.6,29.2,6c4.4-0.3,8.9-0.8,13.2-2.1C398.8,680.7,403.5,677.9,407.4,674.3z"/>
	<path class="st1" d="M369.2,627.3c-1.5,1.6-2.6,3.5-3.3,5.5c-1.3,3.7-1.1,7.8-0.1,11.7c0.4,1.4,0.8,2.7,1.7,3.8
		c0.7,0.9,1.6,1.6,2.5,2.3c6.2,4.2,14.1,5,20.3-0.5c3.8-4.3,3.7-8.3,3.4-12.8c-0.3-4.8-1.8-10.1-5.9-12.6c-2.9-1.8-6.5-1.8-9.9-1.3
		c-1.5,0.2-3,0.5-4.3,1C371.9,625,370.4,626,369.2,627.3z"/>
	<path class="st2" d="M376.9,582.7c-12.6-2.2-25.6,1.4-37.3,13.2c-4.9,6-8,12.1-10.2,18.2"/>
	<path class="st2" d="M327.2,653.9c0.1,12,5.3,24.7,15.5,32.4c8.9,6.7,21.1,8.6,32.7,9.1c5.1,0.2,10.2,0.2,15.2-0.7
		c3.7-0.7,7.3-1.8,10.7-3.4"/>
	<path class="st2" d="M319.9,641.4c-0.1,13.8,2,26.3,4.5,33.4c5.3,14.4,15.6,19.9,27.6,24.9c5.3,2.2,13.6,2.7,24.5,2.7"/>
	<path class="st0" d="M541.4,663.5c0.9-1.3,1.6-2.7,2.3-4.1c4-8.3,4.9-17.7,4.6-26.9c-0.2-6.4-1-12.9-3.4-18.8
		c-6.3-15.5-23.4-25.3-40.1-25.1c-16.3,0.2-30.5,9.1-41.2,21.3c-6.3,10.1-7.1,19.6-7.5,28.4c-0.5,10.9-0.5,22.7,5.9,31.5
		c2.7,3.8,6.4,6.7,10.4,9.1c19.5,11.6,46.7,8.3,62.8-7.8C537.5,668.8,539.6,666.3,541.4,663.5z"/>
	<path class="st1" d="M489.7,633.9c-0.1,0.5-0.1,1-0.1,1.4c-0.1,2.8,0.9,5.6,2.1,8.1c0.9,1.8,1.9,3.5,3.3,4.8
		c3.7,3.5,9.7,4.1,14.3,1.9c4.5-2.1,7.3-6.4,8.8-11.1c0.5-3.6-0.5-6.4-1.5-8.9c-1.2-3.1-2.7-6.4-5.6-8c-1.2-0.7-2.6-1.1-4-1.2
		c-6.9-0.8-14.1,3.6-16.5,10.1C490.1,632,489.8,632.9,489.7,633.9z"/>
	<path class="st3" d="M557.8,618.5c-0.9-5.2-2.2-10.2-4.4-14.9c-5.6-12-16.6-20-28.4-22.5"/>
	<path class="st4" d="M480.7,693.8c20.7,6.6,47.2,0,61.3-15.3"/>
	<path class="st2" d="M507.6,701.8c32.8-2.6,58.1-30.7,58.5-65"/>
	<circle class="st5" cx="387.9" cy="629.4" r="7.6"/>
	<circle class="st5" cx="512.5" cy="628.1" r="7.6"/>
	<circle class="st5" cx="508.8" cy="642" r="3.8"/>
	<circle class="st5" cx="385.2" cy="644.4" r="3.8"/>
	<path class="st6" d="M415.5,700c9.1-1.7,17.7-2.3,25.4-2.1c8.6,0.2,14,0.9,23.6,3"/>
</g>
</svg>
