<?xml version="1.0" encoding="utf-8"?>
<!-- Generator: Adobe Illustrator 28.0.0, SVG Export Plug-In . SVG Version: 6.00 Build 0)  -->
<svg version="1.1" id="Face" xmlns="http://www.w3.org/2000/svg" xmlns:xlink="http://www.w3.org/1999/xlink" x="0px" y="0px"
	 viewBox="0 0 880 880" style="enable-background:new 0 0 880 880;" xml:space="preserve">
<style type="text/css">
	.st0{fill:none;stroke:#083330;stroke-width:11.1246;stroke-linecap:round;stroke-miterlimit:10;}
	.st1{fill:#083330;}
</style>
<g>
	<path class="st0" d="M328.5,665.2c0,0,12.9,12.9,36.4,18.9s27.3,5.3,38.6,5.3s18.2-1.5,37.1,0.8c18.9,2.3,19.7,5.3,41.7,2.3
		s31.8-1.5,39.4-5.3c7.6-3.8,25.5-10.1,32.6-15.9"/>
	<path class="st1" d="M359.8,614.9c-5.5,2.7-5.1,6.6-4,18.7c1,12.1,5.1,9.1,10.6,8.6c5.6-0.5,9.1-3,10.1-9.1c1-6.1,2.5-13.6-3-16.7
		C367.9,613.4,365.9,611.9,359.8,614.9z"/>
	<path class="st1" d="M517.9,619c0,0-6.1-3.5-9.6-1s-3.5,11.1-4.5,12.6s-5.1,7.1-2,11.1c3,4,14.6,5.1,19.2,1.5
		c4.5-3.5,7.1-11.1,5.6-16.2C525,622,523.5,621.5,517.9,619z"/>
</g>
</svg>
