<?xml version="1.0" encoding="utf-8"?>
<!-- Generator: Adobe Illustrator 28.0.0, SVG Export Plug-In . SVG Version: 6.00 Build 0)  -->
<svg version="1.1" id="Face" xmlns="http://www.w3.org/2000/svg" xmlns:xlink="http://www.w3.org/1999/xlink" x="0px" y="0px"
	 viewBox="0 0 880 880" style="enable-background:new 0 0 880 880;" xml:space="preserve">
<style type="text/css">
	.st0{fill:none;stroke:#083330;stroke-width:11.1246;stroke-linecap:round;stroke-miterlimit:10;}
	.st1{fill:#083330;}
	.st2{fill:#FFFFFF;}
	.st3{fill:#FFFFFF;stroke:#083330;stroke-width:11.1246;stroke-linecap:round;stroke-miterlimit:10;}
</style>
<g>
	<path class="st0" d="M398.7,665.8c24.4,0.6,48.9-5.9,69.7-18.5c20.9-12.6,38-31.2,48.9-53.1"/>
	<path class="st0" d="M502.8,584.3c13.4,4.1,25.8,11.5,35.7,21.4"/>
	<path class="st1" d="M520,595c0,0,13.1,45.5-1,71.2c-9.5,17.2-37.7,39-70.7,31.3c-32.3-7.6-13.6-18.7-16.2-34.3l35.4-16.4l33.8-28
		L520,595z"/>
	<g>
		<path class="st2" d="M446.6,670.6c-4.1-0.5-7.9,2.6-8.4,6.7l-1.1,10.1c1.6,0.7,3.4,1.4,5.4,2.1c3.1,1.1,6.3,1.9,9.4,2.5l1.4-13
			C453.7,674.8,450.7,671,446.6,670.6z"/>
		<path class="st2" d="M468.4,670.8c-4.2-0.1-7.6,3.3-7.7,7.4l-0.3,14.7c5.3,0.1,10.3-0.4,15.2-1.6l0.3-12.8
			C475.9,674.3,472.6,670.8,468.4,670.8z"/>
		<path class="st2" d="M487.3,661.2c-4.1,0.5-7.1,4.3-6.6,8.4l2.1,17.5c0.1,0.5,0.2,1,0.3,1.5c5.1-2.4,9.9-5.4,14-8.8l-1.5-12.1
			C495.2,663.7,491.4,660.7,487.3,661.2z"/>
		<path class="st2" d="M507.1,646.3c-4.2,0.4-7.2,4.1-6.9,8.2l1.6,17.6c0.1,1.1,0.4,2.1,0.9,2.9c5.5-4.9,10-10.3,13.2-15.5l-0.6-6.4
			C514.9,649,511.2,645.9,507.1,646.3z"/>
	</g>
	<path class="st0" d="M417.2,613.3c2-7,7.8-12.7,14.8-14.5s14.9,0.3,20.1,5.4c0.9,0.9,1.7,1.8,2.3,2.9c1.1,2,1.4,4.5,1.1,6.8"/>
	<path class="st3" d="M393.4,620c0,0-3.5-12.1-21.2-7.1c-17.7,5.1-19.2,23.2-19.2,23.2s15.7,10.1,26.8,7.6
		C390.9,641.2,396.6,629.2,393.4,620z"/>
	<g>
		<g>
			<path class="st1" d="M363.8,600c-11,3.9-18.9,14.4-19.6,26c-0.1,1.8,2.7,1.8,2.8,0c0.6-10.3,7.8-19.9,17.5-23.4
				C366.2,602.1,365.5,599.4,363.8,600L363.8,600z"/>
		</g>
	</g>
	<g>
		<g>
			<path class="st1" d="M458.2,614c0.4,3.4,2.1,6.5,4.9,8.5c2.9,2,6.8,2.5,10.1,1.4c1.7-0.6,1-3.2-0.7-2.7c-2.6,0.9-5.5,0.5-7.8-1
				c-2-1.4-3.4-3.8-3.7-6.2c-0.1-0.7-0.6-1.4-1.4-1.4C458.9,612.6,458.2,613.2,458.2,614L458.2,614z"/>
		</g>
	</g>
	<g>
		<g>
			<path class="st1" d="M458.8,614c3,2.7,7.1,3.9,11.1,3.2c0.7-0.1,1.2-1,1-1.7c-0.2-0.8-1-1.1-1.7-1c-2.9,0.5-6.2-0.5-8.4-2.5
				c-0.6-0.5-1.4-0.5-2,0C458.2,612.5,458.2,613.5,458.8,614L458.8,614z"/>
		</g>
	</g>
	<g>
		<g>
			<path class="st1" d="M396.1,640.1c-2.9,5.7-7.1,10.1-13.2,12.5c-5.9,2.3-12.2,3-18.4,3.5c-1.8,0.2-1.8,2.9,0,2.8
				c6.7-0.6,13.6-1.3,19.9-3.9c6.4-2.6,11-7.3,14.1-13.5C399.3,639.9,396.9,638.5,396.1,640.1L396.1,640.1z"/>
		</g>
	</g>
	<g>
		<g>
			<path class="st1" d="M381.7,620.5"/>
		</g>
		<g>
			<path class="st1" d="M384.8,622.2c-2.6-6.3-19.1-0.7-17.3,6.2C369.9,637.2,388.4,630.8,384.8,622.2z"/>
		</g>
	</g>
	<g>
		<g>
			<path class="st1" d="M347.5,636.8c0,0.1-0.1,0.2-0.1,0.4c0.1-0.2,0,0,0,0.1c-0.1,0.2-0.2,0.4-0.3,0.6c-0.1,0.2-0.2,0.4-0.3,0.5
				c0,0-0.2,0.3-0.1,0.2c0.1-0.1-0.1,0.1-0.1,0.2c-0.3,0.4-0.6,0.7-1,1c0,0-0.3,0.2-0.2,0.1c0.1-0.1-0.1,0.1-0.2,0.1
				c-0.2,0.1-0.4,0.3-0.6,0.4c-0.2,0.1-0.4,0.2-0.6,0.3c-0.1,0-0.2,0.1-0.3,0.1c-0.4,0.2,0.2-0.1-0.1,0.1c-0.4,0.2-0.8,0.3-1.3,0.4
				c-0.1,0-0.2,0-0.3,0.1c0,0-0.4,0.1-0.1,0c-0.2,0-0.4,0-0.6,0c-0.2,0-0.4,0-0.6,0c-0.1,0-0.3,0-0.4,0c-0.3,0,0.2,0-0.1,0
				c-0.7-0.1-1.5,0.2-1.7,1c-0.2,0.7,0.2,1.6,1,1.7c4.6,0.8,9.4-2,10.9-6.4c0.2-0.7-0.3-1.6-1-1.7
				C348.4,635.7,347.8,636.1,347.5,636.8L347.5,636.8z"/>
		</g>
	</g>
	<g>
		<g>
			<path class="st1" d="M348.8,639.2c0.1,0.2,0.2,0.3,0.3,0.5c0.2,0.3,0-0.1,0,0.1c0,0.1,0.1,0.2,0.1,0.3c0,0.1,0,0.2,0.1,0.3
				c0,0.2,0-0.2,0,0.1c0,0.2,0,0.4,0,0.6c0,0.3,0-0.1,0,0.1c0,0.1,0,0.2-0.1,0.3c-0.1,0.2-0.1,0.4-0.2,0.6c-0.1,0.2,0,0,0,0.1
				c0,0.1-0.1,0.2-0.1,0.3c-0.1,0.2-0.2,0.4-0.3,0.5c0.1-0.1,0,0,0,0c-0.1,0.1-0.2,0.2-0.3,0.3c-0.2,0.2-0.3,0.3-0.5,0.5
				c-0.1,0.1-0.1,0.1-0.2,0.2c0,0-0.3,0.3-0.2,0.1c-0.2,0.1-0.3,0.2-0.5,0.4c-0.8,0.5-1.7,1-2.5,1.4c-0.6,0.3-0.9,1.3-0.5,1.9
				c0.4,0.7,1.2,0.9,1.9,0.5c2-1,4.1-2.2,5.3-4.2c1.2-1.8,1.5-4.6,0.1-6.4c-0.4-0.6-1.2-0.9-1.9-0.5
				C348.8,637.7,348.4,638.6,348.8,639.2L348.8,639.2z"/>
		</g>
	</g>
	<g>
		<path class="st2" d="M381.7,619.2c-2.3-0.1-4.5,2.1-4.4,4.4c0,0.7,0.2,1.4,0.8,1.7c0.3,0.2,0.7,0.3,1.1,0.3c1.3,0.1,2.6,0,3.8-0.4
			c1.8-0.5,3.7-1.9,3.6-3.8C386.5,620.3,381.7,619.2,381.7,619.2z"/>
	</g>
	<g>
		<g>
			<path class="st1" d="M419.6,685.8c-0.8,6.6,2.8,13,7.8,17c5.7,4.5,12.9,6.4,19.9,7.5c15.2,2.5,31.3,2.2,45.6-4.1
				c7-3.1,13.3-7.6,18.3-13.4c1.2-1.4-0.8-3.3-2-2c-8.5,10-21,15.6-33.8,17.5c-7.6,1.1-15.4,0.9-23,0c-6.8-0.8-13.9-2-19.9-5.4
				c-6.1-3.4-11-9.8-10.2-17.1C422.6,684,419.8,684,419.6,685.8L419.6,685.8z"/>
		</g>
	</g>
</g>
</svg>
