<?xml version="1.0" encoding="utf-8"?>
<!-- Generator: Adobe Illustrator 28.0.0, SVG Export Plug-In . SVG Version: 6.00 Build 0)  -->
<svg version="1.1" id="Face" xmlns="http://www.w3.org/2000/svg" xmlns:xlink="http://www.w3.org/1999/xlink" x="0px" y="0px"
	 viewBox="0 0 880 880" style="enable-background:new 0 0 880 880;" xml:space="preserve">
<style type="text/css">
	.st0{fill:none;stroke:#083330;stroke-width:11.1246;stroke-linecap:round;stroke-miterlimit:10;}
	.st1{fill:#FBCDB8;stroke:#083330;stroke-width:11.1246;stroke-miterlimit:10;}
</style>
<g>
	<path class="st0" d="M340.2,590.1c17.8,13.5,35.6,26.9,53.4,40.4"/>
	<path class="st0" d="M389,588.2c-18.5,11.1-34.1,27-44.9,45.7"/>
	<path class="st0" d="M473.4,591.7c16.4,14.3,32.9,28.6,49.3,43"/>
	<path class="st0" d="M467.6,631.9c18.5-12.2,37.9-23.2,57.9-32.8"/>
	<path class="st1" d="M407.2,653.4c-0.2,16,0.6,34.4,13,44.6c11.2,9.2,52.8,16,57.3-14.1c1.5-10.1,2.5-20.3,2.5-30.5"/>
	<path class="st0" d="M338.9,655.9c66.5-5.8,133.5-6.2,200.1-1.2"/>
	<path class="st0" d="M445.1,654.1c-0.5,10.1-0.3,20.2,0.5,30.3"/>
</g>
</svg>
