<svg xmlns="http://www.w3.org/2000/svg" xml:space="preserve" id="BGs" x="0" y="0" style="enable-background:new 0 0 880 880" version="1.1" viewBox="0 0 880 880"><style>.st1{fill:#d06b43}.st2{fill:#a53f28}.st3{fill:#c3462a}.st4{fill:#cb562b}.st6{fill:#b64c2a}.st9{fill:gray}.st28{fill:#8af756}</style><path d="M.4 1h879.5v879.2H.4V1z" style="fill:#fff"/><path d="M-.1 90.8h64.8v77H-.1v-77z" class="st1"/><path d="M76.7 90.8h174.4v77H76.7v-77z" class="st2"/><path d="M263 90.8h174.4v77H263v-77z" class="st1"/><path d="M449.4 90.8h174.4v77H449.4v-77z" class="st3"/><path d="M635.7 90.8h174.4v77H635.7v-77zm186.4 0h58.8v77h-58.8v-77z" class="st1"/><path d="M-.1 270.6h64.8v77H-.1v-77z" class="st3"/><path d="M76.7 270.6h174.4v77H76.7v-77z" class="st1"/><path d="M263 270.6h174.4v77H263v-77z" class="st4"/><path d="M449.4 270.6h174.4v77H449.4v-77z" class="st1"/><path d="M635.7 270.6h174.4v77H635.7v-77z" class="st3"/><path d="M822.1 270.6h58.8v77h-58.8v-77zM-.1 450.4h64.8v77H-.1v-77z" class="st1"/><path d="M76.7 450.4h174.4v77H76.7v-77z" style="fill:#c74f2d"/><path d="M263 450.4h174.4v77H263v-77z" class="st1"/><path d="M449.4 450.4h174.4v77H449.4v-77z" class="st2"/><path d="M635.7 450.4h174.4v77H635.7v-77zm186.4 0h58.8v77h-58.8v-77zM-.1 630.2h64.8v77H-.1v-77zm76.8 0h174.4v77H76.7v-77z" class="st1"/><path d="M263 630.2h174.4v77H263v-77z" class="st6"/><path d="M449.4 630.2h174.4v77H449.4v-77z" class="st1"/><path d="M635.7 630.2h174.4v77H635.7v-77z" class="st4"/><path d="M822.1 630.2h58.8v77h-58.8v-77z" class="st1"/><path d="M-.1 540.3h174.4v77H-.1v-77z" class="st4"/><path d="M186.2 540.3h174.4v77H186.2v-77zm186.4 0H547v77H372.6v-77zm186.3 0h174.4v77H558.9v-77zm186.3 0h134v77h-134v-77zM-.1 360.5h174.4v77H-.1v-77z" class="st1"/><path d="M186.2 360.5h174.4v77H186.2v-77z" class="st2"/><path d="M372.6 360.5H547v77H372.6v-77zm186.3 0h174.4v77H558.9v-77zm186.3 0h134v77h-134v-77zM-.1 180.7h174.4v77H-.1v-77z" class="st1"/><path d="M186.2 180.7h174.4v77H186.2v-77z" class="st3"/><path d="M372.6 180.7H547v77H372.6v-77zm186.3 0h174.4v77H558.9v-77z" class="st1"/><path d="M745.2 180.7h134v77h-134v-77z" class="st6"/><path d="M-.1.9h174.4v77H-.1V.9z" class="st1"/><path d="M186.2.9h174.4v77H186.2V.9z" class="st4"/><path d="M372.6.9H547v77H372.6V.9zm186.3 0h174.4v77H558.9V.9z" class="st1"/><path d="M745.2.9h134v77h-134V.9z" class="st3"/><path d="M.4 720.2h879.5v160H.4v-160z" style="fill:#989898"/><linearGradient id="SVGID_1_" x1="804.62" x2="804.62" y1="493.21" y2="511.26" gradientTransform="matrix(1 0 0 -1 0 880)" gradientUnits="userSpaceOnUse"><stop offset="0" style="stop-color:#b2b2b2"/><stop offset=".99" style="stop-color:#cbcbcb"/></linearGradient><path d="M839.4 363.8h-69.5c-11 0-19.8 8.9-19.9 19.9v10.2s16.3.2 16.3-.3v-11.1c0-4.2 3.4-7.6 7.6-7.6h61.4c4.2 0 7.6 3.4 7.6 7.6v10.2l16.3.3v-9.3c0-11-8.9-19.8-19.8-19.9z" style="fill:url(#SVGID_1_)"/><path d="M696.2 742c.2 26.6 147.2 23.5 183.6 15.1.2-5.7-.2-21.8 0-27.7-2-.4-183.7-7.2-183.6 12.6z" class="st9"/><linearGradient id="SVGID_00000011014702653115296980000006772382697980492942_" x1="770.53" x2="771.07" y1="462.75" y2="418.62" gradientTransform="matrix(1 0 0 -1 0 880)" gradientUnits="userSpaceOnUse"><stop offset="0" style="stop-color:#989898"/><stop offset="1" style="stop-color:#b2b2b2"/></linearGradient><path d="M867.1 420.1c-68.6-1.1-137.2-.4-205.8 2.1l45.6 312 1.3 8.6c18.7 7.7 45 7.5 66.4 8.8 34.6.8 71.1 1 105.2-3.5V420.3l-12.7-.2z" style="fill:url(#SVGID_00000011014702653115296980000006772382697980492942_)"/><path d="M641.5 423.1c-.4 1.3 7.2 2.2 20.3 2.8l-.5-3.6c-12.6.4-19.8.8-19.8.8z" class="st9"/><linearGradient id="SVGID_00000137813366020472073640000000147087396841881275_" x1="720.03" x2="720.03" y1="455.62" y2="394.33" gradientTransform="matrix(1 0 0 -1 0 880)" gradientUnits="userSpaceOnUse"><stop offset="0" style="stop-color:#b2b2b2"/><stop offset=".99" style="stop-color:#cbcbcb"/></linearGradient><path d="M713.8 745.3c2.8.8 6.8 1.7 12.6 2.7v-.2c-5.8-.9-9.8-1.9-12.6-2.7v.2z" style="fill:url(#SVGID_00000137813366020472073640000000147087396841881275_)"/><linearGradient id="SVGID_00000052785805138858220520000004655819729391093165_" x1="692.71" x2="694.34" y1="462" y2="416.77" gradientTransform="matrix(1 0 0 -1 0 880)" gradientUnits="userSpaceOnUse"><stop offset="0" style="stop-color:#b2b2b2"/><stop offset=".99" style="stop-color:#cbcbcb"/></linearGradient><path d="M688.8 421.3c-6.5.2-12.4.4-17.7.6l42.6 323.2c2.8.8 6.8 1.8 12.6 2.7l-37.5-326.5z" style="fill:url(#SVGID_00000052785805138858220520000004655819729391093165_)"/><linearGradient id="SVGID_00000129208110909233423670000012548712679333087671_" x1="744.61" x2="744.61" y1="455.62" y2="394.33" gradientTransform="matrix(1 0 0 -1 0 880)" gradientUnits="userSpaceOnUse"><stop offset="0" style="stop-color:#b2b2b2"/><stop offset=".99" style="stop-color:#cbcbcb"/></linearGradient><path d="M738.8 749.5c3.9.4 7.8.7 11.7 1v-.2c-4.3-.3-8.2-.7-11.7-1v.2z" style="fill:url(#SVGID_00000129208110909233423670000012548712679333087671_)"/><linearGradient id="SVGID_00000044140237579806096860000002511899665420629131_" x1="722.5" x2="724.14" y1="463.08" y2="417.85" gradientTransform="matrix(1 0 0 -1 0 880)" gradientUnits="userSpaceOnUse"><stop offset="0" style="stop-color:#b2b2b2"/><stop offset=".99" style="stop-color:#cbcbcb"/></linearGradient><path d="M724.5 420.4c-6.2.1-12.1.3-17.8.4l32 328.6c3.9.4 7.8.8 11.7 1l-25.9-330z" style="fill:url(#SVGID_00000044140237579806096860000002511899665420629131_)"/><linearGradient id="SVGID_00000013178509816117615180000017524781580793347506_" x1="768.63" x2="768.63" y1="455.62" y2="394.33" gradientTransform="matrix(1 0 0 -1 0 880)" gradientUnits="userSpaceOnUse"><stop offset="0" style="stop-color:#b2b2b2"/><stop offset=".99" style="stop-color:#cbcbcb"/></linearGradient><path d="M762.7 751.3c3.7.2 7.7.3 11.9.5v-.2c-4.2-.1-8.2-.3-11.9-.5v.2z" style="fill:url(#SVGID_00000013178509816117615180000017524781580793347506_)"/><linearGradient id="SVGID_00000111903593857807472500000003787462459860904886_" x1="752.33" x2="753.96" y1="464.15" y2="418.93" gradientTransform="matrix(1 0 0 -1 0 880)" gradientUnits="userSpaceOnUse"><stop offset="0" style="stop-color:#b2b2b2"/><stop offset=".99" style="stop-color:#cbcbcb"/></linearGradient><path d="M760.1 419.8c-6.1.1-12 .2-17.8.2l20.3 331.1c3.7.2 7.7.3 11.9.5l-14.4-331.8z" style="fill:url(#SVGID_00000111903593857807472500000003787462459860904886_)"/><linearGradient id="SVGID_00000094614176209607407770000005511335692646423738_" x1="792.85" x2="792.85" y1="455.62" y2="394.33" gradientTransform="matrix(1 0 0 -1 0 880)" gradientUnits="userSpaceOnUse"><stop offset="0" style="stop-color:#b2b2b2"/><stop offset=".99" style="stop-color:#cbcbcb"/></linearGradient><path d="M786.8 752.1c3.8.1 7.9.1 12.1.1v-.2c-4.2 0-8.2-.1-12.1-.1v.2z" style="fill:url(#SVGID_00000094614176209607407770000005511335692646423738_)"/><linearGradient id="SVGID_00000136369410937882311270000001567785406433992845_" x1="785.13" x2="786.76" y1="465.34" y2="420.11" gradientTransform="matrix(1 0 0 -1 0 880)" gradientUnits="userSpaceOnUse"><stop offset="0" style="stop-color:#b2b2b2"/><stop offset=".99" style="stop-color:#cbcbcb"/></linearGradient><path d="M795.8 419.6c-6 0-12 0-17.8.1l8.8 332.3c3.8.1 7.9.1 12.1.1l-3.1-332.5z" style="fill:url(#SVGID_00000136369410937882311270000001567785406433992845_)"/><linearGradient id="SVGID_00000152252108445778254020000012780447130491538309_" x1="817.05" x2="817.05" y1="455.62" y2="394.33" gradientTransform="matrix(1 0 0 -1 0 880)" gradientUnits="userSpaceOnUse"><stop offset="0" style="stop-color:#b2b2b2"/><stop offset=".99" style="stop-color:#cbcbcb"/></linearGradient><path d="M811.2 752.2c4.1 0 8-.1 11.8-.1v-.1c-3.8.1-7.7.1-11.8.1v.1z" style="fill:url(#SVGID_00000152252108445778254020000012780447130491538309_)"/><linearGradient id="SVGID_00000173861884927652358300000013987911550729731258_" x1="815.09" x2="816.72" y1="466.42" y2="421.2" gradientTransform="matrix(1 0 0 -1 0 880)" gradientUnits="userSpaceOnUse"><stop offset="0" style="stop-color:#b2b2b2"/><stop offset=".99" style="stop-color:#cbcbcb"/></linearGradient><path d="m813.6 419.6-2.5 332.5c4.1 0 8-.1 11.8-.1l8.5-332.2c-5.8-.2-11.7-.2-17.8-.2z" style="fill:url(#SVGID_00000173861884927652358300000013987911550729731258_)"/><linearGradient id="SVGID_00000068661180629187754210000015682438782713038980_" x1="841.16" x2="841.16" y1="455.62" y2="394.33" gradientTransform="matrix(1 0 0 -1 0 880)" gradientUnits="userSpaceOnUse"><stop offset="0" style="stop-color:#b2b2b2"/><stop offset=".99" style="stop-color:#cbcbcb"/></linearGradient><path d="M835 751.8c4.3-.2 8.4-.3 12.2-.5v-.1c-3.8.2-7.9.4-12.2.5v.1z" style="fill:url(#SVGID_00000068661180629187754210000015682438782713038980_)"/><linearGradient id="SVGID_00000161620374405142195620000005962229045368866190_" x1="844.79" x2="846.43" y1="467.5" y2="422.27" gradientTransform="matrix(1 0 0 -1 0 880)" gradientUnits="userSpaceOnUse"><stop offset="0" style="stop-color:#b2b2b2"/><stop offset=".99" style="stop-color:#cbcbcb"/></linearGradient><path d="m849.3 419.9-14.2 331.8c4.3-.1 8.4-.3 12.2-.5l19.8-331c-5.8-.2-11.7-.3-17.8-.3z" style="fill:url(#SVGID_00000161620374405142195620000005962229045368866190_)"/><linearGradient id="SVGID_00000119095230180713810390000003262146202497004193_" x1="865.28" x2="865.28" y1="455.62" y2="394.33" gradientTransform="matrix(1 0 0 -1 0 880)" gradientUnits="userSpaceOnUse"><stop offset="0" style="stop-color:#b2b2b2"/><stop offset=".99" style="stop-color:#cbcbcb"/></linearGradient><path d="M859.1 750.5c4.6-.3 8.7-.7 12.4-1.1v-.1c-3.7.4-7.8.8-12.4 1.1v.1z" style="fill:url(#SVGID_00000119095230180713810390000003262146202497004193_)"/><linearGradient id="SVGID_00000015357241634438740950000014821058441991344544_" x1="862.3" x2="863.93" y1="468.13" y2="422.9" gradientTransform="matrix(1 0 0 -1 0 880)" gradientUnits="userSpaceOnUse"><stop offset="0" style="stop-color:#b2b2b2"/><stop offset=".99" style="stop-color:#cbcbcb"/></linearGradient><path d="M859.2 750.5c4.6-.3 8.7-.7 12.4-1.1l8.2-97.9V474.9l-20.6 275.6z" style="fill:url(#SVGID_00000015357241634438740950000014821058441991344544_)"/><path d="M803.2 389.5c-134.9 0-156.6 6.1-156.6 6.1l-5.1 27.5s80.2-3 147.6-3.4c48.8-.3 89 .6 90.7.6v-30c-20.4-.5-45.5-.8-76.6-.8z" style="fill:#cbcbcb"/><path d="M109.3 816c26.2-8 34.9-29.1 39.3-33.8 9.7-10.3 25.2-11 39.2-12.6 17-2 34.1-7.1 47.6-17.8 10.1-8 17.8-19.3 20.6-31.7H.4v78.4c31.4 16.7 83.1 25.4 108.9 17.5z" style="fill:#9ae4da"/><path d="M91 540.7c-1.8 20.8-2.3 41.6-1.5 62.4" style="fill:none;stroke:#8af756;stroke-width:4.34;stroke-linecap:round;stroke-miterlimit:10"/><path d="M33.4 311.6zm-15 10.8c5.1-4.5 15-10.7 15.1-10.8 15-4.7 10.8-24.7-3.8-20.3A94.95 94.95 0 0 0-.1 312.9v34.3c9.9-16.9 18.8-25 18.5-24.8zM55 375.3c3.9-15.3 7.1-26.2 7-25.8 1.8-8.5 8.6-16.8 6.9-25.6-2.6-8.1-15-8.9-18.5-1-5.2 16.7-9.7 33.6-13.6 50.6-9.6-.9-23.5-2.1-37-2.9v20.5c11 1.1 22 1.9 33 2.3-9.7 57.8 7.9 55 10.4 37.3 1.7-11.6 4.3-24.6 7.1-36.7l10.9.3c20.4.5 28.8-14.6-6.2-19z" class="st28"/><path d="M263 369.3c3.1-39.3-7.3-78-36.9-106.9-1.5-1.4-3-2.7-4.6-4 1.9-4.6 3.1-9.2 2.7-14-2.6-8.1-14.9-8.9-18.4-1l-2.5 5.8c-56.8-19.3-166.8 6.3-203.4 24.1v16.6c23.6-1 73-19 80.7-21.9-.7.3 66.8-18.9 114.5.1-6.1 14.1-12 28.3-17.7 42.6-27.5-1-55-1.5-82.5-1.4-12.9.8-11.6 21 1.5 20 19.8 0 48.1.7 73.1 1.5-2.1 5.3-4.1 10.6-6.1 15.9-3.1 12.6-24.6 47.9 1.5 43.5 6.9-1.2 16-29.2 26.3-58.7 19.6.7 33.5 1.3 33.1 1.3 5-.3 10.3.9 15.5 1.3 2.6 16.4 2.8 29.9 2.9 29.5.5 2.8.4 7.5-.5 13.5-9.3 4.2-18.4 8.9-27.2 14.1C108.8 453.3 51.1 495.3 22 521.8c-8.9-3.3-13.8-6.3-13.6-6.2-1.3-.9-4.6-3.7-8.5-8.1v24.6c2.4 1.5 4.9 2.9 7.5 4.2-2.7 3-5.2 6.1-7.5 9.5v13.3c2.9.1 7-1.3 11.3-4.1 4.2-3.7 8.7-7.5 13.4-11.4 7.4 2.4 14.9 4.3 22.5 5.5-.9 9.3-1.1 20.6-.6 26.3.1 1.1 1 2 2.2 2h.2c1.2-.1 2.1-1.2 2-2.4-.5-5.5-.3-16.5.6-25.3 13.4 1.7 27 1.8 40.4.3l-1.6 32.3c-.1 1.2.9 2.2 2.1 2.3h.1c1.2 0 2.1-.9 2.2-2.1l1.6-33.1c29.9-4.1 59.9-15.8 85.1-35.5l2.1-1.5-1 20.2c-.1 1.2.9 2.2 2 2.3h.1c1.1 0 2.1-.9 2.2-2.1L188 509c2.7-2.1 5.3-4.2 7.9-6.5-.9 16.7-1.1 33.3-.7 50 0 1.2 1 2.1 2.2 2.1h.1c1.2 0 2.1-1 2.1-2.2-.5-17.9-.2-36.1.9-54 28.9-27.1 50.6-65.7 59.2-105.6 7.4-3 14.8-5.8 22.3-8.5 25.2-8.8 18.4-25.9-19-15zm-115.4 142c-40.9 22.2-77.9 21.9-103.5 16.8 71.4-54.9 171.3-114.9 170.6-114.6 6.8-3.5 13.7-6.9 20.7-10.2-11.6 34.4-38 81-87.8 108zm50.7-199.8c4.2-11.3 8.6-22 12.9-30.4l1.2-3.6c2 1.5 4 3.1 5.8 4.8 8.1 6.4 13.6 18.4 17.2 31.2-12.4-.8-24.7-1.4-37.1-2z" class="st28"/></svg>