<svg xmlns="http://www.w3.org/2000/svg" id="BGs" viewBox="0 0 880 880"><defs><radialGradient id="radial-gradient" cx="438.56" cy="506.13" r="442.59" fx="438.56" fy="506.13" gradientTransform="matrix(1 0 0 1.1 .6 -129.72)" gradientUnits="userSpaceOnUse"><stop offset="0" stop-color="#ce1bb7"/><stop offset=".24" stop-color="#a1149a"/><stop offset="1" stop-color="#160040"/></radialGradient><style>.cls-2{stroke-width:0}.cls-3{fill:none;stroke:#fa003d;stroke-miterlimit:10;stroke-width:2.48px}.cls-2{fill:#fa003d}</style></defs><path d="M.07 0h880.28v880.1H.07z" style="stroke-width:0;fill:url(#radial-gradient)"/><path d="m560.46 440.5-1.86 1.64 321.42 371.33v-3.78L560.46 440.5zM584.42 440.42l-1.71 1.8 297.31 286.24v-3.45l-295.6-284.59zM608.38 440.36l-1.56 1.92 273.2 225.46v-3.22L608.38 440.36zM632.35 440.31l-1.44 2.02 249.11 179.88v-3.07L632.35 440.31zM656.32 440.27l-1.32 2.1L880.02 586.8v-2.95l-223.7-143.58zM680.3 440.24l-1.22 2.16 200.94 116.08v-2.87L680.3 440.24zM704.29 440.21l-1.14 2.21 176.87 92.88v-2.8l-175.73-92.29zM728.29 440.2l-1.07 2.24L880.02 516v-2.76L728.29 440.2zM752.28 440.18l-.99 2.28 128.73 57.2v-2.72l-127.74-56.76zM776.28 440.17l-.93 2.3 104.67 43.19v-2.69l-103.74-42.8zM800.29 440.16l-.88 2.32 80.61 31.05v-2.67l-79.73-30.7zM824.3 440.15l-.84 2.34 56.56 20.42v-2.65l-55.72-20.11zM848.31 440.14l-.79 2.36 32.5 11.04v-2.63l-31.71-10.77zM872.32 440.13l-.75 2.38 8.45 2.71v-2.62l-7.7-2.47zM7.19 442.51l-.75-2.38-6.4 2.06v2.61l7.15-2.29zM31.24 442.5l-.79-2.36L.04 450.47v2.63l31.2-10.6zM55.29 442.49l-.83-2.34L.04 459.79v2.65l55.25-19.95zM79.35 442.48l-.88-2.32-78.43 30.2v2.66l79.31-30.54zM103.41 442.47l-.94-2.3L.04 482.43v2.69l103.37-42.65zM127.47 442.46l-1-2.28L.04 496.36v2.72l127.43-56.62zM151.53 442.44l-1.06-2.24L.04 512.61v2.76l151.49-72.93zM175.6 442.42l-1.14-2.21L.04 531.81v2.81l175.56-92.2zM199.68 442.4l-1.23-2.16L.04 554.85v2.87L199.68 442.4zM223.76 442.37l-1.33-2.1L.04 583.01v2.95l223.72-143.59zM247.85 442.33l-1.44-2.02L.04 618.2v3.06l247.81-178.93zM271.94 442.28l-1.56-1.92L.04 663.44v3.22l271.9-224.38zM296.04 442.22l-1.7-1.8L.04 723.75v3.45l296-284.98zM320.15 442.14l-1.86-1.64L.04 808.18v3.79l320.11-369.83zM344.27 442.03l-2.03-1.42L38.1 879.84h3.01l303.16-437.81zM368.38 441.9l-2.19-1.16-228.04 439.1h2.79L368.38 441.9zM392.48 441.73l-2.33-.82-151.97 438.93h2.62l151.68-438.11zM416.56 441.53l-2.43-.42-75.95 438.73h2.51l75.87-438.31zM438.14 441.32h2.47v438.52h-2.47zM464.63 441.11l-2.44.42 75.88 438.31h2.51l-75.95-438.73zM488.61 440.91l-2.33.82 151.68 438.11h2.62L488.61 440.91zM512.57 440.74l-2.19 1.16 227.44 437.94h2.79l-228.04-439.1zM536.52 440.61l-2.03 1.42 303.16 437.81h3.01L536.52 440.61z" class="cls-2"/><path d="M-.05 441.28h880.02M-.05 444.15h880.02M-.05 447.13h880.02M-.05 450.25h880.02M-.05 453.5h880.16M.04 456.89h879.8M.07 460.45h879.9M-.05 464.16h880.02M.07 468.06h879.77M-.05 472.15h880.02M-.04 476.56l880.01-.11M.07 480.98h879.9M-.05 485.74h879.89M.04 490.77h879.93M.04 496.08h880.07M.04 501.69h879.93M.13 507.65h879.84M.04 513.96h879.93M.04 520.68h879.93M.04 527.85h880.07M-.03 535.39l880 .11M.07 543.68h880.04M.04 552.47h879.93M.07 561.91h879.9M.13 572.1h879.84M.04 583.12h880.07M.08 594.93l880.03.15M.04 608.11h879.93M0 622.35h880.11M0 637.98h879.97M0 655.21h879.97M.07 674.32h879.9M.13 695.61h879.84M.07 719.49h879.9M.13 746.46h879.84M.13 777.16h879.84M0 812.42h880.11M.13 853.33h879.98" class="cls-3"/><path d="m560.46 439.56-1.86-1.64L880.02 66.59v3.78L560.46 439.56zM584.42 439.64l-1.71-1.8 297.31-286.23v3.44l-295.6 284.59zM608.38 439.71l-1.56-1.93 273.2-225.46v3.22L608.38 439.71zM632.35 439.76l-1.44-2.03 249.11-179.88v3.07L632.35 439.76zM656.32 439.79l-1.32-2.1 225.02-144.43v2.96l-223.7 143.57zM680.3 439.82l-1.22-2.16 200.94-116.07v2.87L680.3 439.82zM704.29 439.85l-1.14-2.21 176.87-92.88v2.81l-175.73 92.28zM728.29 439.87l-1.07-2.25 152.8-73.56v2.76l-151.73 73.05zM752.28 439.88l-.99-2.28 128.73-57.2v2.72l-127.74 56.76zM776.28 439.9l-.93-2.31 104.67-43.19v2.69L776.28 439.9zM800.29 439.91l-.88-2.33 80.61-31.04v2.66l-79.73 30.71zM824.3 439.91l-.84-2.34 56.56-20.42v2.65l-55.72 20.11zM848.31 439.92l-.79-2.36 32.5-11.04v2.63l-31.71 10.77zM872.32 439.93l-.75-2.37 8.45-2.72v2.62l-7.7 2.47zM7.19 437.56l-.75 2.37-6.4-2.05v-2.62l7.15 2.3zM31.24 437.56l-.79 2.36L.04 429.59v-2.63l31.2 10.6zM55.29 437.57l-.83 2.34L.04 420.27v-2.65l55.25 19.95zM79.35 437.58l-.88 2.33L.04 409.7v-2.66l79.31 30.54zM103.41 437.59l-.94 2.31L.04 397.63v-2.69l103.37 42.65zM127.47 437.6l-1 2.28L.04 383.7v-2.72l127.43 56.62zM151.53 437.62l-1.06 2.25L.04 367.45v-2.76l151.49 72.93zM175.6 437.64l-1.14 2.21L.04 348.25v-2.81l175.56 92.2zM199.68 437.66l-1.23 2.16L.04 325.21v-2.87l199.64 115.32zM223.76 437.69l-1.33 2.1L.04 297.05v-2.95l223.72 143.59zM247.85 437.73l-1.44 2.03L.04 261.86v-3.06l247.81 178.93zM271.94 437.78l-1.56 1.93L.04 216.62v-3.22l271.9 224.38zM296.04 437.84l-1.7 1.8L.04 156.31v-3.45l296 284.98zM320.15 437.92l-1.86 1.64L.04 71.88v-3.79l320.11 369.83zM344.27 438.03l-2.03 1.43L38.1.23h3.01l303.16 437.8zM368.38 438.16l-2.19 1.16L138.15.23h2.79l227.44 437.93zM392.48 438.33l-2.33.82L238.18.23h2.62l151.68 438.1zM416.56 438.53l-2.43.43L338.18.23h2.51l75.87 438.3zM438.14.23h2.47v438.52h-2.47zM464.63 438.96l-2.44-.43L538.07.23h2.51l-75.95 438.73zM488.61 439.15l-2.33-.82L637.96.23h2.62L488.61 439.15zM512.57 439.32l-2.19-1.16L737.82.23h2.79L512.57 439.32zM536.52 439.46l-2.03-1.43L837.65.23h3.01L536.52 439.46z" class="cls-2"/><path d="M-.05 438.78h880.02M-.05 435.91h880.02M-.05 432.93h880.02M-.05 429.81h880.02M-.05 426.56h880.16M.04 423.17h879.8M.07 419.62h879.9M-.05 415.9h880.02M.07 412h879.77M-.05 407.91h880.02M-.04 403.51l880.01.1M.07 399.08h879.9M-.05 394.32h879.89M.04 389.3h879.93M.04 383.99h880.07M.04 378.37h879.93M.13 372.42h879.84M.04 366.1h879.93M.04 359.38h879.93M.04 352.21h880.07M-.03 344.67l880-.11M.07 336.38h880.04M.04 327.6h879.93M.07 318.15h879.9M.13 307.96h879.84M.04 296.94h880.07M.08 285.13l880.03-.15M.04 271.95h879.93M0 257.72h880.11M0 242.08h879.97M0 224.85h879.97M.07 205.74h879.9M.13 184.45h879.84M.07 160.57h879.9M.13 133.6h879.84M.13 102.91h879.84M0 67.65h880.11M.13 26.73h879.98" class="cls-3"/></svg>