<?xml version="1.0" encoding="UTF-8"?><svg id="BGs" xmlns="http://www.w3.org/2000/svg" viewBox="0 0 880 880"><defs><style>.cls-1{fill:none;}.cls-1,.cls-2,.cls-3,.cls-4{stroke-width:0px;}.cls-5{stroke-width:5.31px;}.cls-5,.cls-6,.cls-7,.cls-8,.cls-9{fill:#ffd45c;stroke:#ffd45c;stroke-miterlimit:10;}.cls-6{stroke-width:4.01px;}.cls-7{stroke-width:6.01px;}.cls-8{stroke-width:5.98px;}.cls-9{stroke-width:3.37px;}.cls-2{fill:#8af756;}.cls-3{fill:#fff;}.cls-4{fill:#00dbdb;}</style></defs><rect class="cls-4" x="-.14" y="-1.23" width="879.43" height="880.34"/><path class="cls-3" d="m164.51,609.43c.11,0,.22.01.33.01,2.33,0,4.34-1.7,4.7-4.03,1.68-10.73-2.5-21.36-10.4-26.44-4.85-3.12-11.43-3.77-17.17-1.71-.9.32-1.75.71-2.56,1.14-2.75-7.94-8.92-14.69-16.88-17.72-7.35-2.79-15.66-2.21-22.66,1.12,1.28-11.75,1.5-23.61.68-35.39-.35-5.04-1.02-10.82-4.42-15.66-6.73-9.57-20.28-10.17-30.71-6.53-12.55,4.38-24.06,13.77-33.3,27.16-6.59,9.54-11.41,20.01-15.81,30.41-4.61-3.68-10.41-5.88-16.45-6.46v49.02c54.86-.36,110.11,1.33,164.65,5.05Z"/><path class="cls-3" d="m229.71,85.51h0c-15.8-5.69-34.4-1.08-46.54,10.3-4.39-16.66-11-33.99-23.27-47.59-14.75-16.35-41.39-27.22-63.76-16.36-15.16,7.36-25.93,23.1-32.94,48.12-2.58,9.2-4.63,18.59-6.14,28.05-.06-.04-.11-.09-.17-.13-6.99-5.3-16.26-7.22-24.17-5.01-11.33,3.16-20.29,13.49-23.27,25.95-3.16-.62-6.43-.67-9.59-.12v33.15c.91.04,1.82.07,2.69.09.84.02,1.71.05,2.6.08.08,0,.15,0,.23,0s.15,0,.23,0c1.57-.06,157.52-6.12,233.93-10.37,3.67-.2,9.22-.51,13.51-4.32,3.65-3.24,4.89-7.71,5.5-10.8,4.16-20.92-8.79-43.82-28.85-51.05Z"/><path class="cls-3" d="m879.68,399.66c-15.16,7.36-25.93,23.1-32.94,48.12-2.58,9.2-4.63,18.59-6.14,28.05-.06-.04-.11-.09-.17-.13-6.99-5.3-16.25-7.23-24.17-5.01-11.33,3.16-20.29,13.49-23.27,25.95-3.34-.66-6.82-.69-10.15-.03-6.82,1.35-12.19,4.54-15.14,8.99-2.33,3.52-3.08,7.68-2.17,12.03,2.43,11.61,12.48,11.89,20.56,12.13.84.02,1.71.05,2.6.08.08,0,.15,0,.23,0s.16,0,.23,0c.8-.03,41.72-1.62,91.77-3.74v-127.01c-.42.19-.83.36-1.25.56Z"/><path class="cls-1" d="m880.93,727.19v-3.57c-1.8-.29-3.7-.47-5.78-.56,1.77,1.5,3.71,2.87,5.78,4.13Z"/><path class="cls-2" d="m880.93,881.57v-154.38c-2.06-1.26-4.01-2.63-5.78-4.13,2.07.08,3.98.27,5.78.56v-4.63c-4.64-2.69-9.96-4.97-16.23-6.48,5.65.8,11.28,1.41,15.03,4.08-6.08-4.29-15.7-10.17-27.53-10.76,7-1.22,11.16-.64,15.53,1.91-4.01-4.62-10.64-6.75-20.36-6.78,6.67.02,13.7-1.87,20.69-5.63-13.48,3.94-23.45.84-35.43-.85,11.29-2.79,21.86-5.33,31.59-10.6-8.49,1.62-16.94,3.11-25.03,2.01,5.09-2.29,10.15-4.68,15.69-6.52-13.94,3.07-25.07-.17-35.07-3.62,7.47-3.65,17.75-5.73,24.51-3.37-8.93-3.49-19.23-8.62-31.29-8.57,13.11-6.36,25.97-3.73,38.55-1.54-14.67-5.23-31.55-9.87-51.79-2.64,19.59-10.05,41.51-14.03,63.28-11.66-28.44-9.12-53.87,1.5-85.14,8.48,6.56-7.63,15.22-16.68,33.45-18.66-10.18-2.09-23.63,1.54-34,6.46,8.25-4.29,15.57-8.77,20.88-14.12-11.25,6.02-26.12,10.75-40.45,13.5,10.59-6.75,16.45-14.7,22.78-21.88-6.72,2.84-14.56,5.8-22.18,6.59,15.71-8.87,28.28-17.19,32.44-27.47-8.37,5.92-20.25,10.49-32.6,13.8,7.03-3.84,11.01-7.5,16.89-11.46-14.99,6.31-32.4,10.75-48.6,9.84,4.62-.8,11.91-2.78,17.23-5.07-14.29,2.15-29.39.85-41.04-.48,13.62-6.2,26.58-10.19,39.1-9.23-7.9-3.4-14.9-6.39-26.89-5.62,11.82-2.73,22.59-4.05,32.64-2.8-15.8-4.78-37.88-6.73-63.65,2.08,10.77-5.45,25.72-9.44,37.21-9.31-11.78-2.6-32.15-3.89-53.47,4.78,9.16-4.56,19.93-8.52,29.05-8.97-15.32-.25-34.06,1.83-51.54,10.96,9.14-5.82,16.95-10.57,28.36-13.37-16.44,1.74-35.48,8.72-49.13,19.04,15.84-12.53,31.56-25.36,37.13-36.76-7.79,8.3-22.47,14.61-34.48,22.6,10.4-9.89,12.55-16.98,13.99-25.41-5.79,6.73-15.35,15.38-27.64,20.83,9.47-7.35,16.89-14.24,21.54-21.24-15.79,11.05-37.18,24.77-59.74,34.26,11.39-16.26,33.68-33.78,63.07-44.51-26.98,1.92-52.88,17.09-79.78,30.85,15.65-11.01,22.14-17.11,51.33-29.5-26.78,8.04-49.79,21.7-73.51,37.12,13.16-13.4,24.78-25.21,28.36-36.37-6.05,8.43-26.82,28.11-47.51,46.65,2.94-7.18,8.24-11.99,12.52-16.07-11.69,1.65-25.89,6.27-32.84,14.78,1.57-5.79,3.96-10.87,10.86-13.26-12.92,1.3-24.11,6.74-28.77,16.27.87-7.15,2.43-13.56,9.12-17.8-8.69,1.92-15.16,4.63-19.48,11.72,2-7.12,7.47-20.58,19.49-25.06-14.07,2.12-28.8,4.23-38.29,13.58,2.37-3.77,9.03-11.09,17.06-13.02-17.61,1.83-34.33,10.58-42.88,22.59-1.48-9.63,4.57-17.63,15.66-20.71-12.49,2.7-23.94,11.01-27.81,21.05.9-10.48,11.24-18.17,17.4-26.87-11.71,9.37-25.56,17.62-32.38,30.17,4.83-10.14-.53-21.61-6.73-31.98,4.41,8.64.61,15.97-3.29,23.99-1.83-6.21-3.43-12.52-6.05-18.62,2.1,9.27-2.9,17.9-7.18,25.68.47-13.74.94-28.48-7.85-42.64,3.68,14.46-.53,26.22-12.3,36.97,3.31-9.8,1.01-19.92-4.8-30.93,5.66,15.12.09,26.5-11.19,37.26,2.91-6.41,6.84-13.11,6.63-20.55-3.24,13.66-16.45,25.1-35.17,29.92,2.89-5.78,7.23-9.44,14.75-12.14-13.04,3.08-26.26,7.73-35.42,16.23,3.07-3.86,5.66-7.82,11.17-9.73-8.91,3.11-21.32,8.3-26.09,16.58.26-5.42,2.4-8.23,7.91-10.61-8.87,1.47-14.24,5.61-17.43,12.49,2.2-4.72,1.25-10.37-3.28-16.38,3.05,10.73-5.38,16.93-12.17,24.73-.6-8.7-1.61-16.86-8.14-24.94.68,6.32.71,12.62-3.63,17.92-2.17-4.14-4.67-8.23-6.34-12.48,1.47,10.38-7.55,17.21-16.41,23.07-3.35-5.94-3.84-13.29,1.91-17.39-8.28,5.32-19.63,11.19-23.43,19.17-6.12-9.95,1.52-17.91,8.23-26.04-12.41,9.03-24.15,19.28-19.37,33.88-9.35-14.82-10.79-29.38-2.83-43.54-20.78,17.74-9.03,35.35-10.07,57.07-9.46-5.84-20.87-12.62-19.06-24.5-6.25,6.35-4.39,15.37-.24,22.78-3.87-5.99-8.81-11.29-16.12-15.2,6.66,7.69,9.12,17.87,7.8,27.34-6.38-7.8-17.11-12.44-26.79-16.89,2.55,4.4,4.63,9.6,3.13,14.44-8.32-10.72-18.52-18.97-34.63-21.35,7.76,5.05,11.78,12.57,12.88,20.37-3.79-4.54-8.5-7.1-13.27-10.72,6.08,9.23,6.97,20.29-.67,30.14.54-2.87.14-7.44-1.64-10.77-1.57,8.84-9.52,18.01-16.25,25.02-3.87-8.48-5.55-16.28.17-23.94-8.1,4.85-15.14,9.2-18.3,16.45.07-7.1,1.5-13.56,6.67-19.74-12.75,9.87-22.74,23.27-19.75,38.53-3.84-6.36-4.56-15.11-.48-22.08-8.2,7.35-17.16,19.66-13.04,32.06-2.97-5.32-4.86-11.5-2.21-16.98-6.06,9.31-10.14,20.35-4.56,30.45-4.45-5.26-8.27-9.59-8-16.23-3.78,9.79-1.53,20.61,6.64,28.53-3.78-3.39-7.89-6.66-12.35-9.51v155.43h882.7Z"/><path class="cls-7" d="m115.36,659.66c-6.02-6.24-11.1-1.59-12.2-3.44-.76-1.27,3.49-12.54-1.09-17.43-12.27-13.09-19.67,4.6-14.58,18.1-5.64-2.85-16.79-3.93-18.8,2.54-2.42,7.79,10.83,5.02,15.48,6.99-2.41,3.36-8.12,11.72-2.32,14.1,7.05,2.46,14.97-3.55,14.47-11.01,7.62,9.52,30.3,1.81,19.05-9.85Z"/><path class="cls-5" d="m826.74,656.74c-6.5-4.04-9.85,1.04-11.19-.3-.93-.92.27-11.49-4.71-14.69-13.35-8.55-15.85,8.2-8.57,18.66-5.45-1.22-15.23.27-15.55,6.25-.39,7.2,10.36,1.96,14.77,2.63-1.34,3.4-4.42,11.8,1.06,12.58,6.58.58,12.05-6.28,10.01-12.56,8.59,6.51,26.34-5.01,14.18-12.56Z"/><path class="cls-9" d="m774.68,695.67c-1.11-4.74-4.89-3.96-4.9-5.17,0-.83,5.29-5.04,4.49-8.72-2.15-9.84-10.81-3.44-12.24,4.54-1.9-3-6.97-6.72-9.8-4.18-3.41,3.06,3.78,5.54,5.45,7.82-2.13.93-7.29,3.32-5.18,6.13,2.69,3.22,8.24,2.59,10.14-1.15.94,6.79,14.1,9.59,12.02.73Z"/><path class="cls-6" d="m773.73,636.72c-5.52-1.75-7.03,2.6-8.26,1.86-.85-.5-1.94-8.48-6.19-9.89-11.38-3.79-10.1,8.96-2.81,15.28-4.22.12-11.11,3.03-10.24,7.47,1.06,5.35,7.96-.5,11.32-.82-.35,2.74-1.04,9.47,3.12,9.02,4.93-.8,7.66-6.85,5-11.07,7.51,3.17,18.38-8.58,8.06-11.85Z"/><path class="cls-8" d="m164.92,681.25c-2.19,0-3.98,1.75-5.14,3.6s-1.98,3.97-3.54,5.5l-1.82-1.6c-1.61-1.33-3.46-2.47-5.52-2.8-2.06-.34-4.36.24-5.7,1.84-1.91,2.28-1.28,5.92.65,8.18s4.81,3.45,7.62,4.42c-1.72,1.89-3.06,4.12-3.9,6.53-.44,1.25-.75,2.59-.51,3.89.24,1.3,1.14,2.55,2.43,2.87.75.19,1.55.04,2.29-.19,3.07-.98,5.55-3.65,6.3-6.79,2.02,1.44,4.22,2.93,6.7,2.97,3.56.06,6.73-3.48,6.27-7.01-.46-3.53-4.43-6.15-7.85-5.18,1.5-1.77,3.2-3.37,4.51-5.29,1.31-1.92,2.21-4.25,1.84-6.53-.37-2.29-2.3-4.41-4.62-4.42Z"/><path class="cls-8" d="m48.31,706.84c-1.1,1.89-.49,4.32.54,6.26s2.44,3.7,2.99,5.82l-2.29.77c-1.96.72-3.87,1.75-5.2,3.37-1.33,1.61-1.98,3.89-1.26,5.85,1.02,2.8,4.48,4.07,7.4,3.54s5.4-2.43,7.65-4.37c.77,2.43,2.03,4.71,3.69,6.65.86,1.01,1.86,1.95,3.11,2.39,1.25.45,2.78.29,3.7-.66.54-.56.81-1.32.98-2.08.69-3.15-.37-6.63-2.72-8.85,2.26-1.03,4.65-2.18,5.93-4.3,1.84-3.04.36-7.57-2.92-8.94-3.28-1.37-7.54.74-8.42,4.19-.77-2.19-1.31-4.46-2.31-6.55-1-2.09-2.56-4.04-4.73-4.87-2.16-.83-4.97-.22-6.14,1.78Z"/></svg>