<svg xmlns="http://www.w3.org/2000/svg" id="BGs" viewBox="0 0 880 880"><defs><style>.cls-2{stroke-width:0;fill:#fff}</style></defs><path d="M-1.51.56h880v879.12h-880z" style="stroke-width:0;fill:#083330"/><path d="M438.49 440.12c-85.82 93.32-171.65 186.63-233.58 327.92-15.22 34.23-29.02 71.33-41.21 111.64h62.96a910.53 910.53 0 0 1 20.67-84.86c43.65-148.52 117.41-251.61 191.16-354.7Z" class="cls-2"/><path d="M293.74 567.23c46.84-46.57 95.93-86.44 144.75-127.11-107.17 67.35-213.89 136.9-310.83 254.6C84.32 746.91 42.84 808.28 3.4 879.68h80.88c23.8-55.13 49.62-104.24 77.23-148.03 40.74-64.78 85.37-117.96 132.24-164.42Z" class="cls-2"/><path d="M95.41 648.89c112.33-102.56 227.62-156.96 343.08-208.77-120.94 37.24-242.04 77.08-366.11 165A1074.74 1074.74 0 0 0-1.51 662.1v86.49c32.07-37.11 64.38-70.33 96.92-99.71Z" class="cls-2"/><path d="M438.49 440.12c-63.47 3.04-126.66 5.28-192.11 14.23-65.41 8.84-133.07 24.39-204.61 51.54a969.95 969.95 0 0 0-43.28 17.6v60.33a999.37 999.37 0 0 1 54.49-30.37c135.18-70.65 260.57-93.08 385.51-113.32Z" class="cls-2"/><path d="M438.49 440.12c-123.69-27.73-247.37-55.45-401.16-37.74a888.78 888.78 0 0 0-38.84 5.28v53.24a882.84 882.84 0 0 1 37.55-9.61c150.08-35.7 276.26-23.43 402.45-11.17Z" class="cls-2"/><path d="M438.49 440.12c-126.71-66.56-253.73-132.84-440-146.74v54.54c178.98-5.82 309.62 43.05 440 92.21Z" class="cls-2"/><path d="M438.49 440.12c-93.32-85.82-186.63-171.65-327.92-233.58-34.36-15.28-71.6-29.12-112.08-41.34v63a908.29 908.29 0 0 1 85.3 20.76c148.52 43.65 251.61 117.41 354.7 191.16Z" class="cls-2"/><path d="M311.38 295.37c46.57 46.84 86.44 95.93 127.11 144.75-67.35-107.17-136.9-213.89-254.6-310.84C131.59 85.86 70.08 44.3-1.51 4.78v80.93c55.31 23.86 104.57 49.74 148.47 77.42 64.78 40.74 117.96 85.37 164.42 132.24Z" class="cls-2"/><path d="M229.72 97.05c102.56 112.33 156.96 227.62 208.77 343.08-37.24-120.94-77.08-242.04-165-366.11A1073.9 1073.9 0 0 0 216.88.57h-86.35c36.9 31.92 69.95 64.09 99.2 96.48Z" class="cls-2"/><path d="M438.49 440.12c-3.04-63.47-5.28-126.66-14.23-192.11-8.84-65.41-24.39-133.07-51.54-204.61A961.84 961.84 0 0 0 355.31.56h-60.25a1003.14 1003.14 0 0 1 30.11 54.05c70.65 135.18 93.08 260.57 113.32 385.51Z" class="cls-2"/><path d="M438.49 440.12c27.73-123.69 55.45-247.37 37.74-401.16a881.6 881.6 0 0 0-5.21-38.4h-53.19a888.51 888.51 0 0 1 9.49 37.11c35.7 150.08 23.43 276.26 11.17 402.45Z" class="cls-2"/><path d="M438.49 440.12C504.99 313.52 571.22 186.6 585.2.56h-54.49c5.73 178.75-43.1 309.29-92.22 439.56Z" class="cls-2"/><path d="M438.49 440.12c85.82-93.32 171.65-186.63 233.58-327.92C687.29 77.97 701.09 40.87 713.28.56h-62.96a910.53 910.53 0 0 1-20.67 84.86C586 233.94 512.24 337.03 438.49 440.12Z" class="cls-2"/><path d="M583.23 313.01c-46.84 46.57-95.93 86.44-144.75 127.11 107.17-67.35 213.89-136.9 310.83-254.6C792.65 133.33 834.13 71.96 873.57.56h-80.88c-23.8 55.13-49.62 104.24-77.23 148.03-40.74 64.78-85.37 117.96-132.24 164.42Z" class="cls-2"/><path d="M781.56 231.35C669.23 333.91 553.94 388.31 438.48 440.12c120.94-37.24 242.04-77.08 366.11-165 24.52-17.2 49.15-36.2 73.89-56.98v-86.49c-32.07 37.11-64.38 70.33-96.92 99.71Z" class="cls-2"/><path d="M438.49 440.12c63.47-3.04 126.66-5.28 192.11-14.23 65.41-8.84 133.07-24.39 204.61-51.54a969.95 969.95 0 0 0 43.28-17.6v-60.33A999.37 999.37 0 0 1 824 326.79c-135.18 70.65-260.57 93.08-385.51 113.32Z" class="cls-2"/><path d="M438.49 440.12c123.69 27.73 247.37 55.45 401.16 37.74a888.78 888.78 0 0 0 38.84-5.28v-53.24a882.84 882.84 0 0 1-37.55 9.61c-150.08 35.7-276.26 23.43-402.45 11.17Z" class="cls-2"/><path d="M438.49 440.12c126.71 66.56 253.72 132.84 440 146.75v-54.54c-178.98 5.82-309.62-43.05-440-92.21Z" class="cls-2"/><path d="M438.49 440.12c93.32 85.82 186.63 171.65 327.92 233.58 34.36 15.28 71.6 29.12 112.08 41.34v-63a908.29 908.29 0 0 1-85.3-20.76c-148.52-43.65-251.61-117.41-354.7-191.16Z" class="cls-2"/><path d="M565.6 584.87c-46.57-46.84-86.44-95.93-127.11-144.75 67.35 107.17 136.9 213.89 254.6 310.84 52.3 43.43 113.81 84.99 185.4 124.5v-80.93c-55.31-23.86-104.57-49.74-148.47-77.42-64.78-40.74-117.96-85.37-164.42-132.24Z" class="cls-2"/><path d="M647.26 783.2C544.7 670.87 490.3 555.58 438.49 440.12c37.24 120.94 77.08 242.04 165 366.11a1073.9 1073.9 0 0 0 56.61 73.45h86.35c-36.9-31.92-69.95-64.09-99.19-96.48Z" class="cls-2"/><path d="M438.49 440.12c3.04 63.47 5.28 126.66 14.23 192.11 8.84 65.41 24.39 133.07 51.54 204.61a961.84 961.84 0 0 0 17.41 42.84h60.25a1003.14 1003.14 0 0 1-30.11-54.05c-70.65-135.18-93.08-260.57-113.32-385.51Z" class="cls-2"/><path d="M438.49 440.12c-27.73 123.69-55.45 247.37-37.74 401.16a881.6 881.6 0 0 0 5.21 38.4h53.19a888.51 888.51 0 0 1-9.49-37.11c-35.7-150.08-23.43-276.26-11.17-402.45Z" class="cls-2"/><path d="M438.49 440.12c-66.51 126.61-132.74 253.52-146.71 439.56h54.49c-5.73-178.75 43.1-309.29 92.22-439.56Z" class="cls-2"/></svg>