<?xml version="1.0" encoding="UTF-8"?><svg id="BGs" xmlns="http://www.w3.org/2000/svg" viewBox="0 0 880 880"><defs><style>.cls-1{fill:#c8a5db;}.cls-1,.cls-2{stroke-width:0px;}.cls-2{fill:#8af756;}</style></defs><rect class="cls-1" x=".42" y="-.14" width="879.42" height="879.75"/><path class="cls-2" d="m491.91-.14h-86.14c-18.06,6.83-36.43,12.82-55.23,17.57-66.34,16.75-132.32,13.31-196.95-8.38-8.36-2.81-16.59-5.9-24.73-9.19H54.15c35.21,18.08,69.78,37.39,107.54,50.01,117.79,39.36,225.78.6,330.21-50.01Z"/><path class="cls-2" d="m194.26,129.53c134.76,43.06,258.68-26.14,372.14-91.4,23.19-13.34,46.95-26.53,71.15-38.27h-66.99c-3.38,1.81-6.76,3.62-10.13,5.44-118.94,64.22-245.9,132.62-384.35,86.63C126.77,75.55,83.82,46.4,37.24,24.15,24.58,18.1,11.96,13.07-.68,9.02v28.6c17.76,4.89,35.42,11.73,53.11,20.66,47.3,23.88,90.92,54.99,141.83,71.26Z"/><path class="cls-2" d="m228.75,201.59c127.69,40.33,241.41-27.65,343.83-95.74,89.8-59.69,197.77-121.5,303.55-63.45,1.24.68,2.47,1.37,3.7,2.06V9.31c-7.58-3.68-15.16-6.83-22.74-9.45h-135.93c-52.64,15.31-103.55,44.71-150.75,73.91-107.21,66.3-225.93,135.3-356.45,94.4-55.71-17.46-102.14-53.19-153.59-79.45-20.32-10.37-40.61-17.91-61.07-22.9v24.47c23.56,5.38,46.87,14.05,70.18,26.38,53.26,28.17,101.11,66.55,159.25,84.92Z"/><path class="cls-2" d="m571.35,140.6c-97.02,70.13-204.7,135.74-329.22,96.12-60.91-19.38-110.48-60.71-165.86-90.97-25.53-13.95-51.07-23.62-76.96-29.46v24.72c26.94,6.25,53.52,16.58,80.05,31.43,57.16,32.02,108.14,75.9,171.43,96.06,121.58,38.73,223.79-24.01,315.73-95.95,79.59-62.28,179.31-122.07,279.82-68.86,11.68,6.18,22.75,13.27,33.5,20.87v-39.25c-6.04-3.91-12.21-7.64-18.55-11.1-102.28-55.85-206.02,5.73-289.93,66.39Z"/><path class="cls-2" d="m557.79,206.24c-38.63,32.9-77.16,66.82-124.47,86.84-56.65,23.97-122.77,28.05-181.34,8.82-61.91-20.33-111.91-63.51-167.26-96.19-28.27-16.7-56.61-28.36-85.4-35.45v32.96c26.31,7.45,52.28,18.56,78.23,33.6,56.66,32.84,108.37,75.8,171.68,95.75,57.47,18.11,121.57,15.22,176.58-9.8,44.94-20.44,80.9-54.41,117.46-86.64,75.63-66.67,169.7-111.49,269.22-66.03,23.87,10.9,45.8,25.15,67.36,40v-42.83c-16.25-11.92-33.01-23.06-51.16-32-99.5-49-195.15,6.47-270.89,70.99Z"/><path class="cls-2" d="m536.2,263.07c-36.89,31.06-72.2,65.05-115.79,86.82-55.08,27.51-118.7,31.28-177.53,13.86-66.1-19.57-120.67-63.22-179.98-96.47-21.09-11.82-42.23-21.27-63.59-28.41v31.89c15.65,6.06,31.2,13.31,46.71,21.78,61.12,33.38,117.35,77.31,185.09,97.09,59.03,17.23,120.98,13.63,176.54-12.96,46.66-22.33,85.09-57.27,125.63-88.64,81.87-63.34,180.98-94.09,279.94-49.63,23.13,10.39,44.97,23.19,66.61,36.35v-27.19c-24.07-15.33-48.36-30.26-74.57-41.65-97.38-42.31-192.3-7.5-269.07,57.15Z"/><path class="cls-2" d="m535.28,313.33c-99.09,68.04-191.47,140.29-319.32,103.21-66.3-19.23-122.23-61.02-181.94-93.92-11.57-6.38-23.13-12.12-34.7-17.27v31.9c7.35,3.63,14.7,7.49,22.04,11.58,59.89,33.34,116.63,74.55,183.63,92.87,130.77,35.76,230.86-42.31,336.02-106.27,92.29-56.13,201.46-84.8,302.98-35.44,12.2,5.93,24.09,12.41,35.85,19.14v-20.04c-17.94-10.59-36.09-20.76-55.07-29.38-99.77-45.34-203.04-15.74-289.49,43.62Z"/><path class="cls-2" d="m553.14,357.38c-115.12,60.76-226.96,147.64-364.84,110.04-67.78-18.48-125.24-59.79-185.92-93.39-1.02-.57-2.04-1.11-3.06-1.67v32.96c55.61,31.68,109.43,68.07,171.69,85.6,143.33,40.36,265.9-51.68,389-109.53,100.83-47.39,217.1-72.2,319.83-19.19v-21.8c-5.52-3.04-11.09-6-16.72-8.86-100.9-51.21-214.1-24.77-309.98,25.83Z"/><path class="cls-2" d="m563.59,410.59c-126.42,53.63-255.87,146.27-399.94,109.32-59.54-15.27-111.72-47.88-164.34-78.48v33.6c48.04,27.85,96.26,56.02,150.32,70.42,149.47,39.81,284.71-55.95,418.43-106.66,101.94-38.66,211.31-54.29,311.77-12.96v-34.32c-101.74-45.27-214.78-23.97-316.24,19.08Z"/><path class="cls-2" d="m565.12,474.92c-135.32,46.45-268.09,138.63-417.23,102.8-53.29-12.8-101.25-39-148.57-65.88v31.73c46.62,26.29,93.93,51.72,146.29,64.53,146.47,35.86,275.1-51.87,407.9-97.93,74.78-25.93,153.17-38.63,232.01-26.58,33.48,5.12,63.86,15.48,94.33,28.13v-38.55c-102.15-40.39-208.86-34.61-314.72,1.73Z"/><path class="cls-2" d="m555.33,537.83c-130.18,48.47-254.83,138.74-400.44,104.23-56.02-13.28-106.07-41.74-155.57-70.27v22.52c52.98,31.05,106.12,63.46,166.34,78.05,142.89,34.62,261.08-56.76,386.06-108.86,65.87-27.46,135.79-42.72,207.38-36.34,43.17,3.85,81.82,18.21,120.74,35.86v-24.39c-34.39-14.85-68.54-26.63-106.5-31.23-74.5-9.04-148.18,4.43-218.01,30.43Z"/><path class="cls-2" d="m741.31,547.87c-68.37-3.45-133.59,14.08-194.79,43.55-118.82,57.2-229.12,149.97-369.57,112.51-64.55-17.22-120.72-54.51-177.63-88.06v18.24c3.89,2.24,7.77,4.52,11.65,6.83,59.07,35.29,117.13,75.42,184.48,93.39,136.06,36.29,235.94-55.4,346.59-116.65,56.26-31.15,117.04-50.93,181.93-50.07,51.73.69,99.68,21.48,145.69,43.42,3.39,1.62,6.79,3.25,10.18,4.89v-25.93c-.43-.21-.87-.41-1.3-.62-43.9-20.77-88.15-39.02-137.23-41.5Z"/><path class="cls-2" d="m705.67,591.71c-61.16,1.83-116.63,23.19-167.57,56.08-101.44,65.5-190.59,154.51-321.92,119.41-68.62-18.34-127.43-60.02-187.23-96.51-9.85-6.01-19.71-11.78-29.63-17.29v18.31c15.01,8.01,29.87,16.65,44.68,25.84,60.18,37.36,119.25,80.29,188.5,99.39,64.04,17.66,124.7,7.38,181.38-26.42,44.23-26.38,81.06-62.87,122.44-93.18,45.88-33.6,96.8-56.11,154.15-59.64,55.96-3.45,111.98,21.37,161.7,44.56,9.19,4.29,18.42,8.74,27.68,13.3v-29.71c-6.52-3.2-13.02-6.36-19.5-9.44-48.06-22.87-100.42-46.33-154.66-44.7Z"/><path class="cls-2" d="m676.7,651.71c-53.98,4.97-100.65,28.03-142.06,62.08-37.09,30.5-69.66,66.53-110.83,91.88-55.69,34.29-116.88,41.34-179.46,22.49-67.68-20.39-125.29-62.82-184.29-100.14-20.06-12.69-40.24-24.39-60.74-34.84v22.11c24.81,12.17,49.1,26.21,73.22,41.71,59.26,38.07,117.48,82.13,186.05,102.12,59.38,17.31,119.61,12.87,173.16-19.15,40.48-24.21,70.82-60.7,106.19-91.17,37.56-32.36,80.36-53.46,130.11-58.7,57.63-6.07,118.14,16.05,170.63,37.72,13.74,5.67,27.45,11.72,41.16,17.98v-35.29c-11.17-5.36-22.3-10.58-33.41-15.55-51.74-23.15-112.01-48.56-169.72-43.24Z"/><path class="cls-2" d="m540.07,795.27c-32.98,28.28-61.3,62.02-100,83.03-1.31.71-2.63,1.4-3.96,2.07h58.56c16.39-13.4,32.02-27.88,48.7-41.08,86.69-68.58,200.8-56.35,300.17-23.73,12.21,4.01,24.3,8.25,36.29,12.62v-40.01c-13.43-5.51-26.91-10.84-40.49-15.84-101.56-37.38-211.74-52.13-299.28,22.93Z"/><path class="cls-2" d="m176.32,880.38h57.09c-54.63-23-103.21-59.56-152.59-91.66-26.78-17.41-53.79-32.98-81.5-46.15v29.59c28.48,13.37,56.21,29.27,83.69,47.13,30.87,20.07,61.41,41.9,93.31,61.08Z"/><path class="cls-2" d="m545.66,870.48c-4.49,3.23-8.92,6.54-13.32,9.9h44.43c87.89-42.03,186.18-34.1,279.1-1.2,1.12.4,2.24.8,3.36,1.2h20.61v-20.58c-10.84-4.02-21.77-7.91-32.82-11.62-100.66-33.8-211.61-42.29-301.36,22.31Z"/><path class="cls-2" d="m77.84,851.67c-25.86-15.99-51.91-30.35-78.53-42.67v35.18c23.33,10.42,46.3,22.3,69.15,35.38.47.27.95.54,1.42.82h53.36c-15.18-9.62-30.26-19.35-45.41-28.71Z"/></svg>