<svg xmlns="http://www.w3.org/2000/svg" id="BGs" viewBox="0 0 880 880"><defs><style>.cls-1{fill:#9ae4da;stroke-width:0}</style></defs><path d="M1.21.95h880v879.12h-880z" style="fill:#ffe5ab;stroke-width:0"/><path d="M230.62 24.25a325.62 325.62 0 0 0 4.33-23.05H91.12C76.75 52.98 46.88 100.25-.23 137.32v127.25c98.2-62.27 203.28-122.21 230.85-240.32ZM28.73 500.5C122.21 288.25 446.88 278.63 437.77 1.2h-92.98C357.92 209.28 119.31 255.07-.23 374.23V794.1c14.24 28.09 27.87 56.6 39.58 85.16h91.57C74.67 756.85-33.13 636.16 28.72 500.5Z" class="cls-1"/><path d="M190.64 669.5c-6.71-68.94 14.8-146 56.52-205.12C370.25 323.57 586.68 218.64 574.53 1.2h-71.7c20.04 298.11-382.55 333.66-403.26 604.42.54 93.38 66.48 187.33 103.35 273.64h55.4c-32.28-64.83-62.77-136.06-67.67-209.76Z" class="cls-1"/><path d="M326.11 728.26C288.5 411.3 670.18 346 686.52 1.2h-64.88c2.47 390.27-540.51 401.9-307.89 878.06h53.97c-20.37-48.77-35.66-99.26-41.62-151Z" class="cls-1"/><path d="M455.4 815.43C386.5 450.68 818.91 317.7 817.2 1.2h-75.13c-1.25 381.23-491.83 439.46-320.78 878.06h55.79c-10.44-20.82-17.48-41.12-21.68-63.83Z" class="cls-1"/><path d="M577.6 717.15c17.7-88.54 70.81-163.58 125.54-233.53 60.02-79.87 124.2-158 176.63-243.89V1.2h-13.74c-1 184.52-135.22 340.45-241.56 481.87-35.83 40.73-72.09 80.99-92.64 131.83-32 76.79-29.14 188.23 7.34 264.37h61.06c-22.27-51.29-35.89-104.28-22.63-162.11Z" class="cls-1"/><path d="M759.59 677.41c40.78-57.51 81.57-114.31 120.19-173.06V365.79c-34.11 52.99-68.51 104.62-107.03 154.44-39.96 57.36-95.61 106.52-118.02 174.26-22.21 69.05-14.45 121.28 21 184.77h72.05c-25.7-66.97-37.38-138.02 11.82-201.85ZM813.12 804.09a2275.3 2275.3 0 0 1 29.68 75.17h36.98V624.6c-31.37 53.45-90.25 114.94-66.66 179.49Z" class="cls-1"/></svg>