<svg xmlns="http://www.w3.org/2000/svg" id="BGs" viewBox="0 0 880 880"><defs><style>.cls-1{fill:#d3f3ef}.cls-1,.cls-2,.cls-3,.cls-4,.cls-5{stroke-width:0}.cls-2{fill:#c8a5db}.cls-3{fill:#ece0f3}.cls-4{fill:#ffeebe}.cls-5{fill:#ffcdcc}</style></defs><path d="M-.14.95h879.86v879.1H-.14z" class="cls-2"/><path d="M880.11 807.1c-59.39-154.74-178.05-120.93-259.82-95.89-125.63 34.35-247.74-48.23-222.7-188.58 9.8-54.92 13.38-107.29-1.48-165.09-28.25-109.86-134.05-10.05-118.77-116.17 5.81-16.88 27.34-5.75 40.41-8.66C388.03 180.85 353.74 56.73 464.37.95h-29.63c-23.77 12.27-35.45 19.21-45.67 35.42-27.14 43.05-68.01 164.01-102.74 85.3C269.65 83.87 301.46 36.84 318.3.95H204.63c16.62 95.98 7.37 291.56 59.12 364.15 26.35 28.85 78.07 15.21 94.07 60.06 26.95 76.33-6.36 160.68 2.58 239.61-3.62 82 219.48 103.1 286.21 71.41 94.11-44.69 129.97-17.97 190.64 71.19 17.8 26.16 28.59 47.07 37.42 72.75h5.45s.27-73.01 0-73.01Z" class="cls-1"/><path d="M862.97 169.62c-67.44 21.59-191.49 87.78-227.28 149.15-17 27.1-16.29 66.77 23.22 67.86 72.18 2.14 152.33-62.92 220.38-17.88v-58.06c-33.54-4.35-69.58 5.04-102.29 15.25-21.42 5.85-44.15 13.44-66.07 11.08-48.49-9.3 8.55-58.83 28.69-70.21 41.52-26.24 90.89-47.44 139.66-44.16v-56.98a193.35 193.35 0 0 0-16.32 3.95Z" class="cls-1"/><path d="M823.59 380c-69.89-10.64-196.58 79.74-218.37 21.98C557.6 275.8 745.8 204.73 816.6 144.83 894.7 78.74 875.48 93.78 879.29.95c.55-1.08-288.24-1.08-290.42.01-63.72 12.37-175.52 131.48-66.51 158.61 48.42 3.41 93.29-27.74 134.44-50.39 34.21-27.64 122.2-29.1 83.55 32.92-21.62 32.05-52.02 59.34-83.9 80.87-119.88 80.95-176.05 319.29 36.41 213.79 127.56-59.36 160.29-36.3 186.43 94.99-3.38-46.49 21.2-150.54-55.7-151.75Z" class="cls-4"/><path d="M827.03 625.61c-78.43-18.23 7.52-145.17-74.93-142.45-69.88 23.2-127.33 77.47-198.74 99.93-140.7 25.93-92.24-165.95-72.76-245.35 8.11-28.08 33.07-70.09-1.49-89.38-119.82-48-63.13-199.5 30.44-247.41-95.28 2.66-165.75 185.19-100.07 253.86 32.5 26.54 40.88 32.79 33.69 76.94-4.84 85.3-36.84 186.35-5.16 266.66 80.8 127.64 211.9 55.31 279.98 44.04 59.87-9.91 147.69 14.1 162.13 85.94-3.67-67.48 20.91-74.65-53.08-102.77Z" class="cls-5"/><path d="M863.35 561.64c-25.38-30-13.95-73.91-30.15-107.49-42.2-69.98-156.28 24.47-213.55 35.25-61.12 18.55-102.93 12.66-100.39-60.84-3.19-76.09 42.37-135.61 83.95-195.4 7.15-12.78 21.96-30.04 16.45-44.89-14.77-13.91-57.69-.02-77.87-.32-62.69 7.77-104.69-37.42-80.69-97.47C478.16 48.1 521.83 23.04 559.88.93h-29.97c-37.24 25.11-82.26 56.91-93.43 101.29-11.79 41.9-4.44 88.57 36.86 108.25 23.5 13.71 75.7 10.02 66.99 50.05-10.43 40.05-38.33 76.44-45.2 117.61-6.76 39.39-16.69 103.19-.65 138.95 40.35 67.54 187.85-26.77 238.5-51.19 30.4-15.49 74.58-16.6 80.92 22.74 5.15 22.36 1.82 47.27 6.56 69.74 5.12 30.9 34.02 45.93 59.38 59.34v-40.42a103.37 103.37 0 0 1-16.48-15.68ZM284.91 836.38c45.21-13 128.61-26.96 122.75 43.46h36.18c13.81-101.01-96.73-85-161.73-65.07-12.43 1.33-116 42.65-108.45 19.09 255.58-437.62-31.18-141.87 1.31-450.56C190.13 239.31 182.8 31.8.39 49.91v32.44c39.77 3.38 79.16-7.43 114.24 36.86 88.18 111.34 16.41 323.5-3.77 393.54-46.64 161.85 266.12-43.21-10.56 367.1.36.54 47.49.26 47.79.09 47.11-6.68 92.31-30.54 136.82-43.56ZM771.82 843.13c-74.29-63.53-129.2-13.1-192.02 36.31h44.4c50.44-39.37 104.71-50.97 151.14 0h28.97c-8.36-14.08-19.53-25.97-32.49-36.31Z" class="cls-3"/><path d="M830.93 840.05c-92.12-166.36-166.59-41.4-298.83-53.6-41.13-3.8-73.06-32.8-115.87-35-25.36-6.86-110.47 6.11-105.68-32.98 89.24-384.02-45.89-191.3-87.68-367.93C189.57 217.55 227.45 36.4 109.84.35 111.02.13.8.95.8.95v22.48C220.49 5 184.61 234.95 197.82 388.42c14.55 169.12 195.25 47.08 88.47 280.29-111.52 243.55 81.66 37.13 179.82 137.39 33.58 37.4 34.51 75.14 94.44 40.12 121.81-70.65 176.08-106.95 265.41 33.23h25.36c-5.34-13.83-11.52-27.45-20.4-39.39Z" class="cls-4"/><path d="M148.8 747.09c99.34-184.88-62.65-38.19-94.1-150.41-12.09-92.49 36.81-132.02 70.9-208.36 39.06-99.62 19.23-295-125.62-276.33v56.51c165.65-64.9 149.32 267.63 0 293.94v345.7c8.99-11.13 73.13-73.9 81.43-44.26-8.7 43.1-45.76 77.03-64.72 116.1h48.75c30.56-43.33 56.13-88.02 83.35-132.89ZM668.1 879.44h71.44c-19.96-11.14-43.54-11.98-71.44 0ZM352.06 851.17c-47.7-8.42-96.33 11.36-140.71 28.54 44.62 0 123.4-.02 167.78 0-2.41-14.46-11.23-24.8-27.08-28.54Z" class="cls-5"/><path d="M37.3 375.07c43.56-7.6 66.07-81.08 35.69-111.67-16.88-7.3-36.86 42.96-47.51 54.3-14.5 18.43-22.24 59.17 11.82 57.37Z" class="cls-5"/><path d="M629.42 73.29c-22.31 27.1-59.59 51.4-95.69 49.1-46.85-8.56-13.83-60.8 13.51-73.13 25.01-22.36 115.65-29.17 82.18 24.04ZM737.66 566.31c-6.28 14.26-16.57 36.71-32.91 35.97-114.79-5.23 66.48-127.43 32.91-35.97Z" class="cls-2"/></svg>