<?xml version="1.0" encoding="utf-8"?>
<!-- Generator: Adobe Illustrator 28.0.0, SVG Export Plug-In . SVG Version: 6.00 Build 0)  -->
<svg version="1.1" id="Cap" xmlns="http://www.w3.org/2000/svg" xmlns:xlink="http://www.w3.org/1999/xlink" x="0px" y="0px"
	 viewBox="0 0 880 880" style="enable-background:new 0 0 880 880;" xml:space="preserve">
<style type="text/css">
	.st0{fill:#FF5956;stroke:#083330;stroke-width:11.1246;stroke-miterlimit:10;}
	.st1{fill:#FFD45C;}
	.st2{fill:#FFE5AB;}
	.st3{fill:none;stroke:#FF5956;stroke-width:5.5623;stroke-miterlimit:10;}
	.st4{fill:#083330;}
	.st5{fill:none;stroke:#083330;stroke-width:11.1246;stroke-miterlimit:10;}
</style>
<g>
	<path class="st0" d="M331.5,544.7c-174.8,8.1-363.4-177.6-222.4-231.1c179-67.9,138.3-60.6,243.6-209.4
		c34.3-48.5,155.9-46.3,178.8,4c20.2,44.5,23.7,55,46.5,96c56.6,102,177.2,39.5,221.2,112.1c75.8,195.8-229.6,238.5-356.6,233.4
		L331.5,544.7z"/>
	<g>
		<g>
			<path class="st1" d="M271.3,256.4c16.3,24.2,80.3,44.9,74.4-1.6c-1.3-13.2,38.4-9.8,27.4-35.3c-8.5-40.1-45.4-1.6-67.1,0.7
				c-28.3-12.9-34.8,21.5-55.2,33.6C257.7,254.3,265.1,253.1,271.3,256.4z"/>
		</g>
		<g>
			<path class="st1" d="M319.2,181.3c29.5,5.4,50.6-28.5,83.1-17.6c31,8.5,64.2-34.2,26-47.5c-10.5,0.1-20.6-1.8-31.3-1.2
				c-21,1.3-27.1,13.8-47.4,3.6C339.2,142.2,302,169.8,319.2,181.3z"/>
		</g>
		<g>
			<path class="st1" d="M421.8,94.2c14.8,6.3,46.4,30.9,47.4,6.7c1.1-8.4,2.8-16.1,9.9-22C461,71.4,372.6,72.2,421.8,94.2z"/>
		</g>
		<g>
			<path class="st1" d="M499.2,105.9c-2.3,8.6-11.8,8.8-12.9,16.9c-6.8,31.6,35.5,8.4,52.7,16.1C533.3,126.3,515.8,75.8,499.2,105.9
				z"/>
		</g>
		<g>
			<path class="st1" d="M536.6,183.1c1-27.4-58.9-32.7-59.7-14.4c-7.9,25.2-29.5,4.9-48,11.9c-15.2,5.7-38.1,52-15.9,49
				c25.6-1.4,57.3,36.3,64.7,8.7C492.7,194.6,543.4,229.8,536.6,183.1z"/>
		</g>
		<g>
			<path class="st1" d="M475.8,308.2c-7.4-2.1-26.3,7.3-24.8-5.4c8.8-12.3,38.9-11.6,35.4-26.6c-4.4-20.6-40.7-2.8-54.8-13.9
				c-35-24-27.8,45.2-55.5,42.9c-43.1,4.3,8.6,38.1,28.7,34.5C421.7,342.1,518.1,320.1,475.8,308.2z"/>
		</g>
		<g>
			<path class="st1" d="M600.7,301.8c-22.3,4.5-34.9-18.4-64.3,0.8c-24.3,15.7,22.2,54.9,7.7,46.6
				C576.4,367.6,661.2,289.6,600.7,301.8z"/>
		</g>
		<g>
			<path class="st1" d="M547.6,238.1c-23.9,13.9-18.2,42.7,13.5,38.6c7.5,9.8,18.5,13.6,31.2,13.4c21.2-0.1,34.3-13.9,57.1-10.3
				c25.7-13.9-41.7-12.6-71.4-64.3C584.4,226.8,560.5,230.5,547.6,238.1z"/>
		</g>
		<g>
			<path class="st1" d="M692.9,293.5c5.9,23.5-32.3,25.5-33.3,45.5c20,15.5,58.6,7.1,83.8,4.3c29.2-11.1,3.7-35.9,7.1-55.9
				C746.4,287.4,699.1,267.5,692.9,293.5z"/>
		</g>
		<g>
			<path class="st1" d="M796.5,325c-27.6,3.8-9.7,34.3-12.7,52.4C748.1,500.9,835.9,400.9,796.5,325z"/>
		</g>
		<g>
			<path class="st1" d="M247.7,294.6c-0.7-22.6-133.6,30.6-92.1,52.2c24.7-5.1,67,1.6,87-15.2C231,306.1,248.4,314.4,247.7,294.6z"
				/>
		</g>
		<g>
			<path class="st1" d="M80.5,358.5c19.9-0.8,53.3-23.9,39.5-37.3C105.5,307.1,40.5,368.5,80.5,358.5z"/>
		</g>
		<g>
			<path class="st1" d="M175.2,521.2l-3-1.2C173.2,520.6,174.1,521,175.2,521.2z"/>
		</g>
		<g>
			<path class="st1" d="M332,520.4c-2.5-23.6-40.9,4.6-61.4,1.1c-31.3-5.4-77.5-36.7-95.6-22.6C212.7,524.2,336.3,560.9,332,520.4z"
				/>
		</g>
		<g>
			<path class="st1" d="M736.9,468.1c-24.7-16.3-60.8-10.4-68.2,21.2c-11.4,14.4-39.2,6.7-48.5,22.6
				C595.3,548.1,755.6,492,736.9,468.1z"/>
		</g>
	</g>
	<g>
		<path class="st2" d="M771.5,341.5c69,154-210.9,187.2-327.6,183.1l-102.1-4C181.2,527,6.2,378.5,137.5,339.3
			c26.9-8,106.2-43.8,278.9-8.8C562,360,743.7,279.5,771.5,341.5z"/>
	</g>
	<path class="st3" d="M507.3,392.3c21.5-9.2,24.5-47.4,22.5-57.4"/>
	<path class="st3" d="M527.5,406.3c8.6-2.4,53.2-28.6,46.8-74.1"/>
	<path class="st3" d="M566.1,411.8c14.9-9.5,59.1-31.1,58.1-88.3"/>
	<path class="st3" d="M622.5,404.3c13.2-8.7,52.2-40.1,49.8-84.9"/>
	<path class="st3" d="M650.4,406c50.9-7.4,75.8-69.4,77.9-87.9"/>
	<path class="st3" d="M669,417.2c42.9,2.9,89-18.9,111.6-55.5"/>
	<path class="st3" d="M664.9,427.9c25.3,41.4,77.8,26.7,90.2,25.6"/>
	<path class="st3" d="M634.6,406.3c-7.9,39,22.6,86.9,23.9,92.6"/>
	<path class="st3" d="M596.2,411.4c-6.6,30,1.1,72.5,14.8,100"/>
	<path class="st3" d="M559.5,415.4c-8.1,29.8-5.1,79.8,12.8,104.1"/>
	<path class="st3" d="M489.5,333.6c-0.8,13.5-4,38.1-10.1,51.5"/>
	<path class="st3" d="M451.1,334.9c-2.8,14.3-5.2,33.6-4.3,48.1"/>
	<path class="st3" d="M404.3,328.2c-4.4,18.5-1.2,42.2,8,59"/>
	<path class="st3" d="M351.1,318.8c-6.4,25.8,3.5,57.4,24,74.4"/>
	<path class="st3" d="M301.3,408.3c-10.8-5.4-48-27.6-47.8-93.3"/>
	<path class="st3" d="M249.7,404.3c-34-13.5-48.2-51.9-52.5-81.5"/>
	<path class="st3" d="M218.4,406.5c-60.3,2.2-79.4-52.3-84.2-67.8"/>
	<path class="st3" d="M208.1,420.1c-30.5,15.5-76.9,14.1-107.3-1.7"/>
	<path class="st3" d="M240.4,408.2c-9.6,50.3-70.4,63.4-84.7,61.4"/>
	<path class="st3" d="M272.8,410.4c2.2,49.2-36.6,80.5-55.4,90.2"/>
	<path class="st3" d="M312,415.7c3,41.1-18.8,80.8-40.1,100.7"/>
	<path class="st3" d="M307.7,314.3c-3.3,31.4,3.9,66.3,28.1,92.8"/>
	<g>
		<g>
			<path class="st4" d="M344.9,402.5c-0.9,0.6-1.9,1.1-2.8,1.6c-0.5,0.2-0.9,0.4-1.4,0.7c-0.1,0.1-0.3,0.1-0.4,0.2
				c-0.6,0.3,1.3-0.5,0.8-0.3c-0.3,0.1-0.6,0.2-0.9,0.3c-2.1,0.8-4.2,1.4-6.4,1.8c-0.5,0.1-1.1,0.2-1.6,0.3c-0.3,0-0.6,0.1-0.9,0.1
				c-1.3,0.2,1.3-0.2,0.3,0c-1.2,0.1-2.3,0.3-3.5,0.3c-2.5,0.2-5.1,0.2-7.6,0.1c-2.6-0.1-5.3-0.2-7.9-0.5c-1.4-0.1-2.7-0.3-4.1-0.4
				c-0.7-0.1-1.3-0.2-2-0.2c-0.8-0.1,1.5,0.2,0.2,0c-0.4-0.1-0.8-0.1-1.2-0.2c-5.7-0.8-11.3-1.8-17-2.9c-11.4-2.2-22.7-4.5-34.3-5.7
				c-9.3-1-19.6-1.3-28.4,2.2c-4.4,1.7-8.5,4.2-11.7,7.7c-3.4,3.9-5.7,8.5-7.1,13.5c-0.3,1.3-0.6,2.5-0.8,3.8
				c-0.5,2.9,0.8,6.1,3.9,6.8c2.7,0.6,6.3-0.8,6.8-3.9c0.4-2.4,1-4.8,1.9-7.1c0.1-0.2,0.2-0.5,0.3-0.7c-0.6,1.8-0.4,0.8-0.1,0.4
				c0.2-0.5,0.5-1,0.7-1.5c0.5-0.9,1-1.8,1.6-2.7c0.1-0.2,0.3-0.5,0.4-0.6c-0.2,0.1-1,1.3-0.3,0.5c0.3-0.4,0.6-0.8,1-1.1
				c0.7-0.7,1.4-1.4,2.1-2c0.8-0.7-0.5,0.2-0.5,0.4c0-0.1,0.5-0.4,0.6-0.4c0.4-0.3,0.8-0.5,1.2-0.8c0.8-0.5,1.7-1,2.6-1.4
				c0.2-0.1,0.4-0.2,0.6-0.3c0.9-0.4-1.4,0.6-0.5,0.2c0.5-0.2,0.9-0.4,1.4-0.5c0.9-0.3,1.9-0.6,2.9-0.8c1-0.3,2.1-0.5,3.1-0.6
				c0.2,0,0.5-0.1,0.7-0.1c1.1-0.2-1.6,0.2-0.5,0.1c0.6-0.1,1.1-0.1,1.7-0.2c4.8-0.4,9.6-0.3,14.4,0.2c1.3,0.1,2.5,0.2,3.8,0.4
				c0.7,0.1,1.3,0.2,2,0.2c0.3,0,1.4,0.2,0.3,0c-1.2-0.2,0.3,0,0.5,0.1c2.7,0.4,5.3,0.8,8,1.3c5.6,1,11.2,2.1,16.8,3.1
				c11.3,2.2,22.8,4.3,34.3,4.9c10.1,0.5,20.7-0.4,29.8-5c0.9-0.5,1.8-1,2.7-1.6c2.4-1.6,3.7-5,2-7.6
				C350.9,402.1,347.5,400.8,344.9,402.5L344.9,402.5z"/>
		</g>
	</g>
	<g>
		<g>
			<path class="st4" d="M529.4,413.5c8.6,5.1,18.9,6.3,28.8,6c11.2-0.4,22.3-2.5,33.2-4.7c5.4-1.1,10.9-2.3,16.3-3.4
				c2.7-0.5,5.4-1,8-1.5c1.3-0.2,2.6-0.4,3.9-0.6c0.6-0.1,1.3-0.2,1.9-0.3c0.3,0,1.4-0.2,0.3,0c-1.1,0.1,0.1,0,0.4,0
				c4.8-0.6,9.6-1,14.4-0.8c1.1,0,2.3,0.1,3.4,0.2c0.5,0,1,0.1,1.5,0.2c1.2,0.1-0.5,0.1-0.5-0.1c0,0.1,0.9,0.1,0.9,0.1
				c2,0.3,4,0.8,6,1.5c0.4,0.1,0.9,0.3,1.3,0.5c1,0.4-0.7-0.3-0.5-0.2c0.3,0.1,0.5,0.2,0.8,0.4c0.9,0.4,1.7,0.9,2.5,1.4
				c0.4,0.3,0.8,0.5,1.2,0.8c0.2,0.1,0.4,0.3,0.5,0.4c0.6,0.5-1.2-1-0.4-0.3c0.8,0.6,1.5,1.3,2.2,2c0.3,0.3,0.6,0.7,0.9,1
				c0.2,0.2,0.3,0.4,0.4,0.5c0.5,0.5-0.5-0.6-0.5-0.7c0,0,0.3,0.4,0.3,0.4c0.6,0.8,1.2,1.7,1.7,2.6c0.6,1,1,2,1.5,3.1
				c0.1,0.1-0.5-1.3-0.3-0.8c0.1,0.1,0.1,0.3,0.2,0.4c0.1,0.3,0.2,0.5,0.3,0.8c0.2,0.6,0.4,1.2,0.6,1.8c0.4,1.2,0.7,2.5,1,3.8
				c0.6,2.8,4.1,4.8,6.8,3.9c3-1,4.5-3.8,3.9-6.8c-2.1-9.7-7.4-18.9-16.5-23.6c-8.6-4.4-18.6-4.9-28.1-4.2
				c-11.1,0.9-22.1,3.2-33,5.5c-5.5,1.2-11.1,2.3-16.6,3.3c-2.7,0.5-5.4,0.9-8.1,1.3c-0.3,0-1.4,0.2-0.3,0c1.1-0.1-0.1,0-0.3,0
				c-0.7,0.1-1.4,0.2-2.1,0.3c-1.3,0.2-2.7,0.3-4,0.4c-4.9,0.4-9.9,0.5-14.8,0c-0.3,0-0.6-0.1-0.9-0.1c-0.1,0-0.2,0-0.3,0
				c-0.8-0.1,0.9,0.1,0.8,0.1c-0.6,0-1.2-0.2-1.8-0.3c-1.1-0.2-2.2-0.4-3.3-0.7c-1.1-0.3-2.2-0.6-3.2-1c-0.5-0.2-1-0.4-1.5-0.6
				c-0.1,0-0.3-0.1-0.4-0.2c-0.2-0.1,1.4,0.6,0.8,0.4c-0.3-0.1-0.6-0.3-0.9-0.4c-1-0.4-1.9-0.9-2.8-1.5c-2.5-1.5-6.2-0.7-7.6,2
				C526,408.5,526.8,411.9,529.4,413.5L529.4,413.5z"/>
		</g>
	</g>
	<g>
		<path class="st5" d="M346.7,407.9c11.3-10.6,59.7-22.3,109.6-20.9c46.6,1.3,71.2,15.2,76.2,21.9"/>
	</g>
</g>
</svg>
