<?xml version="1.0" encoding="utf-8"?>
<!-- Generator: Adobe Illustrator 28.0.0, SVG Export Plug-In . SVG Version: 6.00 Build 0)  -->
<svg version="1.1" id="Cap" xmlns="http://www.w3.org/2000/svg" xmlns:xlink="http://www.w3.org/1999/xlink" x="0px" y="0px"
	 viewBox="0 0 880 880" style="enable-background:new 0 0 880 880;" xml:space="preserve">
<style type="text/css">
	.st0{fill:url(#SVGID_1_);stroke:#083330;stroke-width:11.1246;stroke-miterlimit:10;}
	.st1{fill:url(#SVGID_00000121997485683566910980000013553554385372509628_);}
	.st2{fill:none;stroke:#FBCDB8;stroke-width:2.7811;stroke-linecap:round;stroke-miterlimit:10;}
	
		.st3{fill:url(#SVGID_00000150780689204979035680000013303455038793602486_);stroke:#FBCDB8;stroke-width:9.2705;stroke-linecap:round;stroke-miterlimit:10;}
	.st4{fill:none;stroke:#FFFFEA;stroke-width:11.1246;stroke-linecap:round;stroke-linejoin:round;stroke-miterlimit:10;}
</style>
<g>
	
		<radialGradient id="SVGID_1_" cx="433.5764" cy="392.6787" r="343.496" gradientTransform="matrix(-6.686036e-02 -0.9978 2.1176 -0.1419 -368.9869 881.0074)" gradientUnits="userSpaceOnUse">
		<stop  offset="0" style="stop-color:#FBCDB8"/>
		<stop  offset="0.1286" style="stop-color:#F8C8B7"/>
		<stop  offset="0.2884" style="stop-color:#EEB8B3"/>
		<stop  offset="0.4648" style="stop-color:#DE9FAD"/>
		<stop  offset="0.6532" style="stop-color:#C87CA4"/>
		<stop  offset="0.8488" style="stop-color:#AC4F99"/>
		<stop  offset="1" style="stop-color:#93278F"/>
	</radialGradient>
	<path class="st0" d="M383.6,542.7c0,0-25.4,3.3-61.4,2.6c-7.2-0.1-14.9-0.4-22.8-0.9c-8-0.8-16.2,0.4-24.7-2.2
		c-8.5,3.7-17.1-10.2-25.9-3.8c-8.7-0.7-17.6-5.4-26.4-5.8c-8.8-5.4-17.5-1.2-26.1-8.1c-8.6-3.3-17-5.4-25.2-10.8
		c-8.2-2-16.1-5.9-23.6-13.8c-7.5-2.2-14.6-9.1-21.2-17.1c-6.6-9.1-12.7-13.2-18.2-20.8c-5.5-7.6-10.3-16-14.5-24.9
		c-4.1-4.5-7.5-19.6-10-29.3c-0.5-9.4-1.1-5.4-1.7-7.1c-0.6-7.7-1.2-3.9-1.8-8.7c-0.6-5.4-1.1-2.8-1.6-10.1
		c-0.5-11.1-0.9-1.2-1.1-11.5c-0.3-6.3-0.4-8.4-0.3-12.8c0.1,1.1,0.3-6.5,0.8-13.9c0.5-11.2,1.2-7.7,2.2-15.1
		c1-8.5,2.3-9.9,3.9-16.1c1.6-5.4,3.6-11.8,5.9-17c2.4-11.7,5.1-8.2,8.3-17.8c3.2-2.6,6.8-23.8,10.9-18.6
		c4.1-14.1,8.7-6.3,13.9-19.3c5.1-7.1,10.8-11.6,17.1-19.8c6.3-4.3,13.2-17,20.7-20.3c7.5-7.3,15.7-13.8,24.5-20.7
		c8.9-7,18.4-14,28.7-21c10.3-9.1,21.3-16.2,33.2-21.3c11.8-5.2,24.5-8.5,38-21.4c8.4-7.1,16.8-8.9,25.3-12.1
		c8.5-5.4,17.1-8.9,25.7-9.7c8.6-2.9,17.3-5.4,26.1-7.5c34.9-8.6,70.4-11.4,105.3-9.8c8.7,0.4,17.4,2.5,26.1,2
		c8.6,1.4,17.2,0.2,25.8,3.6c8.5,0.9,17,6.9,25.3,5c8.4,1.9,16.7-1,24.8,6.4c8.2,0.3,16.3,3.1,24.2,7.6c8,2.5,15.8,7,23.5,8.7
		c7.7,3.5,15.3,2.5,22.7,9.7c7.4,3.8,14.7,5.2,21.7,10.6c7.1,3.7,14,7.5,20.7,11.4c7.4,4.3,14.6,8.8,21.5,13.3
		c6.9,3.2,13.6,12,20,14c6.4,4.6,12.5,8.3,18.3,14.5c5.8,6.5,11.3,6.7,16.5,14.9c5.2,10.5,10.1,13.2,14.6,15.1
		c4.5,10.7,8.7,8.6,12.5,15.2c3.8,9.2,7.3,12.2,10.3,15.1c3.1,6.5,5.7,12,8,14.8c2.3,3.5,4.1,11.8,5.5,14.5
		c1.4,4.7,2.4,9.4,2.9,13.9c4.8,41.5-0.9,79-30.4,114.5c-4.2,5.1-8.9,10.1-14.2,15.1c-5.2,2.8-11,10.2-17.3,14.9
		c-6.3,3.3-13.2,15.1-20.7,14.7c-7.5-0.9-15.6,10-24.4,14.5c-8.8,1-18.2,5.2-28.3,14.4c-10.1,9.8-20.9,12.4-32.4,14.3
		c-5,8.8-10.1,4.9-15.4,6.2c-5.3,2.1-10.7,4.1-16.2,6.2c-11.1,4.7-22.7,8.6-35,12.4c-12.3,5.1-25.1,9.6-38.6,12.4
		c-6.6,1.9-14,3.6-21.9,5.1C462.5,541.5,383.6,542.7,383.6,542.7z"/>
	<g>
		
			<radialGradient id="SVGID_00000163786727116079070670000003434914990118345145_" cx="432.061" cy="462.2028" r="175.4278" gradientTransform="matrix(-0.1468 -0.9892 2.3131 -0.3434 -573.6221 1048.2788)" gradientUnits="userSpaceOnUse">
			<stop  offset="0" style="stop-color:#FFFFEA"/>
			<stop  offset="0.4956" style="stop-color:#FFFFF2"/>
			<stop  offset="1" style="stop-color:#FFFFFF"/>
		</radialGradient>
		<path style="fill:url(#SVGID_00000163786727116079070670000003434914990118345145_);" d="M502.2,506c0,0,101.7-15.8,173.7-60.8
			c8-5,15.6-10.4,22.7-16.1c8.2,0.5,15.1-15.8,20.7-19.5c5.6-11.6,9.9-11.1,13.1-18.5c3.2,3.2,5.2-6.7,6.2-17.3c1-9.6,0.9-5.4,0-16
			c-1-13.8-2.8-15.9-5.5-14.6c-2.7-11-6.2-6.7-10.3-13c-4.2-4.5-9-9.6-14.4-11.3c-5.4-5.8-11.4-7.8-17.8-9.5
			c-6.4,5.7-13.3-3.5-20.5-7.6c-9.2-0.4-18.5-5.2-27.7-7.7c-9.2,3.4-18.4-4.6-27.6-6.2c-9.2-5.5-18.3-2.4-27.4-4.9
			c-9.1-5.4-18.1-1.6-27.1-3.6c-9,1.6-17.9,0.1-26.8-2.3c-8.9,2.5-17.7,1.6-26.4-1.2c-8.7,0.5-17.4-2.5-25.9-0.1
			c-8.6-0.1-17,3.5-25.4,0.9c-8.4,6.9-16.6,1.1-24.7,1.8c-8.1,6.8-16.2-0.8-24,2.7c-7.9,0.3-15.6,2.8-23.3,3.5
			c-7.6,3.8-15.1,12.4-22.4,4.2c-7.3-4.5-14.5-2.4-21.5,4.8c-7,4-13.8,3.3-20.5,5.4c-6.7,3-13.1,7.5-19.4,5.9
			c-6.3,3.5-12.4,12.1-18.3,6.4c-5.9,3.7-11.6,7.7-17.1,6.7c-5.5,5.2-10.7,3-15.8,7c-5,7.4-9.8,2.4-14.4,7.2
			c-4.6,0.1-8.9,2.7-12.9,7.4c-4.1,1.6-7.9,3.1-11.4,7.5c-3.5,5.1-6.8,8.8-9.8,7.5c-9.6,12.1-17.7,14.3-24.5,22.8
			c-6.8,10.2-12.2,12.4-16.3,20.9c-4.2,7.5-7.1,14.7-9,19.1c-1.8,8.2-2.6,13.3-2.4,17.2c0.2,5.4,1.4,10.6,3.5,15.4
			c20.6,48.4,126.2,67.1,191.3,60.2C424.2,501.6,502.2,506,502.2,506z"/>
	</g>
	<path class="st2" d="M507.8,394.2c30.8-31.8,35.6-98.3,33.3-116.2"/>
	<path class="st2" d="M532.6,404.8c48.5-20.2,63.9-93.9,63.6-119.7"/>
	<path class="st2" d="M558.3,420.5c16-0.6,113.3-28.8,109.1-119.2"/>
	<path class="st2" d="M573.5,438.1c56.1,6.9,118.1-13.4,166.7-70.2"/>
	<path class="st2" d="M553.8,421.5c1.5,24.2,6.7,38.6,18.7,43.4c27.3,11.1,54.6,1,82.3-8.1"/>
	<path class="st2" d="M540.7,415.4c-3.5,57.1,12.6,69.7,45.5,70.2"/>
	<path class="st2" d="M474.7,391.2c13.6-36.6,19.5-74.3,14-115.3"/>
	<path class="st2" d="M443.2,386.6c0-38.9-1-70.7-1-109.6"/>
	<path class="st2" d="M417.9,389.1c-16.4-12.5-28.3-75.8-29.2-107"/>
	<path class="st2" d="M387.1,392.7c-35.3-15.2-56.5-84.5-58.6-96"/>
	<path class="st2" d="M349.7,402.3c-30.3-7.6-72.1-69-71.2-89.9"/>
	<path class="st2" d="M319.4,416.9c-41.2-4.3-81.3-38.7-99.4-75.8"/>
	<path class="st2" d="M178.5,375.5c5.1,19.2,79.3,64.7,112.6,60.1"/>
	<path class="st2" d="M150.5,421.3c14.4,13.4,82.6,37.1,118.4,34.6"/>
	<path class="st2" d="M174.4,476c36.6,3.9,46.7,7.4,83.3,4.5c36.7-2.8,41.9-18.7,41.9-49"/>
	<g>
		
			<linearGradient id="SVGID_00000148651756300827397510000013393225868661900702_" gradientUnits="userSpaceOnUse" x1="418.2654" y1="381.9916" x2="421.2961" y2="441.0913" gradientTransform="matrix(0.9855 8.589143e-03 8.589143e-03 1.1421 5.6066 -51.9521)">
			<stop  offset="3.333198e-03" style="stop-color:#D19D42"/>
			<stop  offset="0.165" style="stop-color:#D5A34B;stop-opacity:0.8378"/>
			<stop  offset="0.4255" style="stop-color:#DFB362;stop-opacity:0.5764"/>
			<stop  offset="0.7503" style="stop-color:#F0CE89;stop-opacity:0.2505"/>
			<stop  offset="1" style="stop-color:#FFE5AB;stop-opacity:0"/>
		</linearGradient>
		
			<path style="fill:url(#SVGID_00000148651756300827397510000013393225868661900702_);stroke:#FBCDB8;stroke-width:9.2705;stroke-linecap:round;stroke-miterlimit:10;" d="
			M273.5,458.9c16.6-32.4,93.3-71.2,174.6-71.5c75.8-0.3,118,38.7,127.2,58"/>
	</g>
	<path class="st4" d="M251.5,195.3c-30.5,32.4,14.6,43.8,28.2,10.9c-11,74,41.3,40.4,44.1-8.9c-5.5,45.4,38.5,8.6,35.3-17.3"/>
	<path class="st4" d="M404.9,114.4c-2.8,20.3,28.4,48.5,35.5,19c1.7,11.1,3.6,22.8,10.5,31.7c19.6,24.4,45.5,2.1,39.4-24.6
		c13,14.9,37.8-1.7,28.9-19.4"/>
	<path class="st4" d="M755.7,241.7c2.7,17.5-24.7,19.3-24.3,1.6c-4.1,26.6-36,32.8-45.4,5.7c-4-12.1-1.1-25.3,1.9-37.8
		c-7.2,26.5-37.2-0.7-25-19.1"/>
	<path class="st4" d="M130,299.7c2.2,46.7,56.8,49.5,33.2-9.1c9.7,24,31.7-4.3,21.3-20.4"/>
	<path class="st4" d="M601.8,204.4c5.6,28.9-43.2,44.3-31,2.3c-7.7,16.7-28.9,4.9-22.2-7.4"/>
	<path class="st2" d="M322.4,421.5c0.5,38.4-9.6,59.7-14.1,63.6c-16.3,14.4-46.1,15.4-67.7,18.2"/>
	<path class="st2" d="M340.9,424.8c1.9,22.3,3.7,45.6-4.8,66.4c-3,7.4-7.3,14.3-13.3,19.5"/>
	<path class="st2" d="M365.6,459.3c1.4,15.9,0.8,32-1.8,47.7"/>
	<path class="st2" d="M527.5,461.6c-1.2,13.2,4.8,26.8,15.3,34.8"/>
</g>
</svg>
