<?xml version="1.0" encoding="utf-8"?>
<!-- Generator: Adobe Illustrator 28.0.0, SVG Export Plug-In . SVG Version: 6.00 Build 0)  -->
<svg version="1.1" id="Stem" xmlns="http://www.w3.org/2000/svg" xmlns:xlink="http://www.w3.org/1999/xlink" x="0px" y="0px"
	 viewBox="0 0 880 880" style="enable-background:new 0 0 880 880;" xml:space="preserve">
<style type="text/css">
	.st0{fill:#FFFFEA;}
	.st1{fill:#FFFFEA;stroke:#083330;stroke-width:11.1246;stroke-linecap:round;stroke-miterlimit:10;}
</style>
<g>
	<g>
		<path class="st0" d="M344.7,417.7l0.3-2.4c6.6-11.1,58.1-24.5,111.4-23c54.3,1.5,78.8,20.2,77,24.5c-0.3,1-0.5,0.1-0.7,1.1
			L344.7,417.7z"/>
	</g>
	<path class="st1" d="M344.2,413.6c4.5,13.9,12.4,41.9,10.2,62c-4.3,39.8-47.3,48.1-74.4,63.3c-131.8,74.1-50.9,196.6,90.5,202.5
		c9,0.4,113.7,2.1,134.9,1.3c141.4-5.9,223.2-130.1,90.5-202.5c-23.2-12.6-58.7-19.6-68.4-41.9c-14-32.5-3.8-61.7,7.9-84.2"/>
</g>
</svg>
