<?xml version="1.0" encoding="utf-8"?>
<!-- Generator: Adobe Illustrator 28.0.0, SVG Export Plug-In . SVG Version: 6.00 Build 0)  -->
<svg version="1.1" id="Stem" xmlns="http://www.w3.org/2000/svg" xmlns:xlink="http://www.w3.org/1999/xlink" x="0px" y="0px"
	 viewBox="0 0 880 880" style="enable-background:new 0 0 880 880;" xml:space="preserve">
<style type="text/css">
	.st0{fill:#FFFFEA;}
	.st1{fill:#FFFFEA;stroke:#083330;stroke-width:11.1246;stroke-linecap:round;stroke-miterlimit:10;}
	.st2{fill:none;stroke:#083330;stroke-width:11.1246;stroke-linecap:round;stroke-miterlimit:10;}
</style>
<g>
	<g>
		<path class="st0" d="M344.7,417.7l0.3-2.4c6.6-11.1,58.1-24.5,111.4-23c54.3,1.5,78.8,20.2,77,24.5c-0.3,1-0.5,0.1-0.7,1.1
			L344.7,417.7z"/>
	</g>
	<path class="st1" d="M344.2,413.9c20.1,79-55.3,113.8-69,188.6C243.6,776.1,498,754.9,566.9,715.5c68.9-39.4,51-175.5-30.8-191.9
		c-7.6-30.3-22.6-51.8-1.1-108.6"/>
	<path class="st2" d="M534.9,523.3c-30.1-5.6-67.6-1.6-89.1,21"/>
	<path class="st2" d="M453.8,583.6c0.4-83.7-108.2-69.8-139.4-20.1"/>
</g>
</svg>
