<?xml version="1.0" encoding="utf-8"?>
<!-- Generator: Adobe Illustrator 28.0.0, SVG Export Plug-In . SVG Version: 6.00 Build 0)  -->
<svg version="1.1" id="Stem" xmlns="http://www.w3.org/2000/svg" xmlns:xlink="http://www.w3.org/1999/xlink" x="0px" y="0px"
	 viewBox="0 0 880 880" style="enable-background:new 0 0 880 880;" xml:space="preserve">
<style type="text/css">
	.st0{fill:#FFFFEA;}
	.st1{fill:#FFFFEA;stroke:#083330;stroke-width:11.1246;stroke-linecap:round;stroke-miterlimit:10;}
	.st2{fill:none;stroke:#083330;stroke-width:11.1246;stroke-linecap:round;stroke-miterlimit:10;}
</style>
<g>
	<g>
		<path class="st0" d="M344.7,417.7l0.3-2.4c6.6-11.1,58.1-24.5,111.4-23c54.3,1.5,78.8,20.2,77,24.5c-0.3,1-0.5,0.1-0.7,1.1
			L344.7,417.7z"/>
	</g>
	<path class="st1" d="M344,413.4c17.7,63.6-61,96-87.7,140.9c-76.4,128.3,8.8,180.6,126.8,179.3c65-0.7,126.2,5.6,181.8-14.1
		c104-36.9,25.3-183.9-84.9-181.8c4.8-0.1,1.5-15.7-8.8-22.3c17.2-11.7,35.3-24.4,43.5-43.6c12.7-29.3,7.4-28.1,19.9-56.2"/>
	<path class="st2" d="M482.8,537.6c-35.6,0-72.7-0.1-117.4,10.9c-46.2,11.4-59.1,31.1-69.7,46.2"/>
	<path class="st2" d="M473,516.7c-8.6-7.1-20.2-11.9-39.4-13.1c-18.9-1.3-56.8,3.3-97,23"/>
</g>
</svg>
