<?xml version="1.0" encoding="utf-8"?>
<!-- Generator: Adobe Illustrator 28.0.0, SVG Export Plug-In . SVG Version: 6.00 Build 0)  -->
<svg version="1.1" id="Stem" xmlns="http://www.w3.org/2000/svg" xmlns:xlink="http://www.w3.org/1999/xlink" x="0px" y="0px"
	 viewBox="0 0 880 880" style="enable-background:new 0 0 880 880;" xml:space="preserve">
<style type="text/css">
	.st0{fill:#FFFFEA;}
	.st1{fill:#FFFFEA;stroke:#083330;stroke-width:11.1246;stroke-linecap:round;stroke-miterlimit:10;}
	.st2{fill:none;stroke:#083330;stroke-width:11.1246;stroke-linecap:round;stroke-miterlimit:10;}
</style>
<g>
	<g>
		<path class="st0" d="M344.7,417.7l0.3-2.4c6.6-11.1,58.1-24.5,111.4-23c54.3,1.5,78.8,20.2,77,24.5c-0.3,1-0.5,0.1-0.7,1.1
			L344.7,417.7z"/>
	</g>
	<path class="st1" d="M344.9,415.2c-13.8,0.9-11.9,13.8-7.9,18.2c1.4,1.5,1.4,3.8,0.2,5.4c-53.6,69.4-197.5,289.7,61,303.8
		c350.6,19.2,232.6-179.8,138.4-302.1c7.2-2.4,15.4-23.1-1.8-25.5"/>
	<path class="st2" d="M337.2,434.6c11.7,6.5,24.7,10.7,38,12.2"/>
	<path class="st2" d="M345.2,414.9c10.3-1,19.7-0.2,30.1,0.5"/>
	<path class="st2" d="M543.4,432.8c-7.9,11.5-22.7,14.1-38.6,11.2"/>
	<path class="st2" d="M486.7,419.1c13.2,3.3,38.9,7.9,48.5-3.7"/>
</g>
</svg>
