<?xml version="1.0" encoding="utf-8"?>
<!-- Generator: Adobe Illustrator 28.0.0, SVG Export Plug-In . SVG Version: 6.00 Build 0)  -->
<svg version="1.1" id="Stem" xmlns="http://www.w3.org/2000/svg" xmlns:xlink="http://www.w3.org/1999/xlink" x="0px" y="0px"
	 viewBox="0 0 880 880" style="enable-background:new 0 0 880 880;" xml:space="preserve">
<style type="text/css">
	.st0{fill:#FFFFEA;}
	.st1{fill:none;stroke:#083330;stroke-width:11.1246;stroke-linecap:round;stroke-miterlimit:10;}
</style>
<path class="st0" d="M274.9,671.7C274.9,671.6,274.9,671.6,274.9,671.7C274.9,671.8,274.9,671.4,274.9,671.7z"/>
<path class="st0" d="M274.9,671.7C274.9,671.6,274.9,671.6,274.9,671.7C274.9,671.8,274.9,671.4,274.9,671.7z"/>
<g>
	<g>
		<path class="st0" d="M344.7,417.7l0.3-2.4c6.6-11.1,58.1-24.5,111.4-23c54.3,1.5,78.8,20.2,77,24.5c-0.3,1-0.5,0.1-0.7,1.1
			L344.7,417.7z"/>
	</g>
	<g>
		<path class="st0" d="M442.2,747.8c-128.8,22.4-207.1-112.7-123-182.4c-57.6-59.1,29-108.7,26-149.4c-0.1-0.8,187.7,0.4,187.5,1.2
			c-11.5,47.1,38.8,86,10.7,108.8c68.2,22,85.7,137.2,23.6,191.6C534.5,743.4,483.6,740.6,442.2,747.8z"/>
		<path class="st0" d="M287,638.4C287,638.2,287,638.3,287,638.4C287,638.4,286.9,638.1,287,638.4z"/>
		<path class="st0" d="M287,638.4C287,638.2,287,638.3,287,638.4C287,638.4,286.9,638.1,287,638.4z"/>
	</g>
	<path class="st1" d="M344.4,414.3c8,47-78.2,74.6-27.5,151.9"/>
	<path class="st1" d="M534.5,415.3c-19.9,38.6,29.7,72.3,12.6,108.8"/>
	<path class="st1" d="M545.8,560c-40.2,7.9-77-6.8-100.7-11.8c-236-49.5-200,251.4,29.5,196.8c32.3-7.7,95.8-3.8,119-69.1
		c70.1-197.1-211.4-170.6-213.4-217.4"/>
</g>
</svg>
