<?xml version="1.0" encoding="utf-8"?>
<!-- Generator: Adobe Illustrator 28.0.0, SVG Export Plug-In . SVG Version: 6.00 Build 0)  -->
<svg version="1.1" id="Stem" xmlns="http://www.w3.org/2000/svg" xmlns:xlink="http://www.w3.org/1999/xlink" x="0px" y="0px"
	 viewBox="0 0 880 880" style="enable-background:new 0 0 880 880;" xml:space="preserve">
<style type="text/css">
	.st0{fill:#FFFFEA;}
	.st1{fill:none;stroke:#083330;stroke-width:11.1246;stroke-linecap:round;stroke-miterlimit:10;}
</style>
<g>
	<g>
		<path class="st0" d="M344.7,417.7l0.3-2.4c6.6-11.1,58.1-24.5,111.4-23c54.3,1.5,78.8,20.2,77,24.5c-0.3,1-0.5,0.1-0.7,1.1
			L344.7,417.7z"/>
	</g>
	<path class="st0" d="M564.9,549.2c11.9-9,13.4-23.7,4.1-36.8c5.1-52.5-23.2-45.5-34-68.4c-3.4-3.8,2.4-22.6,0.7-28
		c-0.5-1.8-186.6-5-190.7-2.6c-0.9,52.2,123.5,66.8-18.6,151.2c-103.9,86-74.6,186.5,99.2,173.1C570,748.8,670,708.6,564.9,549.2z"
		/>
	<path class="st1" d="M534.7,415c-16.5,42.7,14.1,30.4,29.2,60c30.3,59.6-44.3,72.8-91.5,53.5"/>
	<path class="st1" d="M506.5,556.2c28.4,5.8,79.6-3.2,64.1-42.7"/>
	<path class="st1" d="M344.2,413.9c12.2,36,39.1,49.7,46.1,66.7c27,65.5-76.4,66-109.8,129.5c-61.6,117.2,62.9,141.7,231.9,125.5
		c115.8-11.1,121.2-93.3,49.5-185.8"/>
</g>
</svg>
