<?xml version="1.0" encoding="utf-8"?>
<!-- Generator: Adobe Illustrator 28.0.0, SVG Export Plug-In . SVG Version: 6.00 Build 0)  -->
<svg version="1.1" id="Stem" xmlns="http://www.w3.org/2000/svg" xmlns:xlink="http://www.w3.org/1999/xlink" x="0px" y="0px"
	 viewBox="0 0 880 880" style="enable-background:new 0 0 880 880;" xml:space="preserve">
<style type="text/css">
	.st0{fill:#FFFFEA;}
	.st1{fill:#FFFFEA;stroke:#083330;stroke-width:11.1246;stroke-linecap:round;stroke-miterlimit:10;}
	.st2{fill:#FFE5AB;}
</style>
<g>
	<g>
		<path class="st0" d="M344.7,417.7l0.3-2.4c6.6-11.1,58.1-24.5,111.4-23c54.3,1.5,78.8,20.2,77,24.5c-0.3,1-0.5,0.1-0.7,1.1
			L344.7,417.7z"/>
	</g>
	<path class="st1" d="M386.4,500.3c8,51.5-61.2,27.3-90.8,95.5c-54.8,126.5,61.1,148,187.9,139.4c102.8-7,144.5-67.7,99.3-151.5
		c-25.8-47.7-84.3-32.8-73.3-81.8"/>
	<g>
		<path class="st2" d="M513.4,501.8l-123.2-1.6c7,44.8-44.6,32.3-77.5,73.3c8.7,5.2,29-10.3,34.6-9.5c8.2,1.2,7.3,13.8,10.9,21.2
			c9,17.2,26.2,12.6,35.2-2.3c6-10.7,16.6,4.4,21.2,10.9c17.9,27.3,24-18.1,48-16.9c16.4,1.5,20.7,17.4,35,19.3
			c22.9,3,27.6-38.8,47.5-9.5c5.9,8.9,16,2.4,21.3-5.7c5.5-8.3,9.3-9.9,12.6-8.6C551,538,503.3,546.4,513.4,501.8z"/>
	</g>
	<path class="st1" d="M344.2,413.6c10.3,37.7-29,72.4-66.2,62.9c-2.3-0.6-4.6,0.8-5.3,3c-4.7,14,1.5,29.8,19.1,26.1
		c11.2-2.4,14.6,8.5,13.5,17.1c-4.4,34.8,30.6,5.3,38.2,6.4c8.2,1.2,7.3,13.8,10.9,21.2c9,17.2,26.2,12.6,35.2-2.3
		c6-10.7,16.6,4.4,21.2,10.9c17.9,27.3,24-18.1,48-16.9c16.4,1.5,20.7,17.4,35,19.3c22.9,3,27.6-38.8,47.5-9.5
		c5.9,8.9,16,2.4,21.3-5.7c15.7-23.7,17.4,7.3,34.8,5c17.6-1.4,12.6-14.9,6.9-29.3c-5.5-13.6,7.1-15.5,15.2-7.5
		c8.9,8.7,15.6-5.4,17.5-16c0.5-2.9-1.5-5.5-4.4-5.9c-42.6-4.9-115.1-26.4-97.4-78.1"/>
</g>
</svg>
