<?xml version="1.0" encoding="utf-8"?>
<!-- Generator: Adobe Illustrator 28.0.0, SVG Export Plug-In . SVG Version: 6.00 Build 0)  -->
<svg version="1.1" id="Feet" xmlns="http://www.w3.org/2000/svg" xmlns:xlink="http://www.w3.org/1999/xlink" x="0px" y="0px"
	 viewBox="0 0 880 880" style="enable-background:new 0 0 880 880;" xml:space="preserve">
<style type="text/css">
	.st0{fill:url(#SVGID_1_);}
	.st1{fill:#FFFFEA;}
	.st2{fill:none;stroke:#083330;stroke-width:11.1246;stroke-linecap:round;stroke-miterlimit:10;}
</style>
<g>
	
		<radialGradient id="SVGID_1_" cx="460.0512" cy="796.6268" r="223.1083" gradientTransform="matrix(1.1233 0 0 0.1656 -81.7877 671.2043)" gradientUnits="userSpaceOnUse">
		<stop  offset="0" style="stop-color:#969696"/>
		<stop  offset="1" style="stop-color:#FFFFFF;stop-opacity:0"/>
	</radialGradient>
	<ellipse class="st0" cx="435" cy="803.1" rx="250.3" ry="39.1"/>
	<path class="st1" d="M390.6,775.3c-15.1-49.2,23-24.5-45.4-54.8c1.7,11.4,7.6,21.1-2.3,36c-14.9,18.4-82.1-19.6-83.7,18.9
		c6.8,11-3.7,25.6,15.8,26.1c5.6,2.5,3.1,11.7,19.1,12c15.6-7.7,22.8-4,35.6,1.2c11,0.4,20.4-14.9,30.6-6.9
		C386.4,822.3,407.1,798.4,390.6,775.3z"/>
	<path class="st2" d="M309.9,786.2c-28.7-8.8-43.1,23.3-15.6,24.6c9-2.2,20.5-10.4,28.2-1.2c15.2,9.7,24.2-15,39.4-4.1
		c10.2,5.1,27.2,6.3,31.9-6.2c2.1-24.7-19.1-27.1-6.6-57.6"/>
	<path class="st2" d="M276.9,798.9c-22.7,0.8-7.7-25,9.1-25.3"/>
	<path class="st2" d="M266.5,782c-4.4-3.5-5.6-11.3-1.3-16.3c3.7-4.2,10.7-8.8,20.9-7.3c14.7,2.1,50.6,11,59.7-1.3
		c9.9-13.4,4.9-27.6,3.8-33.2"/>
	<path class="st1" d="M521,807.7c10.2-8,19.6,7.2,30.6,6.9c12.8-5.1,20-8.9,35.6-1.2c16-0.2,13.5-9.4,19.1-12
		c19.5-0.5,9-15.1,15.8-26.1c-1.6-38.5-68.8-0.5-83.7-18.9c-9.9-14.9-4-24.6-2.3-36c-68.4,30.2-30.2,5.6-45.4,54.8
		C474.3,798.4,494.9,822.3,521,807.7z"/>
	<path class="st2" d="M571.5,786.2c28.7-8.8,43.1,23.3,15.6,24.6c-9-2.2-20.5-10.4-28.2-1.2c-15.2,9.7-24.2-15-39.4-4.1
		c-10.2,5.1-27.2,6.3-31.9-6.2c-2.1-24.7,19.1-27.1,6.6-57.6"/>
	<path class="st2" d="M606.2,798.9c22.7,0.8,7.7-25-9.1-25.3"/>
	<path class="st2" d="M616.5,781.1c4.4-3.5,5.6-11.3,1.3-16.3c-3.7-4.2-10.7-8.8-20.9-7.3c-14.7,2.1-50.6,11-59.7-1.3
		c-9.9-13.4-4.9-27.6-3.8-33.2"/>
</g>
</svg>
