<?xml version="1.0" encoding="utf-8"?>
<!-- Generator: Adobe Illustrator 28.0.0, SVG Export Plug-In . SVG Version: 6.00 Build 0)  -->
<svg version="1.1" id="Feet" xmlns="http://www.w3.org/2000/svg" xmlns:xlink="http://www.w3.org/1999/xlink" x="0px" y="0px"
	 viewBox="0 0 880 880" style="enable-background:new 0 0 880 880;" xml:space="preserve">
<style type="text/css">
	.st0{fill:#FFFFEA;stroke:#083330;stroke-width:11.1246;stroke-linecap:round;stroke-miterlimit:10;}
	.st1{fill:url(#SVGID_1_);}
	.st2{fill:#4BDB6C;}
	.st3{fill:#C5F9D0;}
	.st4{fill:none;stroke:#083330;stroke-width:11.1246;stroke-linecap:round;stroke-miterlimit:10;}
</style>
<g>
	<path class="st0" d="M653.3,705.4c-8.3-9.2-42.4-24.8-55.6-29.8c-3,4.9-9.9,11.5-13,14.4c-0.8,0.8-0.7,2.1,0.3,2.7
		c7.9,4.2,30.1,12,42,20.2c2.8,2,2.1,6.3-1.2,7.3c-16.7,4.6-54,10.6-63,12.1c2.2,7.3,7,19,7,19C581.4,748.6,686.1,741.7,653.3,705.4
		z"/>
	
		<radialGradient id="SVGID_1_" cx="413.8327" cy="819.6136" r="154.776" gradientTransform="matrix(1.7492 0 0 0.2174 -328.585 634.7663)" gradientUnits="userSpaceOnUse">
		<stop  offset="0" style="stop-color:#969696"/>
		<stop  offset="1" style="stop-color:#FFFFFF;stop-opacity:0"/>
	</radialGradient>
	<ellipse class="st1" cx="395.3" cy="813" rx="270.4" ry="35.6"/>
	<path class="st2" d="M265.6,718.9c-1.2-1-3.1-0.8-4,0.4c-3.5,4.7-14.5,6.2-16.8,11.8c-1,2.5,2.5,5.2,2.1,7.9
		c-0.4,2.8-1.9,5.4-3.7,7.6c-7.9,9.9-20,11.8-32.5,10.3c-12.6-1.5-22.3-15.1-34.8-13.1c-14.9,2.3-14,2.5-18.4,4.9
		c-16.5,8.4,21.5,21.5,37.1,32c9.5,6.4,20,11.2,30.5,16c5.8,2.7,11.5,5.3,17.3,8c2.5,1.2,9.2,5.6,12,5.6c6.1,0.1,9-6.9,10.9-12.6
		c1.9-5.7-1.6-13-0.1-18.9c2.3-9.2,9.5-17.8,15.3-25.3c3.4-4.4,9.1-8.5,10.4-13.6c0.4-1.6-0.3-3.2-1.5-4.1L265.6,718.9z"/>
	<path class="st3" d="M183.1,744.7c-2-0.5-4.1-0.1-6.3-0.3c-31.8-2.4-35.5,22.2-25.1,36.6c6.4,7.7,14.5,0.7,32.2-6.9
		C191.7,764.9,190.8,753,183.1,744.7z"/>
	<path class="st3" d="M277.9,758.7c1.2-1.5,2.3-3,3.5-4.5c0.4-0.6,0.9-1.1,1.4-1.6c-13.4-4.6-27-12.5-33.4-24.7
		c-1.6,1.1-3,2.3-3.6,3.9c-0.8,1.9,1.1,3.9,1.8,6C255,747.7,266.1,754.8,277.9,758.7z"/>
	<path class="st3" d="M270.1,770c1.2-2.1,2.6-4.2,4-6.2c-11.2-3.1-21.1-8.9-29.9-16.6c0,0,0,0.1-0.1,0.1c-1.3,1.7-2.8,3.1-4.4,4.4
		C248.9,759,259.2,765.6,270.1,770z"/>
	<path class="st3" d="M266.2,798.4c0.9-2.7,0.6-5.8,0.2-8.8c-11.2-3.2-22,3.7-28.6,13.3c1.8,0.8,3.7,1.7,5.5,2.5
		c2.5,1.2,9.2,5.6,12,5.6C261.4,811.1,264.3,804.2,266.2,798.4z"/>
	<path class="st0" d="M271.1,722.5c6.4-9.9,24.4-35.9,31.9-45.1c4.9,2.8,14.8,10.2,14.6,10.5c-6.7,10.4-24.4,37.3-31.1,47.7
		c-6.1-4.6-12.1-9.2-18.2-13.7"/>
	<path class="st4" d="M245.8,733.6c3.2,8.5,5.3,13.4,4.9,22.5"/>
	<path class="st4" d="M265.6,718.9c-1.2-1-3.1-0.8-4,0.4c-3.5,4.7-14.5,6.2-16.8,11.8c-1,2.5,2.5,5.2,2.1,7.9
		c-0.4,2.8-3.5,4.8-5.4,6.9c-8.3,9.1-17.5,10.8-30.1,9.3c-12.6-1.5-29.2-19.6-40.2-13.5c-15.4,8.6-23.3,4.4-25.6,21.9
		c-0.9,12.2,2.6,20.5,10.4,21.3c9.4,1,18.6-16.7,37.2-4.5c9.6,6.3,21.5,11.5,32,16.3c5.8,2.7,10.6,9.5,16.4,12.2
		c2.5,1.2,10.2,1.4,12.9,1.4c6.1,0.1,9-6.9,10.9-12.6c1.9-5.7-1.6-13-0.1-18.9c2.3-9.2,9.5-17.8,15.3-25.3
		c3.4-4.4,9.1-8.5,10.4-13.6c0.4-1.6-0.3-3.2-1.5-4.1L265.6,718.9z"/>
	<path class="st2" d="M576.2,750.4c0.4,1.5-0.5,3.1-2.1,3.5c-5.7,1.2-11.7,10.6-17.8,10.3c-2.7-0.1-3.7-4.5-6.3-5.2
		c-2.8-0.8-5.7-0.5-8.5,0.2c-12.3,3-19.1,13.2-23,25.2s40.9,13.8,33.9,24.3c-8.3,12.6-36,7.7-41.4,6.1c-31-11.8-17.8-7.2-20.8-25.8
		c-1.8-11.3-6.2-20-6.2-31.5c0-6.4-5.4-10.8-5.4-17.2c0-2.8,63-15.8,72.2-17.9c5.4-1.2,11.6-4.7,16.7-3.7c1.6,0.3,2.8,1.6,3.1,3.1
		L576.2,750.4z"/>
	<path class="st3" d="M545.3,722.6c1.9-0.4,3.7-0.9,5.5-1.3c0.7-0.2,1.4-0.3,2.1-0.6c-1.5,14.1,0.1,29.8,8.4,40.7
		c-1.7,1-3.4,1.7-5.1,1.6c-2.1-0.1-3.1-2.6-4.7-4.2C545.6,748,543.8,735,545.3,722.6z"/>
	<g>
		<path class="st3" d="M519.5,728.5c-38.9-34.9-58.5,56.4-0.6,1.3L519.5,728.5z"/>
	</g>
	<path class="st3" d="M531.7,724.9c2.4-0.2,4.9-0.6,7.3-1c-1.8,11.4-0.7,22.9,2.6,34.1c0,0-0.1,0-0.1,0c-2.1,0.5-4,1.2-5.8,2.1
		C532.8,748.8,531.1,736.7,531.7,724.9z"/>
	<g>
		<path class="st3" d="M521.5,789.2c-79.6,20.1,41.6,46.4,30.3,15.6C542.5,798.7,527.5,798.7,521.5,789.2z"/>
	</g>
	<path class="st4" d="M576.2,750.4c0.4,1.5-0.1,9.6-1.7,10c-5.7,1.2-12.1,4-18.2,3.8c-2.7-0.1-16.5-1.1-19.2-0.3
		c-11.8,3.8-12.8,8.5-16.7,20.5c-3.9,12,39,13.4,33.3,25.4c-4,8.6-29.6,8.8-46.5,3.5c-23.7-4.1-16.7-13.6-17.2-17.2
		c-1.6-11.4-5.6-23.9-5.6-35.4c0-6.4-6.6-13.9-6.6-20.2c0-2.8,9.2-15.8,10.4-18.3c2.5-5.5,10-5.3,16-4.6c6,0.6,11.2,6.9,17.1,8
		c9.3,1.7,20.1-1.2,29.4-3.3c5.4-1.2,11.6-4.7,16.7-3.7c1.6,0.3,2.8,1.6,3.1,3.1L576.2,750.4z"/>
</g>
</svg>
