<?xml version="1.0" encoding="utf-8"?>
<!-- Generator: Adobe Illustrator 28.0.0, SVG Export Plug-In . SVG Version: 6.00 Build 0)  -->
<svg version="1.1" id="Layer_1" xmlns="http://www.w3.org/2000/svg" xmlns:xlink="http://www.w3.org/1999/xlink" x="0px" y="0px"
	 viewBox="0 0 880 880" style="enable-background:new 0 0 880 880;" xml:space="preserve">
<style type="text/css">
	.st0{fill:url(#SVGID_1_);}
	.st1{fill:#FFFFEA;}
	.st2{fill:none;stroke:#083330;stroke-width:11.1246;stroke-linecap:round;stroke-miterlimit:10;}
	.st3{fill:none;stroke:#083330;stroke-width:11.1246;stroke-linecap:round;stroke-linejoin:round;stroke-miterlimit:10;}
</style>
<g>
	
		<radialGradient id="SVGID_1_" cx="392.1776" cy="788.9344" r="189.6618" gradientTransform="matrix(1.2158 0 0 0.3703 -35.9616 456.325)" gradientUnits="userSpaceOnUse">
		<stop  offset="0" style="stop-color:#969696"/>
		<stop  offset="1" style="stop-color:#FFFFFF;stop-opacity:0"/>
	</radialGradient>
	<ellipse class="st0" cx="440.9" cy="748.5" rx="230.3" ry="74.4"/>
	<path class="st1" d="M345.7,772.6c-13.6-10.2-15.5-16.3-36.3-20.8l-24.5-6.2l-0.1-0.2c15.3-6.6,32.9-13.9,49-18.5l-6.7-6.2
		c-7.7-1.3-15.3-2.5-23-3.8c-2.1-0.3-4.2-0.7-6.3-0.4c-1.6,0.3-3.1,0.9-4.6,1.5c-13,5.7-24.6,8.5-36.3,16.4
		c-3.3,2.2-6.6,4.6-9.1,7.6c-2.9,3.6-2.6,8.2-0.3,12.2c5.1,9.1,31.1,9.6,46.9,16.2c-19.9,5.5-37.3-2.9-34.7,13
		c0.6,3.7,12.5,6.3,30.3,5.6c-8,3.7-16.8,7.7-11.8,15.5c4.3,6.5,23-1,40.3-14.8c-8.7,8.1-21.8,22-7.9,27.2
		c10.2,3.8,20.2-24.3,29.9-28.1c11.9,3.2,22.7,16.5,28.2,6.5C373.9,785.5,357.7,781.6,345.7,772.6z"/>
	<path class="st2" d="M284.7,789.5c-20.8,1.5-28.3-2-29-6.1c-2.8-16.7,20.6-6.6,41.8-14.1"/>
	<path class="st2" d="M295.2,784.8c-7.7,5.2-23.8,9.3-17.1,19.6c4.3,6.7,19.4-0.3,37-14.6"/>
	<path class="st2" d="M320.4,785.2c-5.8,5.3-27.3,25.2-9.9,31.7c10.2,3.8,22-29.8,31.1-24.9c14.1,7.5,21.4,13.4,26.9,3.4
		c7.4-13.5-16-17.3-28-26.3c-13.6-10.2-10.5-12.7-31.3-17.2l-31.4-7.9"/>
	<path class="st2" d="M297.7,768.8c-14.7-8.7-44.6-4.5-50.2-14.6c-2.2-4-2.5-8.6,0.3-12.2c2.5-3.1,5.8-5.4,9.1-7.6
		c11.7-7.9,23.4-10.8,36.3-16.4c1.5-0.6,20.1-8,21.7-8.2c1.8-0.3,30.9,3.1,38.2,4c0.4,0,0.4,0.6,0.1,0.7
		c-16.9,5.4-53.6,24.5-68.4,30.9"/>
	<path class="st1" d="M573.3,720.1l-32.7-11.8l-16.2,22.4c15.1-1.4,47.3,4.8,61,11.4c13.7,6.6-1.4,14.3-8.6,16.7
		c-38.5,12.3-45.3-3.8-50.3,9.3c-4.9,12.7,19.2,10.4,19.2,10.4c-13.2,7-18.2,41.7,2.8,30.7c2.8-3.4,4.8-19,9.3-20.9l0.9,0.2
		c-3.5,7.6-1.4,17.8,0.5,21.4c4.4,8.1,13.2,9.9,16.2,1c0.7-8.5-4.8-10.9-1.7-19.6l0.4,0.1c0.5,20.1,9.7,23.7,12.9,23.5
		c15.2-3.6,1.4-23.9,8-32.3C645.7,750,623.6,731.6,573.3,720.1z"/>
	<path class="st2" d="M558.8,788.8c-3.6,7.6-1.6,18,0.4,21.6c4.4,8.1,13.2,9.9,16.2,1c0.7-8.8-5.3-11.1-1.3-20.7"/>
	<path class="st3" d="M574,791.9c0.5,20.1,9.7,23.7,12.9,23.5c15.2-3.6,1.4-23.9,8-32.3c50.8-32.7,32.7-56.3-34-69.2l-39.4,13.6
		c15.1-1.4,50.4,8.5,64,15.1c13.7,6.6-1.4,14.3-8.6,16.7c-38.5,12.3-45.3-3.8-50.3,9.3c-4.9,12.7,19.2,10.4,19.2,10.4
		c-13.2,7-18.2,41.7,2.8,30.7c2.8-3.4,4.8-19,9.3-20.9"/>
</g>
</svg>
