<?xml version="1.0" encoding="utf-8"?>
<!-- Generator: Adobe Illustrator 28.0.0, SVG Export Plug-In . SVG Version: 6.00 Build 0)  -->
<svg version="1.1" id="Layer_1" xmlns="http://www.w3.org/2000/svg" xmlns:xlink="http://www.w3.org/1999/xlink" x="0px" y="0px"
	 viewBox="0 0 880 880" style="enable-background:new 0 0 880 880;" xml:space="preserve">
<style type="text/css">
	.st0{fill:url(#SVGID_1_);}
	.st1{fill:#FFFFEA;stroke:#083330;stroke-width:11.1246;stroke-linecap:round;stroke-miterlimit:10;}
	.st2{fill:#FFE5AB;}
</style>
<g>
	
		<radialGradient id="SVGID_1_" cx="406.2159" cy="819.8918" r="154.776" gradientTransform="matrix(1.2911 0 0 0.1904 -82.8482 662.8903)" gradientUnits="userSpaceOnUse">
		<stop  offset="0" style="stop-color:#969696"/>
		<stop  offset="1" style="stop-color:#FFFFFF;stop-opacity:0"/>
	</radialGradient>
	<ellipse class="st0" cx="441.6" cy="819" rx="199.6" ry="31.2"/>
	<path class="st1" d="M497.7,731.1c0,0,24.2,55.4,37,73.5c1,1.4,2.7,2,4.3,1.7c23.3-5.2,63.7-20.9,73.9-41.4
		c16.4-32.7-60.1,0-60.1,0s-23.2-27.8-30.1-45.2C498.5,722.8,497.7,731.1,497.7,731.1"/>
	<path class="st2" d="M609.6,756.9c-7.1-2.8-56.9,24.2-68.2,36.6c-12.4,13.6,8.6,9.1,31.8-2C596.5,780.4,616.7,759.7,609.6,756.9z"
		/>
	<path class="st1" d="M382.8,731.1c0,0-24.2,55.4-37,73.5c-1,1.4-2.7,2-4.3,1.7c-23.3-5.2-63.7-20.9-73.9-41.4
		c-16.4-32.7,60.1,0,60.1,0s23.2-27.8,30.1-45.2C382.1,722.8,382.8,731.1,382.8,731.1"/>
	<path class="st2" d="M270.9,756.9c7.1-2.8,56.9,24.2,68.2,36.6c12.4,13.6-8.6,9.1-31.8-2C284.1,780.4,263.9,759.7,270.9,756.9z"/>
</g>
</svg>
